<svg xmlns="http://www.w3.org/2000/svg" xmlns:xlink="http://www.w3.org/1999/xlink" width="184.317" height="184.328" viewBox="0 0 184.317 184.328">
  <defs>
    <clipPath id="clip-path">
      <rect id="長方形_1275" data-name="長方形 1275" width="184.317" height="184.328" fill="none"/>
    </clipPath>
  </defs>
  <g id="グループ_611" data-name="グループ 611" clip-path="url(#clip-path)">
    <g id="グループ_610" data-name="グループ 610">
      <g id="グループ_609" data-name="グループ 609" clip-path="url(#clip-path)">
        <g id="グループ_608" data-name="グループ 608" opacity="0.9">
          <g id="グループ_607" data-name="グループ 607">
            <g id="グループ_606" data-name="グループ 606" clip-path="url(#clip-path)">
              <path id="パス_3577" data-name="パス 3577" d="M51.579,3.992c-5.656,1.959,6.029,17.4,6.029,17.4s-.376-19.363-6.029-17.4" transform="translate(10.579 0.815)" fill="#eeabcb"/>
              <path id="パス_3578" data-name="パス 3578" d="M33.663,12.908C28.7,16.261,43.986,28.16,43.986,28.16S38.619,9.55,33.663,12.908" transform="translate(6.908 2.644)" fill="#eeabcb"/>
              <path id="パス_3579" data-name="パス 3579" d="M18.663,26.152c-3.915,4.524,13.928,12.056,13.928,12.056S22.6,21.624,18.663,26.152" transform="translate(3.827 5.364)" fill="#eeabcb"/>
              <path id="パス_3580" data-name="パス 3580" d="M7.618,42.827C5,48.21,24.179,50.872,24.179,50.872S10.228,37.437,7.618,42.827" transform="translate(1.559 8.786)" fill="#eeabcb"/>
              <path id="パス_3581" data-name="パス 3581" d="M1.247,61.814C.114,67.687,19.336,65.3,19.336,65.3S2.385,55.93,1.247,61.814" transform="translate(0.254 12.66)" fill="#eeabcb"/>
              <path id="パス_3582" data-name="パス 3582" d="M.007,81.881c.434,5.965,18.375-1.327,18.375-1.327S-.413,75.9.007,81.881" transform="translate(0 16.668)" fill="#eeabcb"/>
              <path id="パス_3583" data-name="パス 3583" d="M3.979,101.914C5.952,107.556,21.4,95.881,21.4,95.881s-19.381.363-17.421,6.033" transform="translate(0.812 20.274)" fill="#eeabcb"/>
              <path id="パス_3584" data-name="パス 3584" d="M12.9,120.47c3.352,4.965,15.255-10.322,15.255-10.322S9.554,115.511,12.9,120.47" transform="translate(2.643 23.29)" fill="#eeabcb"/>
              <path id="パス_3585" data-name="パス 3585" d="M26.15,136.015c4.519,3.924,12.059-13.92,12.059-13.92s-16.585,10-12.059,13.92" transform="translate(5.364 25.817)" fill="#eeabcb"/>
              <path id="パス_3586" data-name="パス 3586" d="M42.822,147.479c5.381,2.613,8.055-16.57,8.055-16.57s-13.437,13.96-8.055,16.57" transform="translate(8.786 27.68)" fill="#eeabcb"/>
              <path id="パス_3587" data-name="パス 3587" d="M61.807,154.072c5.882,1.141,3.488-18.086,3.488-18.086s-9.36,16.957-3.488,18.086" transform="translate(12.66 28.754)" fill="#eeabcb"/>
              <path id="パス_3588" data-name="パス 3588" d="M81.876,155.355c5.971-.424-1.322-18.369-1.322-18.369s-4.659,18.793,1.322,18.369" transform="translate(16.668 28.965)" fill="#eeabcb"/>
              <path id="パス_3589" data-name="パス 3589" d="M101.9,151.23c5.66-1.961-6.023-17.4-6.023-17.4s.366,19.361,6.023,17.4" transform="translate(20.273 28.297)" fill="#eeabcb"/>
              <path id="パス_3590" data-name="パス 3590" d="M120.467,141.993c4.966-3.361-10.322-15.259-10.322-15.259s5.362,18.6,10.322,15.259" transform="translate(23.29 26.797)" fill="#eeabcb"/>
              <path id="パス_3591" data-name="パス 3591" d="M136.012,128.258c3.919-4.542-13.91-12.062-13.91-12.062s10,16.583,13.91,12.062" transform="translate(25.818 24.569)" fill="#eeabcb"/>
              <path id="パス_3592" data-name="パス 3592" d="M147.485,110.957c2.609-5.381-16.576-8.043-16.576-8.043s13.953,13.431,16.576,8.043" transform="translate(27.68 21.761)" fill="#eeabcb"/>
              <path id="パス_3593" data-name="パス 3593" d="M154.081,91.379c1.125-5.88-18.1-3.482-18.1-3.482s16.97,9.356,18.1,3.482" transform="translate(28.753 18.483)" fill="#eeabcb"/>
              <path id="パス_3594" data-name="パス 3594" d="M155.344,71.23c-.428-5.965-18.364,1.31-18.364,1.31s18.8,4.664,18.364-1.31" transform="translate(28.964 14.565)" fill="#eeabcb"/>
              <path id="パス_3595" data-name="パス 3595" d="M151.231,51.582c-1.964-5.65-17.407,6.023-17.407,6.023s19.366-.363,17.407-6.023" transform="translate(28.297 10.58)" fill="#eeabcb"/>
              <path id="パス_3596" data-name="パス 3596" d="M141.985,33.665C138.639,28.7,126.73,43.989,126.73,43.989s18.611-5.372,15.255-10.324" transform="translate(26.797 6.909)" fill="#eeabcb"/>
              <path id="パス_3597" data-name="パス 3597" d="M128.251,18.672c-4.537-3.917-12.071,13.92-12.071,13.92s16.6-10.007,12.071-13.92" transform="translate(24.566 3.829)" fill="#eeabcb"/>
              <path id="パス_3598" data-name="パス 3598" d="M110.964,7.613c-5.382-2.613-8.052,16.569-8.052,16.569s13.434-13.946,8.052-16.569" transform="translate(21.76 1.558)" fill="#eeabcb"/>
              <path id="パス_3599" data-name="パス 3599" d="M91.385,1.248c-5.879-1.13-3.5,18.088-3.5,18.088s9.379-16.954,3.5-18.088" transform="translate(18.482 0.254)" fill="#eeabcb"/>
              <path id="パス_3600" data-name="パス 3600" d="M71.229.007c-5.975.439,1.31,18.381,1.31,18.381S77.2-.413,71.229.007" transform="translate(14.563 0)" fill="#eeabcb"/>
              <path id="パス_3601" data-name="パス 3601" d="M55.2,28.058a2.62,2.62,0,1,1-3.318-1.621A2.612,2.612,0,0,1,55.2,28.058" transform="translate(10.596 5.56)" fill="#fff"/>
              <path id="パス_3602" data-name="パス 3602" d="M43.48,35.178a2.641,2.641,0,0,1-.711,3.639,2.614,2.614,0,1,1,.711-3.639" transform="translate(8.181 7.196)" fill="#fff"/>
              <path id="パス_3603" data-name="パス 3603" d="M33.975,45.113a2.611,2.611,0,1,1-3.683.258,2.6,2.6,0,0,1,3.683-.258" transform="translate(6.269 9.403)" fill="#fff"/>
              <path id="パス_3604" data-name="パス 3604" d="M27.385,57.146a2.618,2.618,0,1,1-3.5,1.213,2.63,2.63,0,0,1,3.5-1.213" transform="translate(4.994 12.028)" fill="#fff"/>
              <path id="パス_3605" data-name="パス 3605" d="M24.126,70.489a2.615,2.615,0,1,1-3.07,2.073,2.616,2.616,0,0,1,3.07-2.073" transform="translate(4.443 14.895)" fill="#fff"/>
              <path id="パス_3606" data-name="パス 3606" d="M24.428,84.213a2.619,2.619,0,1,1-2.418,2.8,2.625,2.625,0,0,1,2.418-2.8" transform="translate(4.652 17.805)" fill="#fff"/>
              <path id="パス_3607" data-name="パス 3607" d="M28.284,97.4a2.615,2.615,0,1,1-1.627,3.325A2.61,2.61,0,0,1,28.284,97.4" transform="translate(5.606 20.564)" fill="#fff"/>
              <path id="パス_3608" data-name="パス 3608" d="M35.4,109.13a2.615,2.615,0,1,1-.7,3.633,2.63,2.63,0,0,1,.7-3.633" transform="translate(7.243 22.98)" fill="#fff"/>
              <path id="パス_3609" data-name="パス 3609" d="M45.33,118.626a2.617,2.617,0,1,1,.269,3.692,2.622,2.622,0,0,1-.269-3.692" transform="translate(9.45 24.891)" fill="#fff"/>
              <path id="パス_3610" data-name="パス 3610" d="M57.366,125.22a2.625,2.625,0,1,1,1.215,3.5,2.634,2.634,0,0,1-1.215-3.5" transform="translate(12.075 26.165)" fill="#fff"/>
              <path id="パス_3611" data-name="パス 3611" d="M70.711,128.472a2.617,2.617,0,1,1,2.069,3.072,2.616,2.616,0,0,1-2.069-3.072" transform="translate(14.941 26.718)" fill="#fff"/>
              <path id="パス_3612" data-name="パス 3612" d="M84.444,128.171a2.594,2.594,0,0,1,2.418-2.794,2.619,2.619,0,1,1-2.418,2.794" transform="translate(17.854 26.509)" fill="#fff"/>
              <path id="パス_3613" data-name="パス 3613" d="M97.625,124.318a2.608,2.608,0,1,1,3.316,1.621,2.611,2.611,0,0,1-3.316-1.621" transform="translate(20.612 25.554)" fill="#fff"/>
              <path id="パス_3614" data-name="パス 3614" d="M109.358,117.191a2.616,2.616,0,1,1,3.621.7,2.606,2.606,0,0,1-3.621-.7" transform="translate(23.028 23.917)" fill="#fff"/>
              <path id="パス_3615" data-name="パス 3615" d="M118.858,107.265a2.608,2.608,0,1,1,3.411-3.947,2.626,2.626,0,0,1,.271,3.689,2.6,2.6,0,0,1-3.683.258" transform="translate(24.939 21.711)" fill="#fff"/>
              <path id="パス_3616" data-name="パス 3616" d="M125.444,95.227a2.615,2.615,0,1,1,3.5-1.211,2.605,2.605,0,0,1-3.5,1.211" transform="translate(26.214 19.085)" fill="#fff"/>
              <path id="パス_3617" data-name="パス 3617" d="M128.7,81.888a2.61,2.61,0,1,1,3.059-2.072,2.606,2.606,0,0,1-3.059,2.072" transform="translate(26.766 16.22)" fill="#fff"/>
              <path id="パス_3618" data-name="パス 3618" d="M128.4,68.156a2.612,2.612,0,1,1,2.424-2.79,2.626,2.626,0,0,1-2.424,2.79" transform="translate(26.555 13.308)" fill="#fff"/>
              <path id="パス_3619" data-name="パス 3619" d="M124.553,54.985a2.619,2.619,0,1,1,1.615-3.335,2.632,2.632,0,0,1-1.615,3.335" transform="translate(25.6 10.55)" fill="#fff"/>
              <path id="パス_3620" data-name="パス 3620" d="M117.426,43.246a2.616,2.616,0,1,1-2.929-4.335,2.616,2.616,0,0,1,2.929,4.335" transform="translate(23.964 8.133)" fill="#fff"/>
              <path id="パス_3621" data-name="パス 3621" d="M107.5,33.761a2.621,2.621,0,1,1-3.965-3.428,2.621,2.621,0,0,1,3.965,3.428" transform="translate(21.759 6.222)" fill="#fff"/>
              <path id="パス_3622" data-name="パス 3622" d="M95.449,27.156a2.625,2.625,0,0,1-3.5,1.216,2.663,2.663,0,0,1-1.21-3.5,2.627,2.627,0,0,1,3.514-1.2,2.6,2.6,0,0,1,1.2,3.487" transform="translate(19.133 4.949)" fill="#fff"/>
              <path id="パス_3623" data-name="パス 3623" d="M82.112,23.9a2.614,2.614,0,1,1-2.067-3.058A2.623,2.623,0,0,1,82.112,23.9" transform="translate(16.267 4.396)" fill="#fff"/>
              <path id="パス_3624" data-name="パス 3624" d="M68.39,24.2a2.617,2.617,0,0,1-5.22.372,2.617,2.617,0,0,1,5.22-.372" transform="translate(13.356 4.606)" fill="#fff"/>
              <path id="パス_3625" data-name="パス 3625" d="M55.2,28.058a2.62,2.62,0,1,1-3.318-1.621A2.612,2.612,0,0,1,55.2,28.058" transform="translate(10.596 5.56)" fill="#38b8ef"/>
              <path id="パス_3626" data-name="パス 3626" d="M43.48,35.178a2.641,2.641,0,0,1-.711,3.639,2.614,2.614,0,1,1,.711-3.639" transform="translate(8.181 7.196)" fill="#38b8ef"/>
              <path id="パス_3627" data-name="パス 3627" d="M33.975,45.113a2.611,2.611,0,1,1-3.683.258,2.6,2.6,0,0,1,3.683-.258" transform="translate(6.269 9.403)" fill="#38b8ef"/>
              <path id="パス_3628" data-name="パス 3628" d="M27.385,57.146a2.618,2.618,0,1,1-3.5,1.213,2.63,2.63,0,0,1,3.5-1.213" transform="translate(4.994 12.028)" fill="#38b8ef"/>
              <path id="パス_3629" data-name="パス 3629" d="M24.126,70.489a2.615,2.615,0,1,1-3.07,2.073,2.616,2.616,0,0,1,3.07-2.073" transform="translate(4.443 14.895)" fill="#38b8ef"/>
              <path id="パス_3630" data-name="パス 3630" d="M24.428,84.213a2.619,2.619,0,1,1-2.418,2.8,2.625,2.625,0,0,1,2.418-2.8" transform="translate(4.652 17.805)" fill="#38b8ef"/>
              <path id="パス_3631" data-name="パス 3631" d="M28.284,97.4a2.615,2.615,0,1,1-1.627,3.325A2.61,2.61,0,0,1,28.284,97.4" transform="translate(5.606 20.564)" fill="#38b8ef"/>
              <path id="パス_3632" data-name="パス 3632" d="M35.4,109.13a2.615,2.615,0,1,1-.7,3.633,2.63,2.63,0,0,1,.7-3.633" transform="translate(7.243 22.98)" fill="#38b8ef"/>
              <path id="パス_3633" data-name="パス 3633" d="M45.33,118.626a2.617,2.617,0,1,1,.269,3.692,2.622,2.622,0,0,1-.269-3.692" transform="translate(9.45 24.891)" fill="#38b8ef"/>
              <path id="パス_3634" data-name="パス 3634" d="M57.366,125.22a2.625,2.625,0,1,1,1.215,3.5,2.634,2.634,0,0,1-1.215-3.5" transform="translate(12.075 26.165)" fill="#38b8ef"/>
              <path id="パス_3635" data-name="パス 3635" d="M70.711,128.472a2.617,2.617,0,1,1,2.069,3.072,2.616,2.616,0,0,1-2.069-3.072" transform="translate(14.941 26.718)" fill="#38b8ef"/>
              <path id="パス_3636" data-name="パス 3636" d="M84.444,128.171a2.594,2.594,0,0,1,2.418-2.794,2.619,2.619,0,1,1-2.418,2.794" transform="translate(17.854 26.509)" fill="#38b8ef"/>
              <path id="パス_3637" data-name="パス 3637" d="M97.625,124.318a2.608,2.608,0,1,1,3.316,1.621,2.611,2.611,0,0,1-3.316-1.621" transform="translate(20.612 25.554)" fill="#38b8ef"/>
              <path id="パス_3638" data-name="パス 3638" d="M109.358,117.191a2.616,2.616,0,1,1,3.621.7,2.606,2.606,0,0,1-3.621-.7" transform="translate(23.028 23.917)" fill="#38b8ef"/>
              <path id="パス_3639" data-name="パス 3639" d="M118.858,107.265a2.608,2.608,0,1,1,3.411-3.947,2.626,2.626,0,0,1,.271,3.689,2.6,2.6,0,0,1-3.683.258" transform="translate(24.939 21.711)" fill="#38b8ef"/>
              <path id="パス_3640" data-name="パス 3640" d="M125.444,95.227a2.615,2.615,0,1,1,3.5-1.211,2.605,2.605,0,0,1-3.5,1.211" transform="translate(26.214 19.085)" fill="#38b8ef"/>
              <path id="パス_3641" data-name="パス 3641" d="M128.7,81.888a2.61,2.61,0,1,1,3.059-2.072,2.606,2.606,0,0,1-3.059,2.072" transform="translate(26.766 16.22)" fill="#38b8ef"/>
              <path id="パス_3642" data-name="パス 3642" d="M128.4,68.156a2.612,2.612,0,1,1,2.424-2.79,2.626,2.626,0,0,1-2.424,2.79" transform="translate(26.555 13.308)" fill="#38b8ef"/>
              <path id="パス_3643" data-name="パス 3643" d="M124.553,54.985a2.619,2.619,0,1,1,1.615-3.335,2.632,2.632,0,0,1-1.615,3.335" transform="translate(25.6 10.55)" fill="#38b8ef"/>
              <path id="パス_3644" data-name="パス 3644" d="M117.426,43.246a2.616,2.616,0,1,1-2.929-4.335,2.616,2.616,0,0,1,2.929,4.335" transform="translate(23.964 8.133)" fill="#38b8ef"/>
              <path id="パス_3645" data-name="パス 3645" d="M107.5,33.761a2.621,2.621,0,1,1-3.965-3.428,2.621,2.621,0,0,1,3.965,3.428" transform="translate(21.759 6.222)" fill="#38b8ef"/>
              <path id="パス_3646" data-name="パス 3646" d="M95.449,27.156a2.625,2.625,0,0,1-3.5,1.216,2.663,2.663,0,0,1-1.21-3.5,2.627,2.627,0,0,1,3.514-1.2,2.6,2.6,0,0,1,1.2,3.487" transform="translate(19.133 4.949)" fill="#38b8ef"/>
              <path id="パス_3647" data-name="パス 3647" d="M82.112,23.9a2.614,2.614,0,1,1-2.067-3.058A2.623,2.623,0,0,1,82.112,23.9" transform="translate(16.267 4.396)" fill="#38b8ef"/>
              <path id="パス_3648" data-name="パス 3648" d="M68.39,24.2a2.617,2.617,0,0,1-5.22.372,2.617,2.617,0,0,1,5.22-.372" transform="translate(13.356 4.606)" fill="#38b8ef"/>
              <path id="パス_3649" data-name="パス 3649" d="M56.279,35.812c-3.162,1.574,4.832,9.725,4.832,9.725s-1.669-11.292-4.832-9.725" transform="translate(11.744 7.541)" fill="#ffed00"/>
              <path id="パス_3650" data-name="パス 3650" d="M46.482,42.379c-2.655,2.341,7.183,8.145,7.183,8.145s-4.538-10.489-7.183-8.145" transform="translate(9.732 8.889)" fill="#ffed00"/>
              <path id="パス_3651" data-name="パス 3651" d="M38.722,51.257c-1.959,2.938,9.041,6,9.041,6s-7.1-8.94-9.041-6" transform="translate(8.138 10.713)" fill="#ffed00"/>
              <path id="パス_3652" data-name="パス 3652" d="M33.515,61.845c-1.134,3.341,10.292,3.449,10.292,3.449s-9.18-6.8-10.292-3.449" transform="translate(7.07 12.881)" fill="#ffed00"/>
              <path id="パス_3653" data-name="パス 3653" d="M31.22,73.438c-.212,3.525,10.842.67,10.842.67s-10.627-4.188-10.842-.67" transform="translate(6.601 15.231)" fill="#ffed00"/>
              <path id="パス_3654" data-name="パス 3654" d="M32.008,85.323c.7,3.454,10.64-2.161,10.64-2.161s-11.337-1.3-10.64,2.161" transform="translate(6.762 17.534)" fill="#ffed00"/>
              <path id="パス_3655" data-name="パス 3655" d="M35.813,96.856c1.565,3.155,9.717-4.836,9.717-4.836s-11.3,1.671-9.717,4.836" transform="translate(7.54 19.457)" fill="#ffed00"/>
              <path id="パス_3656" data-name="パス 3656" d="M42.373,107.011c2.339,2.642,8.149-7.186,8.149-7.186s-10.486,4.541-8.149,7.186" transform="translate(8.888 21.108)" fill="#ffed00"/>
              <path id="パス_3657" data-name="パス 3657" d="M51.25,115.063c2.941,1.95,6-9.046,6-9.046s-8.95,7.094-6,9.046" transform="translate(10.711 22.417)" fill="#ffed00"/>
              <path id="パス_3658" data-name="パス 3658" d="M61.847,120.457c3.344,1.123,3.448-10.3,3.448-10.3s-6.8,9.178-3.448,10.3" transform="translate(12.881 23.293)" fill="#ffed00"/>
              <path id="パス_3659" data-name="パス 3659" d="M73.433,122.829c3.536.208.671-10.836.671-10.836s-4.187,10.616-.671,10.836" transform="translate(15.23 23.681)" fill="#ffed00"/>
              <path id="パス_3660" data-name="パス 3660" d="M85.319,122.008c3.459-.7-2.162-10.63-2.162-10.63s-1.3,11.332,2.162,10.63" transform="translate(17.533 23.55)" fill="#ffed00"/>
              <path id="パス_3661" data-name="パス 3661" d="M96.854,118.072c3.158-1.572-4.835-9.728-4.835-9.728s1.672,11.3,4.835,9.728" transform="translate(19.457 22.909)" fill="#ffed00"/>
              <path id="パス_3662" data-name="パス 3662" d="M107.009,111.262c2.643-2.338-7.185-8.141-7.185-8.141s4.536,10.473,7.185,8.141" transform="translate(21.107 21.805)" fill="#ffed00"/>
              <path id="パス_3663" data-name="パス 3663" d="M115.053,102.061c1.959-2.945-9.033-6-9.033-6s7.083,8.94,9.033,6" transform="translate(22.418 20.311)" fill="#ffed00"/>
              <path id="パス_3664" data-name="パス 3664" d="M120.452,91.086c1.129-3.35-10.29-3.461-10.29-3.461s9.173,6.8,10.29,3.461" transform="translate(23.293 18.528)" fill="#ffed00"/>
              <path id="パス_3665" data-name="パス 3665" d="M122.825,79.275c.225-3.525-10.833-.674-10.833-.674s10.61,4.2,10.833.674" transform="translate(23.68 16.39)" fill="#ffed00"/>
              <path id="パス_3666" data-name="パス 3666" d="M122.008,67.454c-.693-3.453-10.64,2.156-10.64,2.156s11.345,1.3,10.64-2.156" transform="translate(23.548 14.025)" fill="#ffed00"/>
              <path id="パス_3667" data-name="パス 3667" d="M118.077,56.279c-1.579-3.158-9.727,4.835-9.727,4.835s11.288-1.674,9.727-4.835" transform="translate(22.91 11.744)" fill="#ffed00"/>
              <path id="パス_3668" data-name="パス 3668" d="M111.256,46.485c-2.326-2.651-8.136,7.184-8.136,7.184s10.474-4.545,8.136-7.184" transform="translate(21.804 9.733)" fill="#ffed00"/>
              <path id="パス_3669" data-name="パス 3669" d="M102.062,38.715c-2.949-1.947-6.008,9.052-6.008,9.052s8.942-7.1,6.008-9.052" transform="translate(20.31 8.137)" fill="#ffed00"/>
              <path id="パス_3670" data-name="パス 3670" d="M91.08,33.51C87.734,32.391,87.625,43.8,87.625,43.8s6.8-9.168,3.455-10.294" transform="translate(18.528 7.069)" fill="#ffed00"/>
              <path id="パス_3671" data-name="パス 3671" d="M79.271,31.226c-3.52-.217-.672,10.833-.672,10.833s4.2-10.627.672-10.833" transform="translate(16.389 6.602)" fill="#ffed00"/>
              <path id="パス_3672" data-name="パス 3672" d="M67.469,32.005c-3.476.709,2.142,10.645,2.142,10.645s1.3-11.342-2.142-10.645" transform="translate(14.026 6.761)" fill="#ffed00"/>
              <path id="パス_3673" data-name="パス 3673" d="M56.341,43.153a1.923,1.923,0,1,1-2.579-.866,1.932,1.932,0,0,1,2.579.866" transform="translate(11.142 8.899)" fill="#eeabcb"/>
              <path id="パス_3674" data-name="パス 3674" d="M48.458,49.448a1.922,1.922,0,1,1-2.705-.17,1.918,1.918,0,0,1,2.705.17" transform="translate(9.536 10.319)" fill="#eeabcb"/>
              <path id="パス_3675" data-name="パス 3675" d="M42.48,57.574a1.922,1.922,0,1,1-2.652.532,1.913,1.913,0,0,1,2.652-.532" transform="translate(8.352 12.106)" fill="#eeabcb"/>
              <path id="パス_3676" data-name="パス 3676" d="M38.8,66.969A1.907,1.907,0,0,1,40.02,69.4a1.922,1.922,0,1,1-3.643-1.228,1.91,1.91,0,0,1,2.424-1.2" transform="translate(7.67 14.139)" fill="#eeabcb"/>
              <path id="パス_3677" data-name="パス 3677" d="M37.694,76.985a1.923,1.923,0,1,1-2.044,1.8,1.935,1.935,0,0,1,2.044-1.8" transform="translate(7.538 16.277)" fill="#eeabcb"/>
              <path id="パス_3678" data-name="パス 3678" d="M39.208,86.955A1.924,1.924,0,1,1,37.7,89.227a1.941,1.941,0,0,1,1.507-2.273" transform="translate(7.964 18.378)" fill="#eeabcb"/>
              <path id="パス_3679" data-name="パス 3679" d="M43.245,96.2a1.921,1.921,0,1,1-.856,2.574,1.916,1.916,0,0,1,.856-2.574" transform="translate(8.92 20.299)" fill="#eeabcb"/>
              <path id="パス_3680" data-name="パス 3680" d="M49.54,104.081a1.925,1.925,0,0,1,2.717.167,1.919,1.919,0,1,1-2.717-.167" transform="translate(10.338 21.906)" fill="#eeabcb"/>
              <path id="パス_3681" data-name="パス 3681" d="M57.663,110.055a1.923,1.923,0,1,1,.544,2.671,1.944,1.944,0,0,1-.544-2.671" transform="translate(12.126 23.089)" fill="#eeabcb"/>
              <path id="パス_3682" data-name="パス 3682" d="M67.056,113.733a1.932,1.932,0,0,1,2.442-1.211,1.92,1.92,0,1,1-2.442,1.211" transform="translate(14.158 23.771)" fill="#eeabcb"/>
              <path id="パス_3683" data-name="パス 3683" d="M77.093,114.844a1.886,1.886,0,0,1,2.023-1.789,1.92,1.92,0,1,1-2.023,1.789" transform="translate(16.3 23.904)" fill="#eeabcb"/>
              <path id="パス_3684" data-name="パス 3684" d="M87.05,113.33a1.922,1.922,0,1,1,2.263,1.513,1.937,1.937,0,0,1-2.263-1.513" transform="translate(18.399 23.477)" fill="#eeabcb"/>
              <path id="パス_3685" data-name="パス 3685" d="M96.291,109.29a1.921,1.921,0,1,1,3.445-1.7,1.921,1.921,0,0,1-3.445,1.7" transform="translate(20.319 22.521)" fill="#eeabcb"/>
              <path id="パス_3686" data-name="パス 3686" d="M104.173,102.99a1.923,1.923,0,1,1,2.708.174,1.906,1.906,0,0,1-2.708-.174" transform="translate(21.924 21.102)" fill="#eeabcb"/>
              <path id="パス_3687" data-name="パス 3687" d="M110.154,94.873a1.924,1.924,0,1,1,2.666-.542,1.931,1.931,0,0,1-2.666.542" transform="translate(23.11 19.315)" fill="#eeabcb"/>
              <path id="パス_3688" data-name="パス 3688" d="M113.815,85.476a1.921,1.921,0,1,1,2.456-1.205,1.945,1.945,0,0,1-2.456,1.205" transform="translate(23.791 17.283)" fill="#eeabcb"/>
              <path id="パス_3689" data-name="パス 3689" d="M114.955,75.46a1.928,1.928,0,1,1,2.016-1.8,1.906,1.906,0,0,1-2.016,1.8" transform="translate(23.922 15.141)" fill="#eeabcb"/>
              <path id="パス_3690" data-name="パス 3690" d="M113.427,65.485a1.922,1.922,0,1,1,1.509-2.27,1.92,1.92,0,0,1-1.509,2.27" transform="translate(23.497 13.042)" fill="#eeabcb"/>
              <path id="パス_3691" data-name="パス 3691" d="M109.379,56.24a1.919,1.919,0,1,1,.867-2.571,1.9,1.9,0,0,1-.867,2.571" transform="translate(22.542 11.123)" fill="#eeabcb"/>
              <path id="パス_3692" data-name="パス 3692" d="M103.1,48.362a1.922,1.922,0,1,1-2.546-2.88,1.922,1.922,0,0,1,2.546,2.88" transform="translate(21.122 9.516)" fill="#eeabcb"/>
              <path id="パス_3693" data-name="パス 3693" d="M94.969,42.382a1.925,1.925,0,1,1-.544-2.653,1.908,1.908,0,0,1,.544,2.653" transform="translate(19.336 8.331)" fill="#eeabcb"/>
              <path id="パス_3694" data-name="パス 3694" d="M85.57,38.71a1.922,1.922,0,1,1-1.205-2.42,1.914,1.914,0,0,1,1.205,2.42" transform="translate(17.302 7.65)" fill="#eeabcb"/>
              <path id="パス_3695" data-name="パス 3695" d="M75.543,37.589a1.9,1.9,0,0,1-2.03,1.8,1.921,1.921,0,1,1,.25-3.833,1.9,1.9,0,0,1,1.781,2.032" transform="translate(15.163 7.518)" fill="#eeabcb"/>
              <path id="パス_3696" data-name="パス 3696" d="M65.577,39.106a1.924,1.924,0,1,1-2.263-1.5,1.92,1.92,0,0,1,2.263,1.5" transform="translate(13.061 7.944)" fill="#eeabcb"/>
              <path id="パス_3697" data-name="パス 3697" d="M65.485,44.512c-2.5.855,2.6,7.628,2.6,7.628s-.139-8.47-2.6-7.628" transform="translate(13.701 9.4)" fill="#fff"/>
              <path id="パス_3698" data-name="パス 3698" d="M57.623,48.392c-2.167,1.456,4.491,6.679,4.491,6.679s-2.324-8.146-4.491-6.679" transform="translate(12.092 10.195)" fill="#fff"/>
              <path id="パス_3699" data-name="パス 3699" d="M51.05,54.153c-1.718,1.971,6.061,5.3,6.061,5.3s-4.343-7.267-6.061-5.3" transform="translate(10.742 11.379)" fill="#fff"/>
              <path id="パス_3700" data-name="パス 3700" d="M46.182,61.429c-1.147,2.347,7.235,3.548,7.235,3.548s-6.08-5.895-7.235-3.548" transform="translate(9.742 12.872)" fill="#fff"/>
              <path id="パス_3701" data-name="パス 3701" d="M43.368,69.721c-.488,2.568,7.908,1.558,7.908,1.558s-7.4-4.121-7.908-1.558" transform="translate(9.166 14.565)" fill="#fff"/>
              <path id="パス_3702" data-name="パス 3702" d="M42.8,78.5c.176,2.614,8.038-.55,8.038-.55s-8.215-2.062-8.038.55" transform="translate(9.05 16.318)" fill="#fff"/>
              <path id="パス_3703" data-name="パス 3703" d="M44.509,87.257c.852,2.482,7.621-2.607,7.621-2.607s-8.466.138-7.621,2.607" transform="translate(9.399 17.899)" fill="#fff"/>
              <path id="パス_3704" data-name="パス 3704" d="M48.388,95.4c1.45,2.171,6.674-4.5,6.674-4.5s-8.134,2.316-6.674,4.5" transform="translate(10.194 19.22)" fill="#fff"/>
              <path id="パス_3705" data-name="パス 3705" d="M54.149,102.21c1.982,1.721,5.3-6.061,5.3-6.061s-7.267,4.345-5.3,6.061" transform="translate(11.378 20.33)" fill="#fff"/>
              <path id="パス_3706" data-name="パス 3706" d="M61.433,107.248c2.345,1.153,3.55-7.224,3.55-7.224s-5.909,6.079-3.55,7.224" transform="translate(12.872 21.15)" fill="#fff"/>
              <path id="パス_3707" data-name="パス 3707" d="M69.72,110.164c2.562.506,1.56-7.9,1.56-7.9s-4.131,7.4-1.56,7.9" transform="translate(14.564 21.623)" fill="#fff"/>
              <path id="パス_3708" data-name="パス 3708" d="M78.5,110.767c2.613-.19-.549-8.05-.549-8.05s-2.069,8.22.549,8.05" transform="translate(16.318 21.719)" fill="#fff"/>
              <path id="パス_3709" data-name="パス 3709" d="M87.256,108.985c2.482-.847-2.608-7.621-2.608-7.621s.128,8.47,2.608,7.621" transform="translate(17.899 21.433)" fill="#fff"/>
              <path id="パス_3710" data-name="パス 3710" d="M95.385,104.973c2.176-1.457-4.488-6.688-4.488-6.688s2.325,8.148,4.488,6.688" transform="translate(19.22 20.782)" fill="#fff"/>
              <path id="パス_3711" data-name="パス 3711" d="M102.207,98.99c1.732-1.975-6.068-5.3-6.068-5.3s4.347,7.274,6.068,5.3" transform="translate(20.328 19.811)" fill="#fff"/>
              <path id="パス_3712" data-name="パス 3712" d="M107.245,91.446c1.162-2.36-7.229-3.546-7.229-3.546s6.086,5.889,7.229,3.546" transform="translate(21.148 18.586)" fill="#fff"/>
              <path id="パス_3713" data-name="パス 3713" d="M110.16,82.893c.5-2.569-7.9-1.554-7.9-1.554s7.4,4.123,7.9,1.554" transform="translate(21.622 17.157)" fill="#fff"/>
              <path id="パス_3714" data-name="パス 3714" d="M110.754,74.076c-.173-2.607-8.036.546-8.036.546s8.216,2.062,8.036-.546" transform="translate(21.719 15.445)" fill="#fff"/>
              <path id="パス_3715" data-name="パス 3715" d="M108.989,65.477c-.848-2.475-7.627,2.609-7.627,2.609s8.46-.127,7.627-2.609" transform="translate(21.433 13.701)" fill="#fff"/>
              <path id="パス_3716" data-name="パス 3716" d="M104.975,57.63c-1.473-2.176-6.691,4.492-6.691,4.492s8.152-2.324,6.691-4.492" transform="translate(20.782 12.093)" fill="#fff"/>
              <path id="パス_3717" data-name="パス 3717" d="M98.988,51.048c-1.966-1.72-5.3,6.071-5.3,6.071s7.267-4.344,5.3-6.071" transform="translate(19.81 10.742)" fill="#fff"/>
              <path id="パス_3718" data-name="パス 3718" d="M91.438,46.192c-2.344-1.156-3.543,7.232-3.543,7.232s5.9-6.079,3.543-7.232" transform="translate(18.585 9.744)" fill="#fff"/>
              <path id="パス_3719" data-name="パス 3719" d="M82.877,43.381c-2.561-.508-1.545,7.9-1.545,7.9s4.118-7.4,1.545-7.9" transform="translate(17.155 9.168)" fill="#fff"/>
              <path id="パス_3720" data-name="パス 3720" d="M74.078,42.8c-2.606.179.548,8.044.548,8.044s2.058-8.22-.548-8.044" transform="translate(15.445 9.05)" fill="#fff"/>
              <path id="パス_3721" data-name="パス 3721" d="M64.809,49.9a1.426,1.426,0,1,1-1.8-.888,1.425,1.425,0,0,1,1.8.888" transform="translate(13.117 10.349)" fill="#9e5c9e"/>
              <path id="パス_3722" data-name="パス 3722" d="M58.4,53.773a1.411,1.411,0,0,1-.388,1.972,1.425,1.425,0,1,1,.388-1.972" transform="translate(11.797 11.236)" fill="#9e5c9e"/>
              <path id="パス_3723" data-name="パス 3723" d="M53.2,59.159a1.423,1.423,0,1,1-2,.131,1.417,1.417,0,0,1,2-.131" transform="translate(10.752 12.435)" fill="#9e5c9e"/>
              <path id="パス_3724" data-name="パス 3724" d="M49.593,65.708a1.427,1.427,0,0,1-1.254,2.563,1.448,1.448,0,0,1-.658-1.914,1.43,1.43,0,0,1,1.912-.649" transform="translate(10.053 13.863)" fill="#9e5c9e"/>
              <path id="パス_3725" data-name="パス 3725" d="M47.789,72.968a1.427,1.427,0,1,1-.546,2.8,1.427,1.427,0,0,1,.546-2.8" transform="translate(9.747 15.424)" fill="#9e5c9e"/>
              <path id="パス_3726" data-name="パス 3726" d="M47.925,80.452a1.426,1.426,0,1,1-1.32,1.516,1.435,1.435,0,0,1,1.32-1.516" transform="translate(9.854 17.01)" fill="#9e5c9e"/>
              <path id="パス_3727" data-name="パス 3727" d="M49.994,87.645a1.426,1.426,0,1,1,.933,2.7,1.426,1.426,0,0,1-.933-2.7" transform="translate(10.369 18.516)" fill="#9e5c9e"/>
              <path id="パス_3728" data-name="パス 3728" d="M53.869,94.054a1.424,1.424,0,1,1,1.589,2.362,1.424,1.424,0,1,1-1.589-2.362" transform="translate(11.257 19.836)" fill="#9e5c9e"/>
              <path id="パス_3729" data-name="パス 3729" d="M59.258,99.236a1.428,1.428,0,1,1,.127,2.012,1.432,1.432,0,0,1-.127-2.012" transform="translate(12.455 20.88)" fill="#9e5c9e"/>
              <path id="パス_3730" data-name="パス 3730" d="M65.808,102.862a1.425,1.425,0,1,1,.644,1.9,1.419,1.419,0,0,1-.644-1.9" transform="translate(13.884 21.58)" fill="#9e5c9e"/>
              <path id="パス_3731" data-name="パス 3731" d="M73.072,104.657a1.421,1.421,0,1,1,1.121,1.672,1.41,1.41,0,0,1-1.121-1.672" transform="translate(15.445 21.886)" fill="#9e5c9e"/>
              <path id="パス_3732" data-name="パス 3732" d="M80.552,104.52A1.412,1.412,0,0,1,81.877,103a1.426,1.426,0,1,1-1.325,1.519" transform="translate(17.031 21.778)" fill="#9e5c9e"/>
              <path id="パス_3733" data-name="パス 3733" d="M87.739,102.447a1.423,1.423,0,1,1,1.81.888,1.434,1.434,0,0,1-1.81-.888" transform="translate(18.536 21.263)" fill="#9e5c9e"/>
              <path id="パス_3734" data-name="パス 3734" d="M94.14,98.59a1.434,1.434,0,1,1,1.988.372,1.437,1.437,0,0,1-1.988-.372" transform="translate(19.855 20.375)" fill="#9e5c9e"/>
              <path id="パス_3735" data-name="パス 3735" d="M99.341,93.192a1.424,1.424,0,0,1,1.872-2.148,1.424,1.424,0,0,1-1.872,2.148" transform="translate(20.901 19.177)" fill="#9e5c9e"/>
              <path id="パス_3736" data-name="パス 3736" d="M102.957,86.652a1.431,1.431,0,0,1,1.256-2.571,1.448,1.448,0,0,1,.655,1.909,1.431,1.431,0,0,1-1.912.661" transform="translate(21.602 17.748)" fill="#9e5c9e"/>
              <path id="パス_3737" data-name="パス 3737" d="M104.754,79.382a1.426,1.426,0,1,1,1.673-1.121,1.429,1.429,0,0,1-1.673,1.121" transform="translate(21.906 16.188)" fill="#9e5c9e"/>
              <path id="パス_3738" data-name="パス 3738" d="M104.611,71.907a1.428,1.428,0,1,1,1.327-1.52,1.434,1.434,0,0,1-1.327,1.52" transform="translate(21.798 14.601)" fill="#9e5c9e"/>
              <path id="パス_3739" data-name="パス 3739" d="M102.555,64.716a1.429,1.429,0,1,1-.934-2.7,1.429,1.429,0,0,1,.934,2.7" transform="translate(21.283 13.096)" fill="#9e5c9e"/>
              <path id="パス_3740" data-name="パス 3740" d="M98.681,58.3a1.423,1.423,0,1,1,.4-1.978,1.44,1.44,0,0,1-.4,1.978" transform="translate(20.397 11.777)" fill="#9e5c9e"/>
              <path id="パス_3741" data-name="パス 3741" d="M93.29,53.109a1.424,1.424,0,1,1-.132-2,1.413,1.413,0,0,1,.132,2" transform="translate(19.198 10.731)" fill="#9e5c9e"/>
              <path id="パス_3742" data-name="パス 3742" d="M86.739,49.495a1.414,1.414,0,0,1-1.9.655,1.429,1.429,0,1,1,1.9-.655" transform="translate(17.771 10.031)" fill="#9e5c9e"/>
              <path id="パス_3743" data-name="パス 3743" d="M79.48,47.7a1.426,1.426,0,1,1-1.116-1.674A1.42,1.42,0,0,1,79.48,47.7" transform="translate(16.209 9.726)" fill="#9e5c9e"/>
              <path id="パス_3744" data-name="パス 3744" d="M72,47.832a1.421,1.421,0,0,1-1.327,1.524A1.425,1.425,0,1,1,72,47.832" transform="translate(14.621 9.834)" fill="#9e5c9e"/>
              <path id="パス_3745" data-name="パス 3745" d="M65.064,53.682c-1.759.876,2.689,5.41,2.689,5.41s-.924-6.289-2.689-5.41" transform="translate(13.67 11.333)" fill="#eeabcb"/>
              <path id="パス_3746" data-name="パス 3746" d="M59.609,57.329c-1.455,1.3,4,4.533,4,4.533s-2.52-5.836-4-4.533" transform="translate(12.552 12.082)" fill="#eeabcb"/>
              <path id="パス_3747" data-name="パス 3747" d="M55.288,62.275c-1.085,1.632,5.04,3.33,5.04,3.33s-3.946-4.974-5.04-3.33" transform="translate(11.663 13.097)" fill="#eeabcb"/>
              <path id="パス_3748" data-name="パス 3748" d="M52.4,68.161c-.636,1.857,5.731,1.92,5.731,1.92s-5.1-3.782-5.731-1.92" transform="translate(11.069 14.303)" fill="#eeabcb"/>
              <path id="パス_3749" data-name="パス 3749" d="M51.122,74.608c-.128,1.964,6.031.383,6.031.383s-5.907-2.337-6.031-.383" transform="translate(10.809 15.611)" fill="#eeabcb"/>
              <path id="パス_3750" data-name="パス 3750" d="M51.559,81.222c.4,1.925,5.925-1.2,5.925-1.2s-6.323-.726-5.925,1.2" transform="translate(10.898 16.892)" fill="#eeabcb"/>
              <path id="パス_3751" data-name="パス 3751" d="M53.67,87.64c.881,1.754,5.419-2.7,5.419-2.7s-6.283.935-5.419,2.7" transform="translate(11.331 17.96)" fill="#eeabcb"/>
              <path id="パス_3752" data-name="パス 3752" d="M57.328,93.29c1.313,1.471,4.527-4,4.527-4s-5.823,2.526-4.527,4" transform="translate(12.082 18.881)" fill="#eeabcb"/>
              <path id="パス_3753" data-name="パス 3753" d="M62.262,97.767c1.642,1.087,3.347-5.031,3.347-5.031s-4.973,3.944-3.347,5.031" transform="translate(13.096 19.609)" fill="#eeabcb"/>
              <path id="パス_3754" data-name="パス 3754" d="M68.151,100.763c1.868.625,1.924-5.716,1.924-5.716s-3.772,5.1-1.924,5.716" transform="translate(14.302 20.097)" fill="#eeabcb"/>
              <path id="パス_3755" data-name="パス 3755" d="M74.6,102.089c1.973.116.379-6.028.379-6.028s-2.324,5.9-.379,6.028" transform="translate(15.61 20.312)" fill="#eeabcb"/>
              <path id="パス_3756" data-name="パス 3756" d="M81.218,101.635c1.924-.391-1.2-5.917-1.2-5.917s-.728,6.306,1.2,5.917" transform="translate(16.891 20.239)" fill="#eeabcb"/>
              <path id="パス_3757" data-name="パス 3757" d="M87.637,99.433c1.759-.87-2.7-5.4-2.7-5.4s.939,6.27,2.7,5.4" transform="translate(17.96 19.883)" fill="#eeabcb"/>
              <path id="パス_3758" data-name="パス 3758" d="M93.288,95.657c1.468-1.3-4-4.532-4-4.532s2.525,5.826,4,4.532" transform="translate(18.88 19.268)" fill="#eeabcb"/>
              <path id="パス_3759" data-name="パス 3759" d="M97.759,90.539c1.089-1.646-5.027-3.348-5.027-3.348s3.948,4.984,5.027,3.348" transform="translate(19.608 18.436)" fill="#eeabcb"/>
              <path id="パス_3760" data-name="パス 3760" d="M100.766,84.424c.628-1.858-5.73-1.918-5.73-1.918s5.106,3.783,5.73,1.918" transform="translate(20.095 17.446)" fill="#eeabcb"/>
              <path id="パス_3761" data-name="パス 3761" d="M102.085,77.857c.125-1.958-6.025-.376-6.025-.376s5.912,2.334,6.025.376" transform="translate(20.312 16.255)" fill="#eeabcb"/>
              <path id="パス_3762" data-name="パス 3762" d="M101.627,71.281c-.383-1.923-5.922,1.205-5.922,1.205s6.315.726,5.922-1.205" transform="translate(20.236 14.94)" fill="#eeabcb"/>
              <path id="パス_3763" data-name="パス 3763" d="M99.442,65.062c-.873-1.752-5.407,2.7-5.407,2.7s6.274-.933,5.407-2.7" transform="translate(19.883 13.671)" fill="#eeabcb"/>
              <path id="パス_3764" data-name="パス 3764" d="M95.649,59.617c-1.3-1.473-4.528,3.994-4.528,3.994s5.839-2.523,4.528-3.994" transform="translate(19.267 12.553)" fill="#eeabcb"/>
              <path id="パス_3765" data-name="パス 3765" d="M90.53,55.3c-1.64-1.089-3.34,5.026-3.34,5.026s4.973-3.946,3.34-5.026" transform="translate(18.436 11.665)" fill="#eeabcb"/>
              <path id="パス_3766" data-name="パス 3766" d="M84.421,52.4c-1.858-.617-1.92,5.729-1.92,5.729s3.772-5.1,1.92-5.729" transform="translate(17.445 11.071)" fill="#eeabcb"/>
              <path id="パス_3767" data-name="パス 3767" d="M77.863,51.121c-1.975-.115-.383,6.038-.383,6.038s2.342-5.915.383-6.038" transform="translate(16.255 10.809)" fill="#eeabcb"/>
              <path id="パス_3768" data-name="パス 3768" d="M71.281,51.565c-1.933.39,1.192,5.92,1.192,5.92s.727-6.314-1.192-5.92" transform="translate(14.939 10.9)" fill="#eeabcb"/>
              <path id="パス_3769" data-name="パス 3769" d="M70.176,58.522c-1.369.474,1.453,4.236,1.453,4.236s-.078-4.705-1.453-4.236" transform="translate(14.759 12.367)" fill="#fff"/>
              <path id="パス_3770" data-name="パス 3770" d="M65.81,60.672c-1.2.813,2.505,3.722,2.505,3.722s-1.287-4.53-2.505-3.722" transform="translate(13.865 12.808)" fill="#fff"/>
              <path id="パス_3771" data-name="パス 3771" d="M62.158,63.889c-.953,1.089,3.364,2.944,3.364,2.944s-2.414-4.052-3.364-2.944" transform="translate(13.114 13.468)" fill="#fff"/>
              <path id="パス_3772" data-name="パス 3772" d="M59.451,67.932c-.638,1.306,4.023,1.975,4.023,1.975s-3.384-3.282-4.023-1.975" transform="translate(12.558 14.299)" fill="#fff"/>
              <path id="パス_3773" data-name="パス 3773" d="M57.891,72.543c-.285,1.43,4.393.865,4.393.865s-4.124-2.287-4.393-.865" transform="translate(12.238 15.24)" fill="#fff"/>
              <path id="パス_3774" data-name="パス 3774" d="M57.57,77.42c.094,1.456,4.465-.3,4.465-.3s-4.562-1.151-4.465.3" transform="translate(12.173 16.215)" fill="#fff"/>
              <path id="パス_3775" data-name="パス 3775" d="M58.523,82.3c.464,1.374,4.229-1.448,4.229-1.448s-4.7.067-4.229,1.448" transform="translate(12.367 17.095)" fill="#fff"/>
              <path id="パス_3776" data-name="パス 3776" d="M60.675,86.828c.806,1.192,3.717-2.5,3.717-2.5s-4.541,1.291-3.717,2.5" transform="translate(12.809 17.83)" fill="#fff"/>
              <path id="パス_3777" data-name="パス 3777" d="M63.88,90.623c1.1.952,2.946-3.381,2.946-3.381s-4.045,2.411-2.946,3.381" transform="translate(13.467 18.447)" fill="#fff"/>
              <path id="パス_3778" data-name="パス 3778" d="M67.933,93.419c1.3.642,1.958-4.022,1.958-4.022s-3.271,3.387-1.958,4.022" transform="translate(14.299 18.903)" fill="#fff"/>
              <path id="パス_3779" data-name="パス 3779" d="M72.545,95.047c1.426.273.867-4.4.867-4.4s-2.3,4.115-.867,4.4" transform="translate(15.24 19.166)" fill="#fff"/>
              <path id="パス_3780" data-name="パス 3780" d="M77.421,95.374c1.459-.109-.308-4.473-.308-4.473s-1.148,4.572.308,4.473" transform="translate(16.214 19.221)" fill="#fff"/>
              <path id="パス_3781" data-name="パス 3781" d="M82.3,94.381c1.375-.46-1.45-4.233-1.45-4.233s.068,4.705,1.45,4.233" transform="translate(17.095 19.061)" fill="#fff"/>
              <path id="パス_3782" data-name="パス 3782" d="M86.811,92.158c1.224-.815-2.481-3.725-2.481-3.725s1.281,4.538,2.481,3.725" transform="translate(17.831 18.699)" fill="#fff"/>
              <path id="パス_3783" data-name="パス 3783" d="M90.614,88.824c.951-1.094-3.367-2.947-3.367-2.947s2.407,4.04,3.367,2.947" transform="translate(18.448 18.158)" fill="#fff"/>
              <path id="パス_3784" data-name="パス 3784" d="M93.415,84.629c.653-1.312-4.021-1.969-4.021-1.969s3.379,3.275,4.021,1.969" transform="translate(18.902 17.478)" fill="#fff"/>
              <path id="パス_3785" data-name="パス 3785" d="M95.037,79.868c.286-1.43-4.393-.858-4.393-.858s4.112,2.281,4.393.858" transform="translate(19.166 16.683)" fill="#fff"/>
              <path id="パス_3786" data-name="パス 3786" d="M95.368,74.966c-.114-1.453-4.47.3-4.47.3s4.571,1.155,4.47-.3" transform="translate(19.22 15.729)" fill="#fff"/>
              <path id="パス_3787" data-name="パス 3787" d="M94.378,70.185C93.9,68.8,90.15,71.631,90.15,71.631s4.706-.075,4.228-1.445" transform="translate(19.062 14.76)" fill="#fff"/>
              <path id="パス_3788" data-name="パス 3788" d="M92.15,65.816c-.81-1.209-3.724,2.5-3.724,2.5s4.537-1.294,3.724-2.5" transform="translate(18.697 13.865)" fill="#fff"/>
              <path id="パス_3789" data-name="パス 3789" d="M88.824,62.159c-1.1-.962-2.955,3.376-2.955,3.376s4.045-2.422,2.955-3.376" transform="translate(18.157 13.114)" fill="#fff"/>
              <path id="パス_3790" data-name="パス 3790" d="M84.626,59.451c-1.3-.644-1.975,4.03-1.975,4.03s3.289-3.39,1.975-4.03" transform="translate(17.476 12.558)" fill="#fff"/>
              <path id="パス_3791" data-name="パス 3791" d="M79.859,57.887c-1.425-.279-.866,4.394-.866,4.394s2.3-4.112.866-4.394" transform="translate(16.68 12.237)" fill="#fff"/>
              <path id="パス_3792" data-name="パス 3792" d="M74.963,57.566c-1.45.107.31,4.471.31,4.471s1.145-4.561-.31-4.471" transform="translate(15.73 12.172)" fill="#fff"/>
              <path id="パス_3793" data-name="パス 3793" d="M69.808,61.522a.779.779,0,0,1-.489,1.006.789.789,0,0,1-1.007-.491.8.8,0,0,1,.5-1.016.789.789,0,0,1,1,.5" transform="translate(14.435 12.894)" fill="#9e5c9e"/>
              <path id="パス_3794" data-name="パス 3794" d="M66.246,63.673a.779.779,0,0,1-.227,1.1.79.79,0,0,1-1.1-.217.8.8,0,0,1,.23-1.1.787.787,0,0,1,1.1.219" transform="translate(13.7 13.388)" fill="#9e5c9e"/>
              <path id="パス_3795" data-name="パス 3795" d="M63.359,66.661a.8.8,0,0,1,.078,1.124.794.794,0,0,1-1.194-1.047.8.8,0,0,1,1.117-.078" transform="translate(13.12 14.055)" fill="#9e5c9e"/>
              <path id="パス_3796" data-name="パス 3796" d="M61.342,70.311a.788.788,0,1,1-1.049.362.784.784,0,0,1,1.049-.362" transform="translate(12.731 14.85)" fill="#9e5c9e"/>
              <path id="パス_3797" data-name="パス 3797" d="M60.339,74.349a.794.794,0,1,1-.305,1.559.794.794,0,0,1,.305-1.559" transform="translate(12.559 15.717)" fill="#9e5c9e"/>
              <path id="パス_3798" data-name="パス 3798" d="M60.42,78.514a.792.792,0,0,1,.856.739.814.814,0,0,1-.756.844.793.793,0,0,1-.1-1.583" transform="translate(12.62 16.601)" fill="#9e5c9e"/>
              <path id="パス_3799" data-name="パス 3799" d="M61.57,82.514a.793.793,0,1,1-.491,1.01.8.8,0,0,1,.491-1.01" transform="translate(12.906 17.438)" fill="#9e5c9e"/>
              <path id="パス_3800" data-name="パス 3800" d="M63.724,86.076a.782.782,0,0,1,1.094.218.791.791,0,1,1-1.094-.218" transform="translate(13.4 18.172)" fill="#9e5c9e"/>
              <path id="パス_3801" data-name="パス 3801" d="M66.724,88.967a.789.789,0,1,1,1.188,1.038.789.789,0,0,1-1.188-1.038" transform="translate(14.067 18.754)" fill="#9e5c9e"/>
              <path id="パス_3802" data-name="パス 3802" d="M70.365,90.973a.792.792,0,0,1,1.058-.362.817.817,0,0,1,.359,1.071.8.8,0,0,1-1.065.353.792.792,0,0,1-.351-1.061" transform="translate(14.861 19.142)" fill="#9e5c9e"/>
              <path id="パス_3803" data-name="パス 3803" d="M74.406,91.974a.805.805,0,0,1,.93-.629.8.8,0,1,1-.93.629" transform="translate(15.729 19.312)" fill="#9e5c9e"/>
              <path id="パス_3804" data-name="パス 3804" d="M78.565,91.9a.8.8,0,0,1,.744-.842.791.791,0,1,1-.744.842" transform="translate(16.612 19.253)" fill="#9e5c9e"/>
              <path id="パス_3805" data-name="パス 3805" d="M82.566,90.751a.8.8,0,0,1,.488-1.012.8.8,0,0,1,.511,1.507.8.8,0,0,1-1-.5" transform="translate(17.449 18.966)" fill="#9e5c9e"/>
              <path id="パス_3806" data-name="パス 3806" d="M86.122,88.6a.8.8,0,0,1,.225-1.1.789.789,0,1,1-.225,1.1" transform="translate(18.183 18.473)" fill="#9e5c9e"/>
              <path id="パス_3807" data-name="パス 3807" d="M89.011,85.6a.8.8,0,0,1,1.05-1.2.794.794,0,0,1,.08,1.122.806.806,0,0,1-1.13.075" transform="translate(18.765 17.806)" fill="#9e5c9e"/>
              <path id="パス_3808" data-name="パス 3808" d="M91.032,81.949a.751.751,0,0,1-.357-1.048.784.784,0,0,1,1.055-.366.788.788,0,1,1-.7,1.414" transform="translate(19.154 17.012)" fill="#9e5c9e"/>
              <path id="パス_3809" data-name="パス 3809" d="M92.03,77.923a.8.8,0,1,1,.929-.624.8.8,0,0,1-.929.624" transform="translate(19.324 16.142)" fill="#9e5c9e"/>
              <path id="パス_3810" data-name="パス 3810" d="M91.959,73.754a.791.791,0,1,1,.724-.841.786.786,0,0,1-.724.841" transform="translate(19.264 15.261)" fill="#9e5c9e"/>
              <path id="パス_3811" data-name="パス 3811" d="M90.8,69.76a.8.8,0,1,1,.5-1.007.807.807,0,0,1-.5,1.007" transform="translate(18.976 14.423)" fill="#9e5c9e"/>
              <path id="パス_3812" data-name="パス 3812" d="M88.65,66.193a.793.793,0,0,1-.88-1.319.793.793,0,0,1,.88,1.319" transform="translate(18.484 13.689)" fill="#9e5c9e"/>
              <path id="パス_3813" data-name="パス 3813" d="M85.649,63.305a.791.791,0,0,1-1.187-1.047.8.8,0,0,1,1.123-.074.791.791,0,0,1,.064,1.121" transform="translate(17.817 13.108)" fill="#9e5c9e"/>
              <path id="パス_3814" data-name="パス 3814" d="M82.01,61.3a.782.782,0,0,1-1.064.355A.791.791,0,1,1,82.01,61.3" transform="translate(17.022 12.718)" fill="#9e5c9e"/>
              <path id="パス_3815" data-name="パス 3815" d="M77.974,60.291a.793.793,0,0,1-.928.625.781.781,0,0,1-.631-.933.795.795,0,1,1,1.559.308" transform="translate(16.154 12.548)" fill="#9e5c9e"/>
              <path id="パス_3816" data-name="パス 3816" d="M73.808,60.366a.79.79,0,0,1-.735.854.82.82,0,0,1-.848-.741.794.794,0,1,1,1.583-.113" transform="translate(15.271 12.608)" fill="#9e5c9e"/>
              <path id="パス_3817" data-name="パス 3817" d="M71.781,63.287c-1.012.343,1.059,3.09,1.059,3.09s-.05-3.431-1.059-3.09" transform="translate(15.119 13.377)" fill="#fff"/>
              <path id="パス_3818" data-name="パス 3818" d="M68.6,64.86c-.889.595,1.817,2.711,1.817,2.711s-.943-3.307-1.817-2.711" transform="translate(14.468 13.699)" fill="#fff"/>
              <path id="パス_3819" data-name="パス 3819" d="M65.935,67.192c-.7.8,2.47,2.148,2.47,2.148s-1.775-2.943-2.47-2.148" transform="translate(13.921 14.179)" fill="#fff"/>
              <path id="パス_3820" data-name="パス 3820" d="M63.965,70.142c-.465.953,2.928,1.433,2.928,1.433s-2.459-2.385-2.928-1.433" transform="translate(13.516 14.784)" fill="#fff"/>
              <path id="パス_3821" data-name="パス 3821" d="M62.825,73.5c-.2,1.043,3.21.626,3.21.626s-3.008-1.662-3.21-.626" transform="translate(13.282 15.47)" fill="#fff"/>
              <path id="パス_3822" data-name="パス 3822" d="M62.592,77.06c.075,1.055,3.256-.228,3.256-.228s-3.323-.831-3.256.228" transform="translate(13.235 16.18)" fill="#fff"/>
              <path id="パス_3823" data-name="パス 3823" d="M63.285,80.607c.339,1.01,3.078-1.055,3.078-1.055s-3.422.052-3.078,1.055" transform="translate(13.376 16.821)" fill="#fff"/>
              <path id="パス_3824" data-name="パス 3824" d="M64.859,83.9c.6.88,2.7-1.815,2.7-1.815s-3.3.94-2.7,1.815" transform="translate(13.699 17.358)" fill="#fff"/>
              <path id="パス_3825" data-name="パス 3825" d="M67.2,86.666c.8.7,2.144-2.453,2.144-2.453S66.39,85.967,67.2,86.666" transform="translate(14.179 17.807)" fill="#fff"/>
              <path id="パス_3826" data-name="パス 3826" d="M70.139,88.717c.964.463,1.438-2.937,1.438-2.937s-2.39,2.473-1.438,2.937" transform="translate(14.783 18.138)" fill="#fff"/>
              <path id="パス_3827" data-name="パス 3827" d="M73.512,89.893c1.03.208.621-3.2.621-3.2s-1.671,3-.621,3.2" transform="translate(15.471 18.33)" fill="#fff"/>
              <path id="パス_3828" data-name="パス 3828" d="M77.056,90.131c1.052-.074-.216-3.26-.216-3.26s-.846,3.34.216,3.26" transform="translate(16.18 18.369)" fill="#fff"/>
              <path id="パス_3829" data-name="パス 3829" d="M80.609,89.417c1-.348-1.065-3.081-1.065-3.081s.048,3.427,1.065,3.081" transform="translate(16.819 18.255)" fill="#fff"/>
              <path id="パス_3830" data-name="パス 3830" d="M83.907,87.783c.882-.585-1.826-2.7-1.826-2.7s.935,3.3,1.826,2.7" transform="translate(17.356 17.99)" fill="#fff"/>
              <path id="パス_3831" data-name="パス 3831" d="M86.656,85.367c.71-.8-2.443-2.152-2.443-2.152s1.754,2.949,2.443,2.152" transform="translate(17.807 17.596)" fill="#fff"/>
              <path id="パス_3832" data-name="パス 3832" d="M88.708,82.312c.472-.956-2.935-1.437-2.935-1.437s2.464,2.385,2.935,1.437" transform="translate(18.136 17.101)" fill="#fff"/>
              <path id="パス_3833" data-name="パス 3833" d="M89.892,78.84c.2-1.042-3.2-.631-3.2-.631s3,1.673,3.2.631" transform="translate(18.33 16.52)" fill="#fff"/>
              <path id="パス_3834" data-name="パス 3834" d="M90.133,75.266c-.08-1.055-3.259.225-3.259.225s3.339.833,3.259-.225" transform="translate(18.369 15.827)" fill="#fff"/>
              <path id="パス_3835" data-name="パス 3835" d="M89.422,71.785c-.348-1.007-3.1,1.055-3.1,1.055s3.434-.057,3.1-1.055" transform="translate(18.252 15.12)" fill="#fff"/>
              <path id="パス_3836" data-name="パス 3836" d="M87.781,68.6c-.585-.884-2.705,1.828-2.705,1.828s3.3-.947,2.705-1.828" transform="translate(17.989 14.468)" fill="#fff"/>
              <path id="パス_3837" data-name="パス 3837" d="M85.359,65.939c-.807-.7-2.147,2.458-2.147,2.458s2.949-1.761,2.147-2.458" transform="translate(17.595 13.921)" fill="#fff"/>
              <path id="パス_3838" data-name="パス 3838" d="M82.3,63.971c-.947-.468-1.434,2.926-1.434,2.926s2.39-2.471,1.434-2.926" transform="translate(17.099 13.517)" fill="#fff"/>
              <path id="パス_3839" data-name="パス 3839" d="M78.837,62.827c-1.044-.2-.629,3.2-.629,3.2s1.667-2.987.629-3.2" transform="translate(16.52 13.283)" fill="#fff"/>
              <path id="パス_3840" data-name="パス 3840" d="M75.269,62.6c-1.065.074.219,3.26.219,3.26s.841-3.333-.219-3.26" transform="translate(15.826 13.235)" fill="#fff"/>
              <path id="パス_3841" data-name="パス 3841" d="M71.511,65.474a.577.577,0,0,1-.356.732.587.587,0,0,1-.733-.357.576.576,0,1,1,1.089-.374" transform="translate(14.884 13.762)" fill="#fff"/>
              <path id="パス_3842" data-name="パス 3842" d="M68.919,67.042a.579.579,0,1,1-.8-.166.582.582,0,0,1,.8.166" transform="translate(14.349 14.121)" fill="#fff"/>
              <path id="パス_3843" data-name="パス 3843" d="M66.808,69.223a.563.563,0,0,1,.057.81A.573.573,0,1,1,66,69.28a.571.571,0,0,1,.807-.057" transform="translate(13.925 14.607)" fill="#fff"/>
              <path id="パス_3844" data-name="パス 3844" d="M65.343,71.875a.579.579,0,0,1,.268.773.578.578,0,1,1-1.039-.508.579.579,0,0,1,.772-.265" transform="translate(13.641 15.185)" fill="#fff"/>
              <path id="パス_3845" data-name="パス 3845" d="M64.624,74.821a.579.579,0,1,1-.686.458.582.582,0,0,1,.686-.458" transform="translate(13.517 15.818)" fill="#fff"/>
              <path id="パス_3846" data-name="パス 3846" d="M64.677,77.853a.573.573,0,0,1,.617.532.585.585,0,0,1-1.167.084.584.584,0,0,1,.55-.615" transform="translate(13.559 16.461)" fill="#fff"/>
              <path id="パス_3847" data-name="パス 3847" d="M65.507,80.761a.582.582,0,1,1,.38,1.1.582.582,0,0,1-.38-1.1" transform="translate(13.77 17.07)" fill="#fff"/>
              <path id="パス_3848" data-name="パス 3848" d="M67.074,83.361a.567.567,0,0,1,.8.165.574.574,0,0,1-.154.8.581.581,0,0,1-.643-.968" transform="translate(14.128 17.606)" fill="#fff"/>
              <path id="パス_3849" data-name="パス 3849" d="M69.266,85.465a.573.573,0,0,1,.808-.059.593.593,0,0,1,.059.82.575.575,0,0,1-.813.057.566.566,0,0,1-.055-.818" transform="translate(14.615 18.029)" fill="#fff"/>
              <path id="パス_3850" data-name="パス 3850" d="M71.913,86.936a.582.582,0,0,1,.774-.27.589.589,0,0,1,.268.78.577.577,0,0,1-.777.259.567.567,0,0,1-.265-.769" transform="translate(15.193 18.313)" fill="#fff"/>
              <path id="パス_3851" data-name="パス 3851" d="M74.866,87.669a.565.565,0,0,1,.664-.463.586.586,0,0,1,.465.68.594.594,0,0,1-.694.46.558.558,0,0,1-.435-.677" transform="translate(15.826 18.437)" fill="#fff"/>
              <path id="パス_3852" data-name="パス 3852" d="M77.891,87.607a.578.578,0,1,1,.609.534.576.576,0,0,1-.609-.534" transform="translate(16.469 18.393)" fill="#fff"/>
              <path id="パス_3853" data-name="パス 3853" d="M80.8,86.769a.578.578,0,0,1,.366-.734.561.561,0,0,1,.729.36.577.577,0,0,1-.346.733.6.6,0,0,1-.749-.359" transform="translate(17.078 18.185)" fill="#fff"/>
              <path id="パス_3854" data-name="パス 3854" d="M83.393,85.2a.594.594,0,0,1,.168-.808.587.587,0,0,1,.8.16.584.584,0,0,1-.972.648" transform="translate(17.614 17.825)" fill="#fff"/>
              <path id="パス_3855" data-name="パス 3855" d="M85.5,83.014a.577.577,0,1,1,.766-.864.578.578,0,0,1,.056.81.584.584,0,0,1-.821.053" transform="translate(18.037 17.339)" fill="#fff"/>
              <path id="パス_3856" data-name="パス 3856" d="M86.973,80.362a.578.578,0,0,1,.506-1.038.581.581,0,0,1,.26.772.564.564,0,0,1-.767.267" transform="translate(18.321 16.76)" fill="#fff"/>
              <path id="パス_3857" data-name="パス 3857" d="M87.7,77.42a.568.568,0,0,1-.453-.674.577.577,0,1,1,1.133.224.585.585,0,0,1-.68.449" transform="translate(18.445 16.128)" fill="#fff"/>
              <path id="パス_3858" data-name="パス 3858" d="M87.628,74.389a.578.578,0,0,1-.068-1.155.578.578,0,1,1,.068,1.155" transform="translate(18.402 15.485)" fill="#fff"/>
              <path id="パス_3859" data-name="パス 3859" d="M86.8,71.472a.579.579,0,0,1-.734-.356.581.581,0,0,1,1.1-.376.582.582,0,0,1-.366.732" transform="translate(18.192 14.875)" fill="#fff"/>
              <path id="パス_3860" data-name="パス 3860" d="M85.239,68.881a.58.58,0,0,1-.648-.962.589.589,0,0,1,.808.156.582.582,0,0,1-.16.806" transform="translate(17.833 14.341)" fill="#fff"/>
              <path id="パス_3861" data-name="パス 3861" d="M83.056,66.768a.575.575,0,1,1-.058-.81.568.568,0,0,1,.058.81" transform="translate(17.348 13.917)" fill="#fff"/>
              <path id="パス_3862" data-name="パス 3862" d="M80.4,65.3a.577.577,0,0,1-1.041-.5.577.577,0,0,1,1.041.5" transform="translate(16.769 13.633)" fill="#fff"/>
              <path id="パス_3863" data-name="パス 3863" d="M77.451,64.583a.559.559,0,0,1-.672.442.573.573,0,1,1,.228-1.123.56.56,0,0,1,.445.681" transform="translate(16.136 13.509)" fill="#fff"/>
              <path id="パス_3864" data-name="パス 3864" d="M74.425,64.631a.589.589,0,0,1-.531.621.57.57,0,0,1-.613-.545.554.554,0,0,1,.528-.6.573.573,0,0,1,.615.528" transform="translate(15.495 13.554)" fill="#fff"/>
              <path id="パス_3865" data-name="パス 3865" d="M73.154,67.378c-.691.229.723,2.093.723,2.093s-.04-2.331-.723-2.093" transform="translate(15.428 14.243)" fill="#fff"/>
              <path id="パス_3866" data-name="パス 3866" d="M70.984,68.444c-.583.4,1.241,1.844,1.241,1.844s-.643-2.245-1.241-1.844" transform="translate(14.985 14.462)" fill="#fff"/>
              <path id="パス_3867" data-name="パス 3867" d="M69.181,70.034c-.477.548,1.666,1.457,1.666,1.457s-1.2-2-1.666-1.457" transform="translate(14.613 14.789)" fill="#fff"/>
              <path id="パス_3868" data-name="パス 3868" d="M67.837,72.043c-.323.646,1.994.969,1.994.969s-1.681-1.62-1.994-.969" transform="translate(14.337 15.201)" fill="#fff"/>
              <path id="パス_3869" data-name="パス 3869" d="M67.059,74.324c-.138.714,2.176.431,2.176.431s-2.036-1.133-2.176-.431" transform="translate(14.178 15.667)" fill="#fff"/>
              <path id="パス_3870" data-name="パス 3870" d="M66.9,76.754c.04.714,2.218-.154,2.218-.154s-2.265-.581-2.218.154" transform="translate(14.146 16.151)" fill="#fff"/>
              <path id="パス_3871" data-name="パス 3871" d="M67.374,79.161c.235.681,2.1-.718,2.1-.718s-2.325.039-2.1.718" transform="translate(14.243 16.586)" fill="#fff"/>
              <path id="パス_3872" data-name="パス 3872" d="M68.436,81.4c.4.609,1.851-1.234,1.851-1.234s-2.24.638-1.851,1.234" transform="translate(14.461 16.951)" fill="#fff"/>
              <path id="パス_3873" data-name="パス 3873" d="M70.035,83.287c.543.475,1.455-1.674,1.455-1.674s-2,1.2-1.455,1.674" transform="translate(14.789 17.257)" fill="#fff"/>
              <path id="パス_3874" data-name="パス 3874" d="M72.036,84.676c.647.317.978-1.988.978-1.988s-1.623,1.675-.978,1.988" transform="translate(15.2 17.484)" fill="#fff"/>
              <path id="パス_3875" data-name="パス 3875" d="M74.325,85.478c.709.133.42-2.178.42-2.178s-1.127,2.039-.42,2.178" transform="translate(15.666 17.613)" fill="#fff"/>
              <path id="パス_3876" data-name="パス 3876" d="M76.744,85.639c.714-.04-.155-2.212-.155-2.212s-.561,2.267.155,2.212" transform="translate(16.15 17.64)" fill="#fff"/>
              <path id="パス_3877" data-name="パス 3877" d="M79.164,85.151c.683-.227-.724-2.1-.724-2.1s.044,2.337.724,2.1" transform="translate(16.586 17.561)" fill="#fff"/>
              <path id="パス_3878" data-name="パス 3878" d="M81.4,84.043C82,83.637,80.17,82.2,80.17,82.2s.645,2.248,1.234,1.84" transform="translate(16.952 17.382)" fill="#fff"/>
              <path id="パス_3879" data-name="パス 3879" d="M83.283,82.4c.479-.555-1.673-1.465-1.673-1.465s1.209,2.006,1.673,1.465" transform="translate(17.256 17.114)" fill="#fff"/>
              <path id="パス_3880" data-name="パス 3880" d="M84.672,80.317c.313-.653-1.993-.976-1.993-.976s1.685,1.623,1.993.976" transform="translate(17.482 16.776)" fill="#fff"/>
              <path id="パス_3881" data-name="パス 3881" d="M85.476,77.958c.139-.706-2.177-.43-2.177-.43s2.033,1.141,2.177.43" transform="translate(17.613 16.382)" fill="#fff"/>
              <path id="パス_3882" data-name="パス 3882" d="M85.642,75.529c-.048-.718-2.221.15-2.221.15s2.268.567,2.221-.15" transform="translate(17.639 15.91)" fill="#fff"/>
              <path id="パス_3883" data-name="パス 3883" d="M85.145,73.157c-.227-.681-2.091.717-2.091.717s2.33-.031,2.091-.717" transform="translate(17.561 15.429)" fill="#fff"/>
              <path id="パス_3884" data-name="パス 3884" d="M84.059,70.992c-.413-.6-1.866,1.234-1.866,1.234s2.261-.636,1.866-1.234" transform="translate(17.379 14.986)" fill="#fff"/>
              <path id="パス_3885" data-name="パス 3885" d="M82.39,69.181c-.537-.48-1.45,1.665-1.45,1.665s2-1.194,1.45-1.665" transform="translate(17.114 14.613)" fill="#fff"/>
              <path id="パス_3886" data-name="パス 3886" d="M80.311,67.837c-.643-.317-.97,1.992-.97,1.992s1.629-1.674.97-1.992" transform="translate(16.776 14.338)" fill="#fff"/>
              <path id="パス_3887" data-name="パス 3887" d="M77.948,67.058c-.709-.136-.423,2.183-.423,2.183s1.139-2.038.423-2.183" transform="translate(16.38 14.178)" fill="#fff"/>
              <path id="パス_3888" data-name="パス 3888" d="M75.522,66.905c-.715.048.156,2.216.156,2.216s.561-2.262-.156-2.216" transform="translate(15.909 14.147)" fill="#fff"/>
              <path id="パス_3889" data-name="パス 3889" d="M72.974,68.864a.394.394,0,0,1-.745.258.394.394,0,1,1,.745-.258" transform="translate(15.268 14.504)" fill="#fff"/>
              <path id="パス_3890" data-name="パス 3890" d="M71.2,69.925a.394.394,0,1,1-.537-.1.386.386,0,0,1,.537.1" transform="translate(14.904 14.749)" fill="#fff"/>
              <path id="パス_3891" data-name="パス 3891" d="M69.77,71.415a.411.411,0,0,1,.05.555.4.4,0,0,1-.607-.515.39.39,0,0,1,.557-.04" transform="translate(14.616 15.08)" fill="#fff"/>
              <path id="パス_3892" data-name="パス 3892" d="M68.783,73.221a.392.392,0,0,1,.162.523.386.386,0,1,1-.692-.344.385.385,0,0,1,.529-.179" transform="translate(14.423 15.473)" fill="#fff"/>
              <path id="パス_3893" data-name="パス 3893" d="M68.281,75.22a.4.4,0,0,1,.305.463A.4.4,0,0,1,68.12,76a.418.418,0,0,1-.307-.465.4.4,0,0,1,.468-.313" transform="translate(14.338 15.903)" fill="#fff"/>
              <path id="パス_3894" data-name="パス 3894" d="M68.313,77.284a.4.4,0,0,1,.426.371.4.4,0,0,1-.363.414.394.394,0,0,1-.063-.785" transform="translate(14.368 16.341)" fill="#fff"/>
              <path id="パス_3895" data-name="パス 3895" d="M68.891,79.265a.4.4,0,1,1-.245.5.4.4,0,0,1,.245-.5" transform="translate(14.51 16.756)" fill="#fff"/>
              <path id="パス_3896" data-name="パス 3896" d="M69.961,81.032a.4.4,0,0,1,.543.1.4.4,0,1,1-.543-.1" transform="translate(14.755 17.12)" fill="#fff"/>
              <path id="パス_3897" data-name="パス 3897" d="M71.452,82.465a.388.388,0,1,1,.577.52.388.388,0,1,1-.577-.52" transform="translate(15.086 17.409)" fill="#fff"/>
              <path id="パス_3898" data-name="パス 3898" d="M73.254,83.467a.371.371,0,0,1,.515-.181.405.405,0,0,1,.185.528.388.388,0,0,1-.527.173.376.376,0,0,1-.173-.521" transform="translate(15.479 17.602)" fill="#fff"/>
              <path id="パス_3899" data-name="パス 3899" d="M75.253,83.96a.4.4,0,0,1,.459-.309.395.395,0,0,1-.151.775.383.383,0,0,1-.308-.466" transform="translate(15.909 17.686)" fill="#fff"/>
              <path id="パス_3900" data-name="パス 3900" d="M77.31,83.925a.395.395,0,0,1,.787-.059.395.395,0,0,1-.787.059" transform="translate(16.347 17.657)" fill="#fff"/>
              <path id="パス_3901" data-name="パス 3901" d="M79.3,83.357a.386.386,0,0,1,.244-.508.393.393,0,0,1,.493.248.381.381,0,0,1-.253.5.376.376,0,0,1-.483-.237" transform="translate(16.763 17.514)" fill="#fff"/>
              <path id="パス_3902" data-name="パス 3902" d="M81.061,82.284a.39.39,0,1,1,.546.11.383.383,0,0,1-.546-.11" transform="translate(17.125 17.269)" fill="#fff"/>
              <path id="パス_3903" data-name="パス 3903" d="M82.494,80.8a.394.394,0,1,1,.52-.592.423.423,0,0,1,.042.566.407.407,0,0,1-.562.027" transform="translate(17.414 16.939)" fill="#fff"/>
              <path id="パス_3904" data-name="パス 3904" d="M83.5,78.995a.4.4,0,0,1-.183-.532.408.408,0,0,1,.522-.183.443.443,0,0,1,.187.535.4.4,0,0,1-.526.179" transform="translate(17.608 16.545)" fill="#fff"/>
              <path id="パス_3905" data-name="パス 3905" d="M83.991,76.992a.394.394,0,0,1-.317-.458.406.406,0,0,1,.466-.319.422.422,0,0,1,.313.469.393.393,0,0,1-.462.308" transform="translate(17.691 16.114)" fill="#fff"/>
              <path id="パス_3906" data-name="パス 3906" d="M83.945,74.925a.392.392,0,0,1-.05-.783.392.392,0,0,1,.05.783" transform="translate(17.662 15.677)" fill="#fff"/>
              <path id="パス_3907" data-name="パス 3907" d="M83.377,72.95a.4.4,0,0,1-.494-.253.384.384,0,0,1,.23-.489.393.393,0,0,1,.508.24.4.4,0,0,1-.243.5" transform="translate(17.521 15.263)" fill="#fff"/>
              <path id="パス_3908" data-name="パス 3908" d="M82.309,71.178a.4.4,0,0,1-.545-.108.393.393,0,0,1,.649-.442.4.4,0,0,1-.1.55" transform="translate(17.275 14.898)" fill="#fff"/>
              <path id="パス_3909" data-name="パス 3909" d="M80.827,69.747a.4.4,0,0,1-.566.045.421.421,0,0,1-.03-.558.393.393,0,1,1,.6.514" transform="translate(16.945 14.61)" fill="#fff"/>
              <path id="パス_3910" data-name="パス 3910" d="M79.027,68.742a.391.391,0,0,1-.534.182.382.382,0,0,1-.183-.521.4.4,0,0,1,.717.339" transform="translate(16.55 14.417)" fill="#fff"/>
              <path id="パス_3911" data-name="パス 3911" d="M77.022,68.257a.4.4,0,0,1-.468.308.419.419,0,0,1-.323-.464.425.425,0,0,1,.479-.311.4.4,0,0,1,.313.468" transform="translate(16.118 14.332)" fill="#fff"/>
              <path id="パス_3912" data-name="パス 3912" d="M74.95,68.288a.392.392,0,0,1-.781.059.4.4,0,0,1,.366-.424.4.4,0,0,1,.416.365" transform="translate(15.682 14.362)" fill="#fff"/>
              <path id="パス_3913" data-name="パス 3913" d="M73.964,69.76c-.5.166.509,1.522.509,1.522s-.021-1.69-.509-1.522" transform="translate(15.61 14.748)" fill="#fff"/>
              <path id="パス_3914" data-name="パス 3914" d="M72.382,70.528c-.429.3.9,1.345.9,1.345s-.462-1.627-.9-1.345" transform="translate(15.287 14.906)" fill="#fff"/>
              <path id="パス_3915" data-name="パス 3915" d="M71.058,71.691c-.327.389,1.222,1.056,1.222,1.056s-.867-1.453-1.222-1.056" transform="translate(15.015 15.144)" fill="#fff"/>
              <path id="パス_3916" data-name="パス 3916" d="M70.092,73.145c-.237.475,1.453.705,1.453.705s-1.224-1.168-1.453-.705" transform="translate(14.816 15.443)" fill="#fff"/>
              <path id="パス_3917" data-name="パス 3917" d="M69.534,74.8c-.107.526,1.579.315,1.579.315s-1.479-.831-1.579-.315" transform="translate(14.702 15.781)" fill="#fff"/>
              <path id="パス_3918" data-name="パス 3918" d="M69.408,76.562c.047.523,1.621-.1,1.621-.1s-1.646-.419-1.621.1" transform="translate(14.676 16.133)" fill="#fff"/>
              <path id="パス_3919" data-name="パス 3919" d="M69.757,78.316c.172.5,1.535-.521,1.535-.521s-1.708.032-1.535.521" transform="translate(14.747 16.449)" fill="#fff"/>
              <path id="パス_3920" data-name="パス 3920" d="M70.535,79.95c.288.428,1.341-.9,1.341-.9s-1.629.459-1.341.9" transform="translate(14.907 16.715)" fill="#fff"/>
              <path id="パス_3921" data-name="パス 3921" d="M71.681,81.315c.4.339,1.067-1.216,1.067-1.216s-1.448.867-1.067,1.216" transform="translate(15.143 16.937)" fill="#fff"/>
              <path id="パス_3922" data-name="パス 3922" d="M73.146,82.329c.469.228.715-1.454.715-1.454s-1.186,1.217-.715,1.454" transform="translate(15.443 17.101)" fill="#fff"/>
              <path id="パス_3923" data-name="パス 3923" d="M74.805,82.9c.519.1.313-1.579.313-1.579S74.3,82.8,74.805,82.9" transform="translate(15.782 17.196)" fill="#fff"/>
              <path id="パス_3924" data-name="パス 3924" d="M76.559,83.024c.525-.041-.119-1.6-.119-1.6s-.395,1.633.119,1.6" transform="translate(16.132 17.216)" fill="#fff"/>
              <path id="パス_3925" data-name="パス 3925" d="M78.314,82.67c.5-.17-.52-1.528-.52-1.528s.022,1.7.52,1.528" transform="translate(16.449 17.157)" fill="#fff"/>
              <path id="パス_3926" data-name="パス 3926" d="M79.939,81.869c.44-.3-.894-1.34-.894-1.34s.471,1.625.894,1.34" transform="translate(16.714 17.028)" fill="#fff"/>
              <path id="パス_3927" data-name="パス 3927" d="M81.306,80.661c.346-.389-1.21-1.056-1.21-1.056s.873,1.457,1.21,1.056" transform="translate(16.936 16.832)" fill="#fff"/>
              <path id="パス_3928" data-name="パス 3928" d="M82.314,79.162c.227-.472-1.44-.714-1.44-.714s1.215,1.18,1.44.714" transform="translate(17.101 16.588)" fill="#fff"/>
              <path id="パス_3929" data-name="パス 3929" d="M82.9,77.442c.1-.512-1.577-.3-1.577-.3s1.469.815,1.577.3" transform="translate(17.196 16.302)" fill="#fff"/>
              <path id="パス_3930" data-name="パス 3930" d="M83.019,75.676c-.03-.52-1.606.109-1.606.109s1.644.423,1.606-.109" transform="translate(17.214 15.958)" fill="#fff"/>
              <path id="パス_3931" data-name="パス 3931" d="M82.664,73.957c-.174-.5-1.514.517-1.514.517s1.685-.018,1.514-.517" transform="translate(17.159 15.609)" fill="#fff"/>
              <path id="パス_3932" data-name="パス 3932" d="M81.865,72.388c-.287-.442-1.339.9-1.339.9s1.637-.476,1.339-.9" transform="translate(17.027 15.287)" fill="#fff"/>
              <path id="パス_3933" data-name="パス 3933" d="M80.667,71.061c-.39-.339-1.054,1.222-1.054,1.222s1.45-.867,1.054-1.222" transform="translate(16.834 15.015)" fill="#fff"/>
              <path id="パス_3934" data-name="パス 3934" d="M79.153,70.1c-.477-.233-.7,1.457-.7,1.457s1.18-1.225.7-1.457" transform="translate(16.588 14.817)" fill="#fff"/>
              <path id="パス_3935" data-name="パス 3935" d="M77.445,69.533c-.528-.1-.32,1.585-.32,1.585s.836-1.485.32-1.585" transform="translate(16.299 14.702)" fill="#fff"/>
              <path id="パス_3936" data-name="パス 3936" d="M75.677,69.418c-.529.034.116,1.609.116,1.609s.411-1.644-.116-1.609" transform="translate(15.958 14.678)" fill="#fff"/>
              <path id="パス_3937" data-name="パス 3937" d="M73.822,70.844a.286.286,0,0,1-.19.359.279.279,0,0,1-.346-.181.286.286,0,0,1,.173-.362.291.291,0,0,1,.363.184" transform="translate(15.493 14.938)" fill="#eeabcb"/>
              <path id="パス_3938" data-name="パス 3938" d="M72.543,71.61a.283.283,0,0,1-.075.4.312.312,0,0,1-.408-.071.3.3,0,0,1,.081-.4.287.287,0,0,1,.4.078" transform="translate(15.228 15.115)" fill="#eeabcb"/>
              <path id="パス_3939" data-name="パス 3939" d="M71.5,72.695a.279.279,0,0,1,.034.4.287.287,0,1,1-.436-.373.282.282,0,0,1,.4-.024" transform="translate(15.018 15.356)" fill="#eeabcb"/>
              <path id="パス_3940" data-name="パス 3940" d="M70.775,74.006a.276.276,0,0,1,.137.382.3.3,0,0,1-.383.126.275.275,0,0,1-.132-.374.281.281,0,0,1,.378-.133" transform="translate(14.879 15.643)" fill="#eeabcb"/>
              <path id="パス_3941" data-name="パス 3941" d="M70.409,75.458a.291.291,0,0,1,.233.327.3.3,0,0,1-.339.236.285.285,0,0,1-.218-.342.276.276,0,0,1,.325-.222" transform="translate(14.817 15.954)" fill="#eeabcb"/>
              <path id="パス_3942" data-name="パス 3942" d="M70.445,76.954a.287.287,0,0,1,.033.573.272.272,0,0,1-.294-.268.277.277,0,0,1,.262-.305" transform="translate(14.84 16.271)" fill="#eeabcb"/>
              <path id="パス_3943" data-name="パス 3943" d="M70.859,78.4a.3.3,0,0,1,.371.17.295.295,0,0,1-.557.193.294.294,0,0,1,.187-.362" transform="translate(14.94 16.573)" fill="#eeabcb"/>
              <path id="パス_3944" data-name="パス 3944" d="M71.636,79.674a.287.287,0,0,1,.383.081.28.28,0,0,1-.068.395.284.284,0,0,1-.4-.084.288.288,0,0,1,.086-.393" transform="translate(15.119 16.838)" fill="#eeabcb"/>
              <path id="パス_3945" data-name="パス 3945" d="M72.707,80.724a.284.284,0,0,1,.4-.035.287.287,0,0,1,.033.4.275.275,0,0,1-.4.024.267.267,0,0,1-.034-.391" transform="translate(15.359 17.047)" fill="#eeabcb"/>
              <path id="パス_3946" data-name="パス 3946" d="M74.015,81.449a.3.3,0,0,1,.4-.137.291.291,0,0,1,.119.383.278.278,0,0,1-.383.131.3.3,0,0,1-.132-.377" transform="translate(15.645 17.187)" fill="#eeabcb"/>
              <path id="パス_3947" data-name="パス 3947" d="M75.474,81.805a.316.316,0,0,1,.34-.239.3.3,0,0,1,.218.346.284.284,0,0,1-.558-.108" transform="translate(15.957 17.246)" fill="#eeabcb"/>
              <path id="パス_3948" data-name="パス 3948" d="M76.978,81.769a.279.279,0,0,1,.265-.3.285.285,0,0,1,.294.269.28.28,0,1,1-.56.029" transform="translate(16.277 17.227)" fill="#eeabcb"/>
              <path id="パス_3949" data-name="パス 3949" d="M78.418,81.36a.286.286,0,0,1,.182-.367.3.3,0,0,1,.361.178.288.288,0,0,1-.187.365.277.277,0,0,1-.356-.176" transform="translate(16.578 17.123)" fill="#eeabcb"/>
              <path id="パス_3950" data-name="パス 3950" d="M79.693,80.589a.289.289,0,0,1,.085-.4.28.28,0,0,1,.388.076.286.286,0,1,1-.472.322" transform="translate(16.841 16.946)" fill="#eeabcb"/>
              <path id="パス_3951" data-name="パス 3951" d="M80.726,79.51a.3.3,0,0,1-.016-.409.278.278,0,0,1,.394-.023.292.292,0,0,1,.039.4.308.308,0,0,1-.417.029" transform="translate(17.05 16.706)" fill="#eeabcb"/>
              <path id="パス_3952" data-name="パス 3952" d="M81.459,78.2a.309.309,0,0,1-.134-.385.288.288,0,0,1,.515.258.291.291,0,0,1-.38.127" transform="translate(17.191 16.42)" fill="#eeabcb"/>
              <path id="パス_3953" data-name="パス 3953" d="M81.825,76.742a.294.294,0,0,1-.231-.337.281.281,0,0,1,.336-.223.3.3,0,0,1,.224.338.274.274,0,0,1-.328.222" transform="translate(17.252 16.107)" fill="#eeabcb"/>
              <path id="パス_3954" data-name="パス 3954" d="M81.8,75.248a.294.294,0,0,1-.3-.275.28.28,0,1,1,.558-.029.286.286,0,0,1-.254.3" transform="translate(17.231 15.79)" fill="#eeabcb"/>
              <path id="パス_3955" data-name="パス 3955" d="M81.377,73.8a.286.286,0,0,1-.188-.54.286.286,0,0,1,.188.54" transform="translate(17.128 15.488)" fill="#eeabcb"/>
              <path id="パス_3956" data-name="パス 3956" d="M80.606,72.526a.288.288,0,0,1-.391-.079.276.276,0,0,1,.07-.4.293.293,0,0,1,.4.076.311.311,0,0,1-.082.4" transform="translate(16.949 15.224)" fill="#eeabcb"/>
              <path id="パス_3957" data-name="パス 3957" d="M79.532,71.481a.293.293,0,0,1-.412.025.285.285,0,0,1-.031-.4.291.291,0,0,1,.443.378" transform="translate(16.708 15.014)" fill="#eeabcb"/>
              <path id="パス_3958" data-name="パス 3958" d="M78.212,70.754a.278.278,0,0,1-.378.133A.3.3,0,0,1,77.7,70.5a.286.286,0,0,1,.514.251" transform="translate(16.424 14.874)" fill="#eeabcb"/>
              <path id="パス_3959" data-name="パス 3959" d="M76.757,70.39a.282.282,0,1,1-.223-.331.277.277,0,0,1,.223.331" transform="translate(16.111 14.813)" fill="#eeabcb"/>
              <path id="パス_3960" data-name="パス 3960" d="M75.264,70.422a.289.289,0,0,1-.274.308.282.282,0,0,1-.294-.263.276.276,0,0,1,.258-.306.29.29,0,0,1,.31.262" transform="translate(15.794 14.835)" fill="#eeabcb"/>
            </g>
          </g>
        </g>
      </g>
    </g>
  </g>
</svg>
