<svg xmlns="http://www.w3.org/2000/svg" xmlns:xlink="http://www.w3.org/1999/xlink" width="349.04" height="340.272" viewBox="0 0 349.04 340.272">
  <defs>
    <clipPath id="clip-path">
      <rect id="長方形_1318" data-name="長方形 1318" width="349.04" height="340.272" fill="none"/>
    </clipPath>
    <clipPath id="clip-path-3">
      <rect id="長方形_1315" data-name="長方形 1315" width="188.437" height="245.348" fill="none"/>
    </clipPath>
    <clipPath id="clip-path-4">
      <rect id="長方形_1316" data-name="長方形 1316" width="291.755" height="340.261" fill="none"/>
    </clipPath>
  </defs>
  <g id="グループ_644" data-name="グループ 644" clip-path="url(#clip-path)">
    <g id="グループ_643" data-name="グループ 643" transform="translate(0 0)">
      <g id="グループ_642" data-name="グループ 642" clip-path="url(#clip-path)">
        <path id="パス_4263" data-name="パス 4263" d="M107.978,61.787s-28.263,79.423-15,174.434h19.086S94,136.776,112.192,65.891Z" transform="translate(150.617 104.05)" fill="#4eb4b2"/>
        <path id="パス_4264" data-name="パス 4264" d="M115.818,61.238c-13.326,2.316-26.88,12.3-36.138,22.752-16.026,18.088-15.535,39.874-15.492,61.762,4.254-16.979,9.332-39.042,22.444-45.234-4.544,5.889-8.484,13.358-9.225,21.276,2.88-8.256,12.913-14.228,18.4-21.083A75.415,75.415,0,0,1,93,112.894c6.514-7.937,16.37-23.233,25.106-27.149-1.554,3.58-3.35,7.126-4.855,10.774,5.972-5.014,10.669-10.406,17.712-13.388-.209,2.461.489,4.069,1.428,6.941,0,0,4.171-15.919,18.791-15.919,0,0-9.442-15.991-35.367-12.915" transform="translate(108.077 102.463)" fill="#4eb4b2"/>
        <path id="パス_4265" data-name="パス 4265" d="M157.408,101.186c.518-26.381-31.535-59.8-57.827-55.905-16.713,2.459-40.478,16.48-39.729,37.4,4.528-11.573,15.656-15.943,25.8-19.8-3.433,2.593-3.935,6.468-5.266,10.854,8.7-3.387,16.08-9.622,25.23-12.355-.9,4.482-4.4,8.546-6.318,12.851a77.021,77.021,0,0,0,22.256-3.908,41.883,41.883,0,0,1-6.329,6.42c6.5-.279,15.873-2.037,21.681,1.342-.607,1-5.937,2.206-6.5,3.2,1.753-3.132,26.685,14.365,27,19.9" transform="translate(100.762 75.728)" fill="#4eb4b2"/>
        <path id="パス_4266" data-name="パス 4266" d="M98.712,117.394C97.885,107.012,94.554,97.237,94,86.772c-.743-13.807,4.069-24.859,12.669-34.927,8.323-9.743,23.5-18.106,36.033-16.214-4.845,3.9-10.613,5.795-15.414,10.172-3.2,2.918-5.081,6.321-7.494,9.9,3.489-2.209,8.167-4.007,12.3-3.433-1.97,3.4-6.5,6.077-9.252,9.029-2.606,2.789-4.89,5.881-7.582,8.592,4.023.392,7.9-2.1,11.933-2.4-7.542,5.69-14.26,12.406-21.043,19.148,3.417-.588,1.745-.765,5.177-1.015-4.912,6.9-3.556,9.963-8.471,16.778,2.147-.674,2.094.717,4.128-.327-1.2,5.277-5.395,10.873-7.435,15.771" transform="translate(158.165 59.55)" fill="#4eb4b2"/>
        <path id="パス_4267" data-name="パス 4267" d="M98.192,80.031c3.119-8.608,14.338-15.715,21.59-19.368,11.364-5.733,26.789-6.179,38.913-3.108,15.476,3.929,26.454,12.98,29.173,30.088C181.045,78.187,170.9,73.1,160.249,70.725c4.007,2.072,9.485,6.707,11.445,11.1-9.434-1.4-18.388-5.98-28.048-6.412,4.319,1.669,7.3,6.605,8.119,11.391a62.581,62.581,0,0,0-10.248-5.3c-3.782-1.71-9.791-5.441-13.541-5.62,1.071,3.554,3.809,6.659,5.486,9.966-8.159-2.657-16.729-4.115-24.833-7.088,1.272,1.205,2.579,2.507,3.886,3.562-5.6-.156-11.206-.035-16.813-.035" transform="translate(161.167 93.751)" fill="#4eb4b2"/>
        <path id="パス_4268" data-name="パス 4268" d="M95.456,97.582c-.335-3.814,1.492-7.947,2.9-11.289A68,68,0,0,1,124.054,55.57c14.7-9.241,33.038-10.336,49.171-5.553-6.109.69-11.549,1.063-17.323,4.139-3.793,2.026-7.939,2.893-11.584,5.194,3.218.671,6.734,2.934,9.974,3.86-2.029,1.785-6.283,1.844-8.793,2.485-4.928,1.248-8.793.523-13.216,2.934,1.758.276,3.693,3.135,5.516,3.511-4.383,1.919-9.214,0-13.7,1.718-3.215,1.229-4.415,3.36-7.032,5.72.526.217-2.391-.207-1.957,0-4.678,3.677-10.664,8.414-15.978,10.618a6.893,6.893,0,0,1,3.441.2c-2.112,2.338-5.653,4.922-7.424,6.844" transform="translate(160.234 79.544)" fill="#4eb4b2"/>
        <path id="パス_4269" data-name="パス 4269" d="M110.536,68.935c2.955,4.753,2.332,10.827-1.39,13.578s-9.128,1.111-12.086-3.64-2.322-10.838,1.4-13.584,9.123-1.111,12.078,3.645" transform="translate(160.321 107.703)" fill="#4eb4b2"/>
        <path id="パス_4270" data-name="パス 4270" d="M106.468,77.347c-1.5,5.5-6.216,8.825-10.527,7.424s-6.565-7-5.067-12.508c1.514-5.5,6.222-8.833,10.535-7.421s6.568,6.995,5.059,12.5" transform="translate(152.255 108.65)" fill="#4eb4b2"/>
        <g id="グループ_638" data-name="グループ 638" transform="translate(160.603 94.923)" opacity="0.76">
          <g id="グループ_637" data-name="グループ 637">
            <g id="グループ_636" data-name="グループ 636" clip-path="url(#clip-path-3)">
              <path id="パス_4271" data-name="パス 4271" d="M72.95,50.282a10.286,10.286,0,0,1-1.168-3.776c-1.066.459-2.131.961-3.191,1.49a12.985,12.985,0,0,1,4.359,2.287" transform="translate(-45.095 -16.606)" fill="#bee2e0"/>
              <path id="パス_4272" data-name="パス 4272" d="M79.74,49.348a12.985,12.985,0,0,0-4.359-2.287,55.086,55.086,0,0,0-10.822,7.048c6.2.915,11.955.113,15.181-4.761" transform="translate(-51.885 -15.672)" fill="#bae0de"/>
              <path id="パス_4273" data-name="パス 4273" d="M123.179,59.155c-1.216,5.832,3.277,7.008,4.493,10.851a40.17,40.17,0,0,1,14.282,12.118c-1.68-10.562-6.519-18.05-13.608-23.16a40.4,40.4,0,0,0-5.167.191" transform="translate(46.484 4.351)" fill="#63bec9"/>
              <path id="パス_4274" data-name="パス 4274" d="M115.8,66.3c7.625,1.417,14.942,4.6,22.559,5.733a13.042,13.042,0,0,0-.7-1.3C129.725,68.1,121.273,65.9,115.5,61.5c.121,1.584.121,3.266.3,4.8" transform="translate(33.901 8.637)" fill="#a0d4d2"/>
              <path id="パス_4275" data-name="パス 4275" d="M94.142,89.633c-.464-.392-1.106-.915-1.855-1.543-1.108,8.881-2.018,18.38-2.6,28.41.129-.115.271-.217.389-.344.666-15.538.84-18.858,4.061-26.523" transform="translate(-9.56 53.422)" fill="#a6d7d5"/>
              <path id="パス_4276" data-name="パス 4276" d="M68.973,57.627a41.749,41.749,0,0,0-7.035,7.456c8.938-1.428,20.468-6.45,26.263,1.028v1.812c4.429-2.536,8.887-5.067,13.868-6.552-.827,4.112-3.814,7.864-5.792,11.775-.024.349-.046.7-.07,1.052a77.471,77.471,0,0,0,21.8-3.884,41.489,41.489,0,0,1-6.326,6.417c6.493-.276,15.871-2.037,21.684,1.342-.612,1-5.942,2.209-6.5,3.2.625-1.114,4.171.389,8.492,3.017,3.693-2.493,5.422-4.364,1.465-11.531,2.045,1.906,6.235,2.059,9.228,3.189a72.463,72.463,0,0,0-7.062-9.738,12.016,12.016,0,0,1-6.216-.1,8.967,8.967,0,0,0,2.727-3.688,71.048,71.048,0,0,0-10.567-8.836q-5.938,4.835-12.416,9.228c-4.026-8.108.132-9.963-.03-15.616a34.461,34.461,0,0,0-16.45-1.919,53.519,53.519,0,0,0-13.05,3.806,10.3,10.3,0,0,0,1.168,3.779c-3.226,4.872-8.981,5.677-15.181,4.761" transform="translate(-56.298 -19.189)" fill="#a6d7d5"/>
              <path id="パス_4277" data-name="パス 4277" d="M69.107,94.364c1.943-5.572,7.134-10.1,12-14.566a25.4,25.4,0,0,1-5.6-2.665,39.514,39.514,0,0,0-6.393,17.231" transform="translate(-44.226 34.97)" fill="#a6d7d5"/>
              <path id="パス_4278" data-name="パス 4278" d="M108.5,67.422a187.3,187.3,0,0,1,18.678-16.81,17.556,17.556,0,0,0-3.452.69c-.081.287-.15.561-.26.867a7.877,7.877,0,0,0-.435-.666c-2.587.8-5.153,1.766-7.786,1.508,1.38-1.385,2.644-2.869,3.908-4.364-6.157-2.475-15.94-.977-19.685-3.264a47.049,47.049,0,0,0-2.136,4.477c2.464,1.465,3.873,3.793,1.828,8.932-2.985.539-3.658-.821-3.935-2.51a46.387,46.387,0,0,0-1.235,13.611A71.493,71.493,0,0,0,94.78,77a4.592,4.592,0,0,1,.625,3.8c.024.132.04.276.064.408,4.257-9.821,7.292-10.148,13.034-13.782" transform="translate(-2.436 -18.496)" fill="#a6d7d5"/>
              <path id="パス_4279" data-name="パス 4279" d="M94.683,58.887c-.027-.07-.067-.134-.1-.2-.064.3-.11.58-.215.915.107-.26.212-.472.314-.714" transform="translate(-1.684 3.905)" fill="#a6d7d5"/>
              <path id="パス_4280" data-name="パス 4280" d="M108.163,61.784c-10.709,4.042-21,12.175-28.483,20.624C63.654,100.5,64.146,122.29,64.188,144.17c3.742-14.926,8.127-33.776,18.039-42.322-3.921-3.175-6.138-7.743-5.9-14.322,6.238,4.235,14,7.233,17.908,13.369.542-.582,1.1-1.168,1.567-1.761-.148,1.194-.354,2.386-.59,3.567a15.49,15.49,0,0,1,1.267,4.163c1.5-1.965,3.087-4.088,4.751-6.238-11.968-13.86-2.08-28.035,6.933-38.843" transform="translate(-52.526 9.122)" fill="#a6d7d5"/>
              <path id="パス_4281" data-name="パス 4281" d="M97.544,80.794a7.16,7.16,0,0,0,7.658-.384c3.723-2.746,4.345-8.822,1.39-13.576-.134-.217-.3-.389-.437-.588,1.09.019,2.179,0,3.266.035-.344-.285-.687-.6-1.028-.91-1.1-.03-2.177-.067-3.173-.169-4.769,3.385-4.869,10.591-7.676,15.591" transform="translate(3.663 14.88)" fill="#a6d7d5"/>
              <path id="パス_4282" data-name="パス 4282" d="M74.918,82.963c.966-1.176,2.018-2.536,3.122-3.98-.647-.113-1.283-.225-1.908-.365q-.568,2.186-1.213,4.345" transform="translate(-34.44 37.471)" fill="#a6d7d5"/>
              <path id="パス_4283" data-name="パス 4283" d="M93.117,72.182a1.76,1.76,0,0,1-.2-.027,1.608,1.608,0,0,0,.2.027" transform="translate(-4.127 26.587)" fill="#a6d7d5"/>
              <path id="パス_4284" data-name="パス 4284" d="M112.708,51.917c-.966,4.654,1.707,6.334,3.441,8.777,2.762-2.936,7.255-5.607,9.217-8.989-4.128-.569-8.8,1.229-12.3,3.43,2.413-3.575,4.3-6.973,7.494-9.893a39.576,39.576,0,0,1,7.225-4.992,8.012,8.012,0,0,1-2.66-4.552c-9.582,2.257-19.172,8.551-25.181,15.586-.722.837-1.372,1.7-2.037,2.558.811,1.385,1.664,2.9,2.641,4.708,4.12-2.161,4.19-7.625,12.156-6.632" transform="translate(4.281 -34.809)" fill="#a6d7d5"/>
              <path id="パス_4285" data-name="パス 4285" d="M95.175,72.233c-.9,3.921-1.828,8.205-2.74,12.811,2.711.072,5.607.472,8.409.545q.632-6.405,1.525-12.73c-.231.134-.446.276-.7.4-2.3-.4-4.431-.725-6.493-1.023" transform="translate(-4.941 26.718)" fill="#a6d7d5"/>
              <path id="パス_4286" data-name="パス 4286" d="M88.579,60.988c-.569-.054-1.186-.059-1.785-.1a12.184,12.184,0,0,1,.067,1.621c.58-.564,1.149-1.06,1.718-1.525" transform="translate(-14.44 7.618)" fill="#a6d7d5"/>
              <path id="パス_4287" data-name="パス 4287" d="M82.463,76.44c1.449-1.213,2.821-2.453,4.174-3.674a22.371,22.371,0,0,0-3.487,2.128c-.223.515-.472,1.025-.687,1.546" transform="translate(-21.734 27.616)" fill="#a6d7d5"/>
              <path id="パス_4288" data-name="パス 4288" d="M132.363,82.2c-.647,3.884-7.386,2.783-12.142,3.3a13.367,13.367,0,0,0-.969,5.51c3.336,1.256,7.15,3.481,9.845,4.7a62.759,62.759,0,0,1,10.253,5.3c-.827-4.78-3.8-9.722-8.127-11.391a40.385,40.385,0,0,1,5.494.687c-.177-1.535-.177-3.218-.3-4.8,5.773,4.4,14.225,6.6,22.162,9.23-2.351-3.983-7.134-7.939-10.747-9.807a54.891,54.891,0,0,1,13.34,4.8c-1.216-3.843-5.709-5.022-4.49-10.851a40.408,40.408,0,0,1,5.164-.193,45.673,45.673,0,0,0-15.57-6.93,64.416,64.416,0,0,0-24.406-1.245,7.312,7.312,0,0,0-2.934-1.892c4.418-2.408,8.286-1.68,13.216-2.931,2.51-.644,6.764-.7,8.79-2.483-3.24-.931-6.756-3.194-9.976-3.865,3.645-2.3,7.794-3.164,11.59-5.191a28.664,28.664,0,0,1,6.533-2.51,30.709,30.709,0,0,0,2.238-3.559c-13.831-2.212-28.469-.156-40.625,7.48a60.761,60.761,0,0,0-7.625,5.72c.44,1.342.467,3.022.931,4.343,7.746-.443,17.207,10.591,28.354,16.576" transform="translate(12.982 -15.371)" fill="#a6d7d5"/>
              <path id="パス_4289" data-name="パス 4289" d="M119.352,50.629l.032-.038c-1.731-2.442-4.4-4.123-3.441-8.777-7.963-.993-8.033,4.472-12.156,6.63-.974-1.809-1.831-3.32-2.641-4.705A56.944,56.944,0,0,0,95.99,51.6c3.744,2.287,13.527.789,19.687,3.264,1.205-1.428,2.4-2.867,3.674-4.23" transform="translate(1.046 -24.707)" fill="#a6d7d5"/>
              <path id="パス_4290" data-name="パス 4290" d="M94.545,55.264q-1.683-1.953-3.492-3.79a9,9,0,0,1-2.724,3.688,12.046,12.046,0,0,0,6.216.1" transform="translate(-11.855 -8.24)" fill="#a6d7d5"/>
              <path id="パス_4291" data-name="パス 4291" d="M98.345,55.985c2.043-5.14.636-7.467-1.831-8.932a44.273,44.273,0,0,0-2.1,6.423c.274,1.688.947,3.049,3.935,2.51" transform="translate(-1.615 -15.685)" fill="#a6d7d5"/>
              <path id="パス_4292" data-name="パス 4292" d="M105.465,47.59c-.231.064-.467.132-.7.2a7.841,7.841,0,0,1,.432.666c.11-.306.18-.582.263-.867" transform="translate(15.831 -14.781)" fill="#a6d7d5"/>
              <path id="パス_4293" data-name="パス 4293" d="M81.887,61.416q6.486-4.388,12.414-9.228A54.467,54.467,0,0,0,81.858,45.8c.161,5.65-4,7.5.03,15.613" transform="translate(-25.67 -17.79)" fill="#a6d7d5"/>
              <path id="パス_4294" data-name="パス 4294" d="M61.33,61.011a27.6,27.6,0,0,1,4.1-4.251,26.307,26.307,0,0,0-4.249-2.671c-.137,2.155.158,4.662.15,6.922" transform="translate(-57.636 -3.836)" fill="#a6d7d5"/>
              <path id="パス_4295" data-name="パス 4295" d="M59.841,59.069c.008-.032.027-.051.038-.083L59.844,59l0,.072" transform="translate(-59.83 4.41)" fill="#a6d7d5"/>
              <path id="パス_4296" data-name="パス 4296" d="M116.909,57.417c-3.476,15.361,6.367,3.476,8.106,9.934-6.256,3.3-6.364,7.338-4.343,11.259a13.747,13.747,0,0,1,3.374.878,13.367,13.367,0,0,1,.969-5.51c4.756-.521,11.5.58,12.142-3.3C126.011,64.688,116.55,53.654,108.8,54.1h-5.419q-1.627,1.723-3.154,3.564c.851,6.581,14.064,1.806,16.678-.244" transform="translate(8.188 -3.845)" fill="#bae0de"/>
              <path id="パス_4297" data-name="パス 4297" d="M94.242,57.165q.282,1.908.625,3.8a4.588,4.588,0,0,0-.625-3.8" transform="translate(-1.898 1.344)" fill="#bee2e0"/>
              <path id="パス_4298" data-name="パス 4298" d="M105.894,52.47c-1.557,1.363-3.052,2.818-4.488,4.343h5.416c-.464-1.321-.489-3-.929-4.343" transform="translate(10.166 -6.563)" fill="#bee2e0"/>
              <path id="パス_4299" data-name="パス 4299" d="M111.8,69.772a86.754,86.754,0,0,1,14.413,11.013,35.275,35.275,0,0,0-19.333-7.507c-.566.462-1.135.961-1.715,1.525a11.771,11.771,0,0,0-.07-1.624,51.818,51.818,0,0,0-9.064.268,42.577,42.577,0,0,0-7.652,2.128c-9.013,10.809-18.9,24.983-6.933,38.843,5.314-6.879,11.324-13.973,16.88-16.464-1.334,3.07-2.813,6.13-4.168,9.225a22.835,22.835,0,0,1,3.487-2.128c4.214-3.811,8.205-7.448,13.538-9.708-.207,2.459.491,4.074,1.431,6.938a26.634,26.634,0,0,1,2.461-5.679c.66,3.135,2.55,5.679,5.258,6.562a5.612,5.612,0,0,0,1.2.247,1.76,1.76,0,0,0,.2.027,6.663,6.663,0,0,0,1.288-.008,1.826,1.826,0,0,0-.04.191c2.061.3,4.2.628,6.493,1.023.255-.121.47-.263.7-.395.287-2.01.59-4.018.921-6.01a10.6,10.6,0,0,0,2.856,2.107c2.807-5,2.907-12.207,7.676-15.591,1,.1,2.077.14,3.173.166-.964-.854-1.924-1.769-2.858-2.654,8.1,2.974,16.673,4.434,24.833,7.088-1.678-3.307-4.418-6.412-5.489-9.966.1.008.22.046.322.046-2.024-3.921-1.916-7.961,4.34-11.259-1.739-6.458-11.582,5.427-8.106-9.934-2.614,2.051-15.828,6.825-16.678.244-1.369,1.667-2.676,3.4-3.9,5.2a31.226,31.226,0,0,1,4.362-8.766c-3.433.247-1.766.427-5.177,1.017.789-.784,1.578-1.559,2.365-2.343-5.741,3.634-8.777,3.962-13.034,13.782.013.075.024.145.038.217a1.25,1.25,0,0,0-.072-.132c-.1.239-.207.454-.314.711.1-.336.15-.615.215-.915a64.033,64.033,0,0,0-3.151-5.827c-2.99-1.13-7.18-1.286-9.228-3.191,3.956,7.166,2.228,9.037-1.465,11.531m22.86,8.149c.059-.03.11-.056.166-.089-.129.156-.25.311-.365.472.064-.126.134-.25.2-.384" transform="translate(-32.745 -4.668)" fill="#bee2e0"/>
              <path id="パス_4300" data-name="パス 4300" d="M91.7,87.871A10.423,10.423,0,0,1,94.8,85.1a30.071,30.071,0,0,0,6.828-2.51c.142-1.68.29-3.358.456-5.038-2.8-.07-5.7-.47-8.409-.542C93,80.436,92.338,84.094,91.7,87.871" transform="translate(-6.18 34.756)" fill="#a0d4d2"/>
              <path id="パス_4301" data-name="パス 4301" d="M90.27,98.547c-.118.126-.26.228-.389.344-.121,2.158-.209,4.359-.3,6.562.228-.091.432-.2.69-.274Z" transform="translate(-9.749 71.032)" fill="#93cfcc"/>
              <path id="パス_4302" data-name="パス 4302" d="M102.472,112.21c-.856,3.723-4.506,5.172-8.106,6.632,6.27-7.821.926-6.847-4.807-4.214.078,1.989.169,3.972.274,5.983,3.691.236,6.909,1.291,8.573,4.861-3.7.988-5.854,3.242-7.859,5.618.553,6.721,1.267,13.53,2.233,20.441h5.926c1.108-6.9,5.548-8.7,11.783-8.514-1.044-6.941-2.515-17.717-3.8-30.939-.059.051-.113.078-.174.132Z" transform="translate(-9.784 93.818)" fill="#81c9d2"/>
              <path id="パス_4303" data-name="パス 4303" d="M110.712,40.807A61.248,61.248,0,0,0,118.9,35.63a28.865,28.865,0,0,0-10.851.625,8.012,8.012,0,0,0,2.66,4.552" transform="translate(21.358 -35.367)" fill="#93cfcc"/>
              <path id="パス_4304" data-name="パス 4304" d="M65.477,54.333a28.046,28.046,0,0,0-5.626,17.511l.035-.008a24.746,24.746,0,0,1,3.645-6.224c.008-2.26-.287-4.767-.15-6.922A26.307,26.307,0,0,1,67.63,61.36c5.215-4.294,11.8-6.868,18.02-9.233-3.438,2.587-3.937,6.46-5.277,10.849a85.653,85.653,0,0,0,11.367-5.8V55.361c-5.795-7.478-17.325-2.456-26.263-1.028" transform="translate(-59.837 -8.437)" fill="#a0d4d2"/>
              <path id="パス_4305" data-name="パス 4305" d="M92.967,132.128h13.16s-.556-3.081-1.377-8.516c-6.238-.185-10.674,1.613-11.783,8.516" transform="translate(-4.045 113.22)" fill="#a0d4d2"/>
              <path id="パス_4306" data-name="パス 4306" d="M75.371,81.294c.62.14,1.259.252,1.908.365.118-.153.234-.309.352-.467a15.585,15.585,0,0,0-1.264-4.163c-.287,1.436-.625,2.85-1,4.265" transform="translate(-33.677 34.795)" fill="#a0d4d2"/>
              <path id="パス_4307" data-name="パス 4307" d="M68.716,71.375c-.239,6.579,1.975,11.147,5.9,14.322a19.131,19.131,0,0,1,4.4-2.909c-.98,1.272-1.93,2.633-2.832,4.045a25.525,25.525,0,0,0,5.6,2.665c1.712-1.578,3.358-3.148,4.831-4.751-3.911-6.138-11.67-9.136-17.908-13.372" transform="translate(-44.914 25.273)" fill="#a0d4d2"/>
              <path id="パス_4308" data-name="パス 4308" d="M89.837,118.66c10.9-2.287,7.835,6.847,12.164,9.931h4.042c.048-.091.11-.177.158-.271-.768-7.9-1.463-16.662-1.97-25.971-9.279,1.771-12.008,8.892-14.394,16.311" transform="translate(-9.316 77.434)" fill="#7ec6c4"/>
              <path id="パス_4309" data-name="パス 4309" d="M94.37,84.1a4.827,4.827,0,0,1,2.075.655c.059-1.074.129-2.147.2-3.215A9.719,9.719,0,0,0,94.37,84.1" transform="translate(-1.682 42.39)" fill="#7ec6c4"/>
              <path id="パス_4310" data-name="パス 4310" d="M96.049,112.167c-.005-.048-.008-.094-.016-.142-.048.094-.11.183-.158.274.062-.054.115-.081.174-.132" transform="translate(0.852 93.729)" fill="#88cac8"/>
              <path id="パス_4311" data-name="パス 4311" d="M102.654,106.315c-5.792-1.3-6.836-3.978-12.164,0a6.836,6.836,0,0,0-.69.276c-.424,10.21-.483,20.9-.059,31.961,5.733-2.636,11.077-3.61,4.807,4.211,3.6-1.46,7.25-2.909,8.106-6.632-4.329-3.084-1.267-12.218-12.164-9.931,2.386-7.419,5.116-14.539,14.394-16.311q-.322-5.87-.521-12.019a12.734,12.734,0,0,0-5.776,1.812c3.167.725,4.718,2.775,4.066,6.632" transform="translate(-9.966 69.893)" fill="#88cac8"/>
              <path id="パス_4312" data-name="パス 4312" d="M100.412,94.855c-4.01-1.092-6.9-.851-8.822-.032-.285,1.941-.548,3.937-.808,5.956,1.326.086,3.2-.577,5.564-2.612,2.832-.005,4.072,1.291,5.658,2.292q.161-5.761.483-11.573a4.827,4.827,0,0,0-2.075-.655,9.761,9.761,0,0,1,2.276-2.561q.213-3.3.486-6.584a30.072,30.072,0,0,1-6.828,2.51c-.3,5.776.915,10.3,4.066,13.259" transform="translate(-7.725 38.259)" fill="#88cac8"/>
              <path id="パス_4313" data-name="パス 4313" d="M99.905,93.28c-3.151-2.955-4.364-7.483-4.066-13.259a10.386,10.386,0,0,0-3.1,2.775c-.572,3.363-1.127,6.833-1.653,10.452,1.924-.819,4.812-1.06,8.822.032" transform="translate(-7.218 39.833)" fill="#93cfcc"/>
              <path id="パス_4314" data-name="パス 4314" d="M96.553,86.195c-2.359,2.034-4.238,2.7-5.567,2.612-.113.824-.22,1.635-.327,2.475.752.628,1.39,1.149,1.855,1.543-.019-3.325,3.283-3.943,4.039-6.63" transform="translate(-7.932 50.231)" fill="#93cfcc"/>
              <path id="パス_4315" data-name="パス 4315" d="M93.9,92.825c-3.221,7.666-3.4,10.986-4.061,26.523v6.632c5.33-3.98,6.375-1.3,12.167,0,.65-3.86-.9-5.91-4.066-6.632a12.7,12.7,0,0,1,5.773-1.814c-.311-9.378-.386-19.145-.115-29.046-1.589-1-2.826-2.3-5.658-2.292-.757,2.687-4.058,3.307-4.039,6.63" transform="translate(-9.316 50.231)" fill="#a0d4d2"/>
              <path id="パス_4316" data-name="パス 4316" d="M98.234,120.119c-1.667-3.57-4.882-4.627-8.573-4.863q.282,5.2.711,10.481c2.008-2.375,4.163-4.633,7.861-5.618" transform="translate(-9.612 99.17)" fill="#a6d7d5"/>
              <path id="パス_4317" data-name="パス 4317" d="M131.005,49.482a68.135,68.135,0,0,0-8.546-1.93,30.483,30.483,0,0,1-2.238,3.559,78.9,78.9,0,0,1,10.784-1.629" transform="translate(41.851 -14.845)" fill="#93cfcc"/>
              <path id="パス_4318" data-name="パス 4318" d="M74.536,56.546c.148,0,.3-.027.456-.027.024-.352.046-.7.07-1.049-.18.349-.368.711-.526,1.076" transform="translate(-35.083 -1.511)" fill="#93cfcc"/>
            </g>
          </g>
        </g>
        <path id="パス_4319" data-name="パス 4319" d="M54.576,42.437s30.091,136.955,7.263,226.37h41.506S87.78,99.032,61.318,42.437Z" transform="translate(91.907 71.465)" fill="#4eb4b2"/>
        <path id="パス_4320" data-name="パス 4320" d="M116.081,34.244A63.212,63.212,0,0,0,99.569,27.5c-26.2-6.334-53.031,13.334-69.962,32.13C20.315,69.937,16.177,75.908,9.614,88.446,3.419,100.274,0,115.771,0,123.472c5.419-12.985,16.174-26.443,27.27-32.321A34.94,34.94,0,0,0,25.5,104.823c9.617-6.179,19.376-14.062,28.555-21.139,1.283,4.751.62,9.781-.752,14.6C62.758,87.42,77.353,71.211,91.09,67.132a13.609,13.609,0,0,0,1.653,3.385c7.459-2.442,15.31-5.075,23.241-4.71,0,0,15.905-3.768,30.584,11.3a9.77,9.77,0,0,0,3.342,2.5c-2.826-18.584-17.124-35.732-33.829-45.36" transform="translate(0 44.266)" fill="#4eb4b2"/>
        <path id="パス_4321" data-name="パス 4321" d="M55.8,103.891S97.478-38.9,197.786,31.277c0,0-17.986,3.022-24.9,3.022l8.648,9.424L152.823,41.09l6.227,6.78s-15.916-3.011-28.37,4.533l13.841,7.547s-20.407-2.644-29.75,7.545h16.606S78.465,79.176,55.8,103.891" transform="translate(93.97 20.003)" fill="#4eb4b2"/>
        <path id="パス_4322" data-name="パス 4322" d="M61.218,124.883c-1.914-9.668-7.625-30.906-8.388-41.159-1.712-23.155,2.821-42.4,17.524-59.448,19.918-23.1,50.111-36.2,73.44-9.182-5.5-1.237-12.159-2.147-17.578,0-4.5,1.763-7.733,5.937-12.508,7.456,3.731,1.039,7.644,1.651,11.41,2.6-10.03,4.415-21.15,7.078-30.023,14.118,3.521,1.39,7.4,1.645,11.055,2.638-8.68,5.9-22.755,8.213-28.88,17.72,4.3.142,8.613-.725,12.948-.69-7.663,5.39-18.981,15.119-21.274,25.071,4.737-.2,9.641-.537,14.169-2.153-4.906,3.68-16.7,12.494-16.609,19.5.856.177,6.938-1.423,7.784-1.213,2.351,3.782-2.789,6.53-2.153,8.315Z" transform="translate(88.39 -0.001)" fill="#4eb4b2"/>
        <path id="パス_4323" data-name="パス 4323" d="M119.082,104.253C118.905,73.878,103.04,27.7,81.12,14.475A62.66,62.66,0,0,0,44.571,5.859c-8.291.5-20.678,1.007-28.3,5.559,17.669,3.207,33.6,5.1,48.951,17.666-6.208-.25-16.338-2.6-21.641,2.6,10.033,1.876,22.736,4.281,31.586,10.312-4.85,2.673-9.926,3.814-14.55,7.408,7.405,5.577,18,.835,25.517,6.13-3.452,3.3-8.94,3.355-11.759,7.3,7.215,2.955,15.994,2.228,23.584,3.677-2.349.5-5.183,1.235-6.729,3.64C96.1,73.032,101.781,74.1,106.752,76.5c-1.213.314-2.681,1.61-4.007,1.841,2.665,2.467,1.17,4.356,4.67,5.806l.65,2.738Z" transform="translate(27.401 9.649)" fill="#4eb4b2"/>
        <path id="パス_4324" data-name="パス 4324" d="M70.382,59.551c-1.941,7.131-8.039,11.437-13.624,9.62-5.569-1.82-8.495-9.067-6.554-16.2,1.957-7.113,8.049-11.423,13.632-9.6s8.5,9.059,6.546,16.174" transform="translate(83.535 72.342)" fill="#4eb4b2"/>
        <path id="パス_4325" data-name="パス 4325" d="M75.657,48.672c3.825,6.157,3.009,14.027-1.8,17.58s-11.818,1.439-15.64-4.705-3.025-14.035,1.8-17.594,11.812-1.439,15.637,4.718" transform="translate(93.972 71.116)" fill="#4eb4b2"/>
        <g id="グループ_641" data-name="グループ 641" transform="translate(0 0.011)" opacity="0.61">
          <g id="グループ_640" data-name="グループ 640">
            <g id="グループ_639" data-name="グループ 639" clip-path="url(#clip-path-4)">
              <path id="パス_4326" data-name="パス 4326" d="M64.616,42.222H60.571c-.054,6.584-11.053,4.214-8.1,13.256h16.2V45.539c.738-2.816-1.584-3.13-4.056-3.317" transform="translate(87.517 71.092)" fill="#7ec6c4"/>
              <path id="パス_4327" data-name="パス 4327" d="M65.5,73.336q-.624-3.164-1.272-6.283v6.283Z" transform="translate(108.166 112.908)" fill="#96d0cd"/>
              <path id="パス_4328" data-name="パス 4328" d="M79.326,9.478A25.023,25.023,0,0,0,89.794,5.866,37.6,37.6,0,0,0,79.613.648c1.146,1.924,1.439,4.557-.287,8.83" transform="translate(133.586 1.08)" fill="#bee2e0"/>
              <path id="パス_4329" data-name="パス 4329" d="M79.326,9.527c6.962.513,10.046-2.163,13.8-4.278-1.1-.958-2.214-1.852-3.336-2.657A25.023,25.023,0,0,1,79.326,6.2Z" transform="translate(133.586 4.354)" fill="#bae0de"/>
              <path id="パス_4330" data-name="パス 4330" d="M108.294,22.623a33.892,33.892,0,0,1,.258-4.233c-2.687-1.447-5.336-2.756-7.931-3.892a100.9,100.9,0,0,1,7.674,8.125" transform="translate(169.446 24.404)" fill="#bae0de"/>
              <path id="パス_4331" data-name="パス 4331" d="M99.729,16.29c-16.048-.019-5.293,16.789,0,3.315C98,25.628,96.578,30.395,96.838,34L121.8,36.3l-8.648-9.432a110.771,110.771,0,0,0,12.161-1.117,5.012,5.012,0,0,1-1.275-2.832c-12.545,4.8-15.739-.548-24.312-6.627" transform="translate(153.699 27.422)" fill="#a0d4d2"/>
              <path id="パス_4332" data-name="パス 4332" d="M61.211,33.86V47.121h8.106c.046-3.245,6.621-4.074,7.945-.336,2.389-1.13,4.78-2.2,7.153-3.207-8.476-2.633-8.28-12.349-23.2-9.719" transform="translate(103.08 56.256)" fill="#93cfcc"/>
              <path id="パス_4333" data-name="パス 4333" d="M106.392,43.565c-11.1,3.071-19.91,8.014-24.309,16.568C81.1,54.3,75.1,52.588,65.869,53.5c-1.661,7.982,7.4,7.209,4.053,16.576,4.179,2.577,9.2,4.45,13.111,7.241a243.93,243.93,0,0,1,31.733-9.872h-16.6c9.34-10.191,29.75-7.547,29.75-7.547L114.068,52.36A30.743,30.743,0,0,1,117,50.817c-.972-.242-1.828-.459-2.515-.633a31.682,31.682,0,0,1,4.2-.107c11.439-4.571,23.748-2.252,23.748-2.252l-6.224-6.78,3.744.344c-.26-3.61,1.165-8.377,2.891-14.4-5.293,13.474-16.048-3.336,0-3.317,1.227-13.541-5.607.558-16.206-3.315a36.193,36.193,0,0,0-.158-8.455c-1.567.056-3.113.158-4.635.325-2.217,4.713-5.72,4.8-10.492,2.032-.279.083-.55.185-.827.271,1.643,12.148-7.252,15.675-4.139,29.033" transform="translate(110.578 20.036)" fill="#93cfcc"/>
              <path id="パス_4334" data-name="パス 4334" d="M63.369,40.038c1.565-1.557,3.237-3.049,4.842-4.375-.8,1.425-1.492,2.8-2.228,4.2.11-.016.2-.024.314-.043,14.923-2.63,14.727,7.086,23.2,9.719,2.061-.878,4.109-1.7,6.117-2.48-3.911-2.791-8.935-4.662-13.111-7.239C76.4,37.69,69.819,35.951,64.253,33.385c-1.64.153-3.288.242-4.914.314a19.394,19.394,0,0,1,.794-2.52c-.668-.419-1.331-.837-1.941-1.3.338,4.52-.306,9.848,5.177,10.164" transform="translate(97.996 50.298)" fill="#a0d4d2"/>
              <path id="パス_4335" data-name="パス 4335" d="M32.289,13.2c.217.142.437.3.66.443,0-.352-.016-.709-.011-1.052-.212.209-.437.405-.65.609" transform="translate(54.375 21.184)" fill="#a6d7d5"/>
              <path id="パス_4336" data-name="パス 4336" d="M52.788,80.174c-5.008,13.844,9.95,11.356,17.006,15.339a33.093,33.093,0,0,1,4.37-5.175c-5.483-.317-4.839-5.642-5.177-10.164.609.467,1.272.886,1.941,1.3C74.341,72.428,84.4,63.856,91.406,58.925c-4.332-.03-8.648.837-12.948.69C84.105,50.854,96.5,48.2,105.2,43.218A67.726,67.726,0,0,0,97.354,40.4c.174-.242.368-.411.553-.625-.542-.164-1.092-.309-1.621-.521,8.871-7.035,19.993-9.695,30.021-14.11-3.766-.953-7.679-1.567-11.41-2.6,4.775-1.519,8.012-5.69,12.51-7.459,5.416-2.142,12.078-1.235,17.578,0a53.672,53.672,0,0,0-5.467-5.473c-3.758,2.115-6.842,4.788-13.807,4.276V10.562c1.726-4.27,1.436-6.9.287-8.83-13.823-4.541-28.362.274-40.953,9.783a19.585,19.585,0,0,0,.15,2.37q-1.482-.205-2.8-.274A89.3,89.3,0,0,0,71.541,24.266c-1.35,1.559-2.585,3.146-3.766,4.745C79.347,30.488,91.886,32.31,93.3,47.03H81.145c6.377-8.761,4.515-10.3-8.095-6.63-.113-6.927-5.518-2.579-10.2-3.782-5.612,10.046-8.379,20.89-9,32.815a89.816,89.816,0,0,0,11.09,7.437c-.647,3.881-7.386,2.781-12.142,3.3" transform="translate(87.202 -0.003)" fill="#a6d7d5"/>
              <path id="パス_4337" data-name="パス 4337" d="M38.705,14.458c-1.471-.14-3.006-.258-4.544-.3-1.71,1.567-3.468,3.1-5.255,4.611,3.232.663,6.562,1.423,9.858,2.378.054-2.169,0-4.423-.059-6.691" transform="translate(48.678 23.835)" fill="#a6d7d5"/>
              <path id="パス_4338" data-name="パス 4338" d="M50.424,16.232a39.644,39.644,0,0,0-7.2-5.717q-2.2-1.321-4.447-2.432A79.325,79.325,0,0,1,46.32,20.172c1.814-.947,2.842-2.539,4.1-3.94" transform="translate(65.298 13.601)" fill="#a6d7d5"/>
              <path id="パス_4339" data-name="パス 4339" d="M37.838,6.947a63.136,63.136,0,0,0-6.817-1.068v8.052a13.164,13.164,0,0,0,6.817-6.984" transform="translate(52.24 9.89)" fill="#a6d7d5"/>
              <path id="パス_4340" data-name="パス 4340" d="M45.344,5.771c-.255.013-.515.005-.773.016-8.288.5-20.678,1.009-28.3,5.561,7.408,1.345,14.507,2.467,21.389,4.233,3.427-2.561,4.353-7.172,7.684-9.81" transform="translate(27.401 9.708)" fill="#a6d7d5"/>
              <path id="パス_4341" data-name="パス 4341" d="M93.182,12.025a61.725,61.725,0,0,0-10.494,2.032c4.775,2.767,8.275,2.681,10.494-2.032" transform="translate(139.248 20.24)" fill="#a6d7d5"/>
              <path id="パス_4342" data-name="パス 4342" d="M68.553,41.189c3.991-.223,8.449,2.6,13.353,6.211A125.326,125.326,0,0,0,69.2,21.5c-8.753-4.4-27.047,1.294-20.906-10.151-3.256,1.755-6.576,3.46-12.151,3.325.352,8.549,17.347,3.484,12.151,16.566-3.444.615-3.817-1.283-4.042-3.309a5.767,5.767,0,0,0-2.872,1.323,41.641,41.641,0,0,1,5.967,3.277c-4.85,2.676-9.928,3.817-14.55,7.405C38.181,44,45.264,42.6,51.614,43.578c3.132-2.3,6.868-3.495,12.886-9.021,3.935.089,3.151,4.056,4.053,6.632" transform="translate(55.226 19.099)" fill="#a6d7d5"/>
              <path id="パス_4343" data-name="パス 4343" d="M37.776,26.864c-.115-.035-.228-.07-.338-.1a9.981,9.981,0,0,1-.376,1.71c.244-.585.478-1.087.714-1.61" transform="translate(62.413 45.062)" fill="#a6d7d5"/>
              <path id="パス_4344" data-name="パス 4344" d="M152.133,65.887c3.75-2.416,11.869-3.712,20.264-9.936h-8.1V42.687c-.115.019-.2.027-.314.046-1.492,2.832-2.875,5.58-4.128,8.224a7.825,7.825,0,0,1,.4,4.995c-4.716.531-7.212-.741-8.119-3.331-3.079,5.22-12.843,4.968-12.142,13.267C133.516,61.241,129.635,54.467,127.824,46c-.647-3.889-7.384-2.8-12.153-3.317-6.5,4.625-4.305,16.354-12.153,19.894-23.579-3.994-34.173-3.752-44.56,13.251-19.889-17.352-2.077-35.692,8-47.663-14.405,6.248-27.541,17.4-37.345,28.279-9.292,10.309-13.431,16.289-20,28.824C3.419,97.092,0,112.595,0,120.3c5.419-12.985,16.174-26.443,27.27-32.321A34.946,34.946,0,0,0,25.5,101.649c9.617-6.181,19.376-14.062,28.555-21.139,1.283,4.753.62,9.783-.752,14.6C62.758,84.246,77.356,68.037,91.09,63.958a13.777,13.777,0,0,0,1.653,3.382,103.535,103.535,0,0,1,15.471-4.19,7.623,7.623,0,0,1-.641-3.9c5.891,1.822,20.943-3.865,20.251,3.328a6.231,6.231,0,0,1,2.536,1.162A35.814,35.814,0,0,1,139.349,68c2.48-1.063,4.678-2.346,8.739-2.112ZM30.59,59.253c8.116,5.516,18.842,8.911,20.256,19.891C38.521,77.083,30.139,71.792,30.59,59.253m115.85,5.172c-.008-.386-.016-.768-.032-1.162q.286,1.24.569,2.44c-.169-.427-.357-.851-.537-1.278" transform="translate(0 47.426)" fill="#81c9d2"/>
              <path id="パス_4345" data-name="パス 4345" d="M31.633,35.912c5.027-4.92,9.925-5.784,10.317-9.622a51.028,51.028,0,0,0-13.7,1.9,8.57,8.57,0,0,1,3.382,7.725" transform="translate(47.575 44.26)" fill="#a6d7d5"/>
              <path id="パス_4346" data-name="パス 4346" d="M88.482,20.38c10.6,3.873,17.433-10.226,16.206,3.315,8.573,6.079,11.767,11.426,24.312,6.63V27.012a101.388,101.388,0,0,0-7.674-8.127c-11.968-5.237-22.954-7.287-33-6.96a36.046,36.046,0,0,1,.158,8.455" transform="translate(148.739 20.015)" fill="#a6d7d5"/>
              <path id="パス_4347" data-name="パス 4347" d="M74.651,51.852c9.233-.913,15.226.8,16.214,6.635,4.4-8.557,13.208-13.5,24.309-16.571-3.113-13.358,5.779-16.885,4.139-29.033A65.864,65.864,0,0,0,106.8,18.192a21.788,21.788,0,0,0,8.377.518c-.062,6.589-11.063,4.219-8.106,13.262-8.264,1.6-12.073-.44-16.534-1.957-9.909,9.131-18,20.318-24.339,31.143A44.918,44.918,0,0,1,60.45,62C66.017,64.564,72.6,66.3,78.7,68.431c3.347-9.37-5.717-8.594-4.053-16.579" transform="translate(101.799 21.684)" fill="#a6d7d5"/>
              <path id="パス_4348" data-name="パス 4348" d="M26.446,17.493c2.1.392,4.327.816,6.6,1.288,1.785-1.508,3.546-3.044,5.253-4.611-4.442-.126-8.9.424-11.855,3.323" transform="translate(44.536 23.825)" fill="#a6d7d5"/>
              <path id="パス_4349" data-name="パス 4349" d="M62.7,40.684c5.2-13.082-11.8-8.02-12.151-16.566,5.572.134,8.895-1.57,12.151-3.325C56.553,32.238,74.85,26.539,83.6,30.944a67.005,67.005,0,0,0-8.7-10.766c-1.261,1.4-2.289,2.993-4.1,3.94A79.183,79.183,0,0,0,63.252,12.03,60.473,60.473,0,0,0,49.258,7.182a13.168,13.168,0,0,1-6.815,6.984V6.114a68.148,68.148,0,0,0-10.519-.29c-3.331,2.638-4.257,7.247-7.684,9.807a71.791,71.791,0,0,1,21.6,9.093c.209-.2.435-.4.647-.607,0,.344.011.7.013,1.049a64.561,64.561,0,0,1,5.3,3.9c-1.549-.064-3.339-.258-5.239-.429.064,2.268.113,4.523.059,6.691A66.444,66.444,0,0,1,55.783,38.7a5.813,5.813,0,0,1,2.872-1.323c.225,2.029.6,3.927,4.042,3.312" transform="translate(40.821 9.654)" fill="#a6d7d5"/>
              <path id="パス_4350" data-name="パス 4350" d="M63.825,56.491c-8.039-.035-5.143-9.032-16.2-6.619,1.812,8.463,5.69,15.24,12.167,19.883-.7-8.3,9.061-8.047,12.14-13.264.907,2.59,3.4,3.86,8.119,3.328a7.815,7.815,0,0,0-.4-4.992c-.362.781-.784,1.605-1.125,2.354a20.294,20.294,0,0,1-3.83.607,10.835,10.835,0,0,1,2.1-5.835c-7.059-3.983-22.014-1.495-17.006-15.339,4.753-.526,11.493.577,12.14-3.307a90,90,0,0,1-11.09-7.435c-.148,2.9-.188,5.846-.1,8.876q-.64-2.279-1.347-4.539c-16.6,9.254,13.374,24.017,4.429,26.282" transform="translate(80.2 43.558)" fill="#bae0de"/>
              <path id="パス_4351" data-name="パス 4351" d="M43.415,22.474c-3.626,11.568,13.227,5.666,16.211,3.315-3.033,13.42,4.088,6.052,7.1,8.275q-.886-2.705-1.852-5.379c-4.9-3.61-9.362-6.434-13.353-6.211Z" transform="translate(72.255 37.815)" fill="#bae0de"/>
              <path id="パス_4352" data-name="パス 4352" d="M27.617,89.6C38,72.6,48.6,72.355,72.177,76.349c7.848-3.54,5.65-15.269,12.153-19.894,4.767.518,11.5-.572,12.153,3.315,11.058-2.413,8.165,6.587,16.2,6.619,8.946-2.265-21.024-17.027-4.431-26.282-.2-.628-.408-1.256-.612-1.89-3.009-2.222-10.132,5.145-7.1-8.275C97.554,32.293,80.7,38.193,84.33,26.627h8.108c-.9-2.579-.121-6.546-4.056-6.632-6.018,5.526-9.754,6.721-12.883,9.018A15.454,15.454,0,0,1,82.193,31.5c-3.427,3.285-8.865,3.368-11.7,7.231-.548-.156-1.092-.319-1.645-.467-.236.523-.467,1.025-.711,1.608a10.132,10.132,0,0,0,.373-1.707c-.094-.021-.185-.059-.279-.083a43.69,43.69,0,0,0-10.046-1.2c-.392,3.838-5.288,4.7-10.315,9.622a8.57,8.57,0,0,0-3.382-7.725,64.975,64.975,0,0,0-8.873,3.151c-10.073,11.971-27.884,30.311-8,47.663M94.022,42.479c-2.349.5-5.186,1.24-6.729,3.642,4.861,2.891,10.546,3.951,15.516,6.356-1.213.306-2.681,1.608-4,1.833a6.752,6.752,0,0,1,1.82,2.781A76.525,76.525,0,0,0,84.741,44.838,66.468,66.468,0,0,0,74.5,40.05c6.3,1.484,13.3,1.248,19.524,2.429" transform="translate(31.34 33.661)" fill="#bee2e0"/>
              <path id="パス_4353" data-name="パス 4353" d="M40.1,40.021a7.623,7.623,0,0,0,.641,3.9,38.5,38.5,0,0,1,7.773-.526,28.528,28.528,0,0,1,11.3.3,5.416,5.416,0,0,0,.539-.341c.692-7.193-14.359-1.506-20.251-3.328" transform="translate(67.472 66.661)" fill="#a0d4d2"/>
              <path id="パス_4354" data-name="パス 4354" d="M65.836,4.293c-.894.676-1.78,1.372-2.649,2.1q1.316.068,2.8.274a20.132,20.132,0,0,1-.153-2.37" transform="translate(106.408 7.219)" fill="#93cfcc"/>
              <path id="パス_4355" data-name="パス 4355" d="M65.915,82.957Z" transform="translate(110.994 139.69)" fill="#aedbd8"/>
              <path id="パス_4356" data-name="パス 4356" d="M68.023,148.424c7.966-1.1,14.606-3.927,20.8-7-1.766-14.137-3.9-30.01-6.383-46.4-6.466-1.833-6.8-8.677-14.419-9.579.223,4.243,5.194,4.592,4.05,9.944-5.129-1.146-6.552-3.363-10.521-1.066q.169,4.4.268,8.863c5.25,6.992,19.768-.268,22.409,8.782-9.7-1.312,2.249,15.092-12.156,9.939,4.533-4.778,4.367-8.092-4.05-9.939,2.654,7.228-.585,9.63-6.09,10.186q-.048,3.692-.158,7.376c1.082.059,1.9.612,2.193,2.316a15.759,15.759,0,0,1-2.389,3.376c-.37,8.93-1.025,17.79-2,26.454h8.449Z" transform="translate(100.324 143.878)" fill="#aedbd8"/>
              <path id="パス_4357" data-name="パス 4357" d="M66.217,82.983c-.07.021-.134.046-.209.067l-.25.081c0,.04,0,.07,0,.1-.349,5.781,3.076,8.476,5.679,11.837q-.672-4.344-1.369-8.72h-.258c-.217-1.922-.6-3.709-3.591-3.368" transform="translate(110.692 139.664)" fill="#aedbd8"/>
              <path id="パス_4358" data-name="パス 4358" d="M103.479,23.493a5.021,5.021,0,0,0,1.275,2.832c6.528-.859,12.738-1.9,12.738-1.9a136.582,136.582,0,0,0-13.756-8.473,33.89,33.89,0,0,0-.258,4.233Z" transform="translate(174.26 26.846)" fill="#aedbd8"/>
              <path id="パス_4359" data-name="パス 4359" d="M83.855,26.249c.687.172,1.543.389,2.515.631.558-.26,1.117-.513,1.686-.738a30.792,30.792,0,0,0-4.2.107" transform="translate(141.213 43.973)" fill="#88cac8"/>
              <path id="パス_4360" data-name="パス 4360" d="M64.484,92.588q2.887-.789,5.559-1.581a1.431,1.431,0,0,1,.166-.048c1.83-.55,3.6-1.1,5.306-1.648v-.1c.172-.032.3-.024.456-.043h.005l.038-.011c1.055-.346,2.072-.692,3.095-1.041-.456-2.767-.926-5.553-1.4-8.337-4.222,1.329-5.6,3-10.3-.507-.62,3.7-3.274,5.733-7.48,6.5.174,2.606.338,5.223.486,7.87,1.243-.327,2.51-.639,3.693-.956.123-.038.25-.067.37-.1" transform="translate(100.932 133.481)" fill="#96d0cd"/>
              <path id="パス_4361" data-name="パス 4361" d="M66.772,74.331c.011,3.32-3.285,3.951-4.05,6.63,4.509-.115,7.515,1,9.563,2.9q-.821-4.747-1.691-9.453a10.457,10.457,0,0,1-3.822-.075" transform="translate(105.625 125.164)" fill="#96d0cd"/>
              <path id="パス_4362" data-name="パス 4362" d="M67.814,79.014c2.37-1.627,3.715-4.1,5.183-6.471q-1.353-5.954-2.778-11.606c-3.13,2.99-7.923,3.465-10.511-1.82,2.477-.18,4.8-.491,4.064-3.309-3.328,1.278-5.381,3.054-6.482,5.118q.866,5.757,1.734,12.11a34.373,34.373,0,0,0,4.748,5.977Z" transform="translate(96.477 93.971)" fill="#96d0cd"/>
              <path id="パス_4363" data-name="パス 4363" d="M65.993,82.982l-.252.078.252-.078" transform="translate(110.709 139.732)" fill="#96d0cd"/>
              <path id="パス_4364" data-name="パス 4364" d="M65.912,83.617h0c2.99-.341,3.374,1.447,3.591,3.368h.258c-.242-1.474-.475-2.944-.717-4.421-1.02.349-2.04.7-3.092,1.041-.013,0-.03.011-.04.011" transform="translate(110.997 139.03)" fill="#a0d4d2"/>
              <path id="パス_4365" data-name="パス 4365" d="M67.109,89.541c7.615.9,7.953,7.746,14.419,9.577-.209-1.382-.421-2.773-.639-4.163-2.606-3.36-6.028-6.055-5.679-11.839,0-.032,0-.062,0-.1q-2.569.829-5.309,1.648c-.054.013-.11.03-.164.048-1.788.531-3.637,1.055-5.561,1.581-.121.032-.247.064-.37.1-1.184.317-2.451.631-3.691.956.03.58.064,1.159.094,1.747a23.9,23.9,0,0,1,6.9.451" transform="translate(101.238 139.781)" fill="#a0d4d2"/>
              <path id="パス_4366" data-name="パス 4366" d="M65.993,83.024c.07-.024.134-.048.207-.067h-.005c-.153.019-.285.011-.454.043v.1l.252-.078" transform="translate(110.709 139.69)" fill="#a0d4d2"/>
              <path id="パス_4367" data-name="パス 4367" d="M65.7,80.96c.765-2.679,4.061-3.307,4.05-6.63H65.7c-1.181,2.034-10.076,12.762,0,13.259,4.694,3.508,6.077,1.833,10.3.5q-.362-2.122-.733-4.235c-2.048-1.9-5.054-3.014-9.563-2.9" transform="translate(102.643 125.162)" fill="#88cac8"/>
              <path id="パス_4368" data-name="パス 4368" d="M63.037,68.514c-7.475,5.744,1,12.72,8.041,6.672q-1.389-6.7-2.858-13.144c-1.468,2.367-2.813,4.845-5.183,6.471" transform="translate(101.255 104.471)" fill="#7ec6c4"/>
              <path id="パス_4369" data-name="パス 4369" d="M66.3,52.494A15.83,15.83,0,0,0,64,45.7,13.9,13.9,0,0,0,62.722,44v8.5Z" transform="translate(105.625 74.079)" fill="#96d0cd"/>
              <path id="パス_4370" data-name="パス 4370" d="M76.945,40.28C68.55,46.5,60.431,47.8,56.681,50.217c2.472.188,4.791.5,4.056,3.317,4.064-.013,4.826,2.687,8.1,3.315.5-1.4.5-3.207,1.039-4.587a11.977,11.977,0,0,0-3.65-1.68A131.261,131.261,0,0,1,84.89,39.945c-1.321-3.742-7.9-2.909-7.945.336" transform="translate(95.452 63.097)" fill="#96d0cd"/>
              <path id="パス_4371" data-name="パス 4371" d="M11.408,39.751c-.454,12.54,7.931,17.83,20.256,19.891C30.25,48.659,19.522,45.267,11.408,39.751" transform="translate(19.182 66.931)" fill="#a0d4d2"/>
              <path id="パス_4372" data-name="パス 4372" d="M63.7,58.816c12.733-2.271,16.555.376,20.262-3.317V47a13.741,13.741,0,0,0-3.017-2.716c-.537,1.38-.542,3.183-1.039,4.587-3.277-.625-4.042-3.328-8.1-3.312V55.5H55.6c-2.955-9.042,8.044-6.675,8.1-13.259-4.061-.234-6.256,1.052-8.736,2.112.446.3.891.561,1.337.88a13.5,13.5,0,0,0-6.184,7c5.908,4.858,8.444,11.493,12.663,17.486A11.976,11.976,0,0,0,65.521,67.7c.2-1.793.322-4.021-1.825-8.884" transform="translate(84.389 71.074)" fill="#88cac8"/>
              <path id="パス_4373" data-name="パス 4373" d="M47.423,41.332c.985.209,2.016.494,3.076.821a6.2,6.2,0,0,0-2.536-1.162,5.744,5.744,0,0,1-.539.341" transform="translate(79.861 69.019)" fill="#88cac8"/>
              <path id="パス_4374" data-name="パス 4374" d="M64.6,57.89V54.57H56.8c.432,2.679.87,5.5,1.312,8.439,1.1-2.061,3.154-3.838,6.482-5.118" transform="translate(95.656 91.886)" fill="#7ec6c4"/>
              <path id="パス_4375" data-name="パス 4375" d="M57.936,62.227q.411,3,.811,6.109c1.27-.005,2.6-.062,3.94-.132a34.266,34.266,0,0,1-4.751-5.977" transform="translate(97.565 104.781)" fill="#7ec6c4"/>
              <path id="パス_4376" data-name="パス 4376" d="M50.966,45.944a17.474,17.474,0,0,0-.762,2c-1.941,7.131.982,14.378,6.554,16.2a8.765,8.765,0,0,0,6.871-.711C59.408,57.437,56.874,50.8,50.966,45.944" transform="translate(83.535 77.36)" fill="#7ec6c4"/>
              <path id="パス_4377" data-name="パス 4377" d="M74.323,77.715V71.431c-.019-.1-.04-.2-.062-.3-7.043,6.047-15.519-.931-8.044-6.675H62.178c-1.339.072-2.671.129-3.94.134.5,3.959,1,8.06,1.482,12.266,5.279-1.779,10.572-1.868,14.6.862" transform="translate(98.074 108.529)" fill="#88cac8"/>
              <path id="パス_4378" data-name="パス 4378" d="M59.23,122.548c-.494,2.461-1.025,4.885-1.586,7.3a18.293,18.293,0,0,1,5.534,2.5c.164-4.477-1.849-7.18-3.948-9.8" transform="translate(97.073 206.362)" fill="#cce8e7"/>
              <path id="パス_4379" data-name="パス 4379" d="M78.364,112.411c-6.562,7.352-10.119,17.172-18.81,22.782q-.612,3.567-1.31,7.064c16.144,1.2,18.34-5.771,7.963-9.952,10.105,2.37,16.654-14.59,24.309-3.315a9.732,9.732,0,0,0,3.94-1.439c-.558-5.049-1.2-10.688-1.932-16.789a43.766,43.766,0,0,1-14.161,1.648" transform="translate(98.086 186.516)" fill="#cce8e7"/>
              <path id="パス_4380" data-name="パス 4380" d="M62.256,56.507v3.32c.738,2.821-1.586,3.13-4.064,3.312,2.587,5.282,7.381,4.81,10.511,1.817-1-3.975-2.018-7.829-3.068-11.536-.118,1.385-1.122,2.727-3.379,3.087" transform="translate(97.996 89.949)" fill="#aedbd8"/>
              <path id="パス_4381" data-name="パス 4381" d="M59.706,55.8a3.361,3.361,0,0,1,2.762,1.393c-.212-.735-.421-1.474-.636-2.19a8.792,8.792,0,0,0,5.454-1.678,9.851,9.851,0,0,0,2.861-3.417c-4.378,1.227-8.884,2.357-10.441,5.891" transform="translate(100.546 84.032)" fill="#aedbd8"/>
              <path id="パス_4382" data-name="パス 4382" d="M70.719,63.961c-.2-.725-.408-1.433-.617-2.15a3.362,3.362,0,0,0-2.762-1.39c1.554-3.538,6.063-4.668,10.441-5.894a13.188,13.188,0,0,0,1.235-7.365h-3.58c-3.707,3.693-7.526,1.049-20.262,3.32C57.32,55.346,57.2,57.571,57,59.364a12.9,12.9,0,0,0,1.074-1.176c.472,2.759.964,5.725,1.471,8.86H67.34c2.257-.36,3.261-1.7,3.379-3.087" transform="translate(92.912 79.411)" fill="#81c9d2"/>
              <path id="パス_4383" data-name="パス 4383" d="M66.543,96.53a36.455,36.455,0,0,1-6.087-1.919q.064,6.047,0,12.1c5.5-.556,8.745-2.958,6.09-10.186" transform="translate(101.804 159.316)" fill="#a6d7d5"/>
              <path id="パス_4384" data-name="パス 4384" d="M60.517,101.869q-.077,2.854-.2,5.693a15.759,15.759,0,0,0,2.389-3.376c-.293-1.7-1.111-2.257-2.193-2.316" transform="translate(101.582 171.538)" fill="#a0d4d2"/>
              <path id="パス_4385" data-name="パス 4385" d="M69.345,97.24c-10.076-.5-1.181-11.225,0-13.256H73.4a10.577,10.577,0,0,0,3.822.075q-1.236-6.732-2.55-13.326H73.4c-4.034-2.73-9.324-2.641-14.606-.862C60,80.532,61.065,91.929,61.865,103.744c4.206-.77,6.86-2.8,7.48-6.5" transform="translate(99.002 115.511)" fill="#7ec6c4"/>
              <path id="パス_4386" data-name="パス 4386" d="M70.664,110.777c14.405,5.153,2.456-11.251,12.156-9.939-2.641-9.05-17.159-1.79-22.409-8.785.048,2.287.089,4.571.115,6.866a36.616,36.616,0,0,0,6.087,1.919c8.417,1.847,8.583,5.161,4.05,9.939" transform="translate(101.733 155.008)" fill="#bae0de"/>
              <path id="パス_4387" data-name="パス 4387" d="M71.1,95.728c1.143-5.352-3.827-5.7-4.05-9.944a23.9,23.9,0,0,0-6.9-.451q.25,4.63.429,9.327c3.967-2.295,5.39-.078,10.519,1.068" transform="translate(101.297 143.539)" fill="#bae0de"/>
              <path id="パス_4388" data-name="パス 4388" d="M63.788,141.659a18.293,18.293,0,0,0-5.534-2.5c-.317,1.355-.625,2.719-.972,4.058H98.79s-.929-10.111-2.711-26.2a9.733,9.733,0,0,1-3.94,1.439c-15.433,2.85-12.47,20.734-28.351,23.2" transform="translate(96.464 197.048)" fill="#aadbe8"/>
              <path id="パス_4389" data-name="パス 4389" d="M90.534,120c-7.655-11.276-14.2,5.685-24.309,3.315,10.379,4.182,8.181,11.157-7.961,9.952l-.03.137c2.1,2.617,4.115,5.322,3.948,9.8C78.065,140.738,75.1,122.854,90.534,120" transform="translate(98.069 195.499)" fill="#cde8e7"/>
              <path id="パス_4390" data-name="パス 4390" d="M77.543,119.927A43.766,43.766,0,0,0,91.7,118.279q-.68-5.741-1.463-11.979c-6.195,3.076-12.835,5.9-20.8,7v13.254H60.99c-.617,5.47-1.361,10.87-2.257,16.152,8.691-5.61,12.247-15.43,18.81-22.782" transform="translate(98.907 179)" fill="#bae0de"/>
              <path id="パス_4391" data-name="パス 4391" d="M66.109,22.2c12.61-3.669,14.475-2.131,8.1,6.632H86.36C84.945,14.111,72.405,12.286,60.837,10.812a73.041,73.041,0,0,0-4.933,7.6C60.59,19.621,66,15.27,66.109,22.2" transform="translate(94.143 18.197)" fill="#93cfcc"/>
              <path id="パス_4392" data-name="パス 4392" d="M76.608,18.266c.738-.421,1.463-.856,2.139-1.318-3.1-.845-6.361-1.2-9.432-2.126-.185.215-.378.384-.556.625a67.822,67.822,0,0,1,7.848,2.818" transform="translate(115.793 24.95)" fill="#93cfcc"/>
              <path id="パス_4393" data-name="パス 4393" d="M88.193,28.641c-2.958-9.042,8.044-6.672,8.1-13.262a21.775,21.775,0,0,1-8.374-.518A83.256,83.256,0,0,0,71.659,26.684c4.458,1.516,8.269,3.559,16.534,1.957" transform="translate(120.675 25.015)" fill="#93cfcc"/>
            </g>
          </g>
        </g>
      </g>
    </g>
  </g>
</svg>
