<svg xmlns="http://www.w3.org/2000/svg" xmlns:xlink="http://www.w3.org/1999/xlink" width="542.667" height="77.358" viewBox="0 0 542.667 77.358">
  <defs>
    <clipPath id="clip-path">
      <rect id="長方形_1276" data-name="長方形 1276" width="542.667" height="77.358" fill="none"/>
    </clipPath>
  </defs>
  <g id="グループ_613" data-name="グループ 613" clip-path="url(#clip-path)">
    <path id="パス_3961" data-name="パス 3961" d="M7.339,23.27Q17.654,35.348,27.97,47.426L0,75.122c29.274,2.055,58.722,2.762,88.116,2.116a200.311,200.311,0,0,1-2.322-27.483c-.139-9.133,1.595-18.335,1.352-27.407-4.951-.87-11.437.195-16.539.249l-21.429.228-20.919.223c-2.414.025-19.919,1.4-20.92.222" transform="translate(0 -1.976)" fill="#e50038"/>
    <path id="パス_3962" data-name="パス 3962" d="M359,79.044,438.621,75.9a234.71,234.71,0,0,0-28.252-27.28,115.114,115.114,0,0,0,30.421-26.653c0,1.738-79.19-5.957-83.939-2.1-2.287,1.857.118,7.791.31,10.017.459,5.32.4,10.692.6,16.022q.621,16.57,1.241,33.141" transform="translate(101.874 -1.685)" fill="#e50038"/>
    <path id="パス_3963" data-name="パス 3963" d="M95.328,1.092,33.855,1.12c.641,19.717-.641,43.409,0,63.127,152.128,3.411,306.291.653,458.5-.329Q489.921,31.959,487.487,0C372.08,1.918,210.735-.825,95.328,1.092" transform="translate(9.639 0)" fill="#e8464d"/>
  </g>
</svg>
