<svg xmlns="http://www.w3.org/2000/svg" xmlns:xlink="http://www.w3.org/1999/xlink" width="94.955" height="77.989" viewBox="0 0 94.955 77.989">
  <defs>
    <clipPath id="clip-path">
      <rect id="長方形_1265" data-name="長方形 1265" width="94.955" height="77.989" fill="none"/>
    </clipPath>
  </defs>
  <g id="グループ_598" data-name="グループ 598" clip-path="url(#clip-path)">
    <path id="パス_3537" data-name="パス 3537" d="M94.005,109.678H.95a.95.95,0,0,1,0-1.9H94.005a.95.95,0,0,1,0,1.9" transform="translate(0 -70.57)"/>
    <path id="パス_3538" data-name="パス 3538" d="M120.193,81.759a.949.949,0,0,1-.95-.95,13.771,13.771,0,0,0-27.542,0,.95.95,0,1,1-1.9,0,15.671,15.671,0,1,1,31.341,0,.949.949,0,0,1-.95.95" transform="translate(-58.799 -42.65)"/>
    <path id="パス_3539" data-name="パス 3539" d="M53.043,82.189a.95.95,0,0,1-.368-.075L41.6,77.46a.95.95,0,1,1,.736-1.751l11.076,4.654a.95.95,0,0,1-.368,1.826" transform="translate(-26.857 -49.523)"/>
    <path id="パス_3540" data-name="パス 3540" d="M59.178,52.447a.945.945,0,0,1-.62-.231L45.319,40.8a.95.95,0,0,1,1.24-1.438L59.8,50.779a.95.95,0,0,1-.62,1.669" transform="translate(-29.457 -25.62)"/>
    <path id="パス_3541" data-name="パス 3541" d="M80.4,34.044a.949.949,0,0,1-.8-.439L70.208,18.851a.95.95,0,0,1,1.6-1.02L81.2,32.584a.95.95,0,0,1-.8,1.46" transform="translate(-45.872 -11.387)"/>
    <path id="パス_3542" data-name="パス 3542" d="M108.251,32.869a.95.95,0,0,1-.912-.685l-3.355-11.552a.95.95,0,0,1,1.824-.53l3.355,11.552a.951.951,0,0,1-.912,1.215" transform="translate(-68.06 -12.713)"/>
    <path id="パス_3543" data-name="パス 3543" d="M29.79,72.417a.943.943,0,0,1-.368-.075l-2.272-.955a.95.95,0,0,1,.736-1.751l2.272.955a.95.95,0,0,1-.368,1.826" transform="translate(-17.396 -45.547)"/>
    <path id="パス_3544" data-name="パス 3544" d="M101.207,8.616a.95.95,0,0,1-.912-.685l-.688-2.37a.95.95,0,1,1,1.824-.53l.688,2.37a.951.951,0,0,1-.912,1.215" transform="translate(-65.194 -2.846)"/>
    <path id="パス_3545" data-name="パス 3545" d="M190.439,82.189a.95.95,0,0,1-.368-1.826l11.076-4.654a.95.95,0,1,1,.736,1.751l-11.077,4.654a.949.949,0,0,1-.368.075" transform="translate(-124.071 -49.523)"/>
    <path id="パス_3546" data-name="パス 3546" d="M230.391,72.418a.95.95,0,0,1-.368-1.826l2.272-.955a.95.95,0,0,1,.736,1.751l-2.272.955a.95.95,0,0,1-.368.075" transform="translate(-150.23 -45.548)"/>
    <path id="パス_3547" data-name="パス 3547" d="M166.271,42.733a.95.95,0,0,1-.8-1.46L171.948,31.1a.95.95,0,1,1,1.6,1.02l-6.476,10.172a.949.949,0,0,1-.8.439" transform="translate(-108.247 -20.076)"/>
    <path id="パス_3548" data-name="パス 3548" d="M189.632,21.377a.95.95,0,0,1-.8-1.46l1.329-2.087a.95.95,0,0,1,1.6,1.02l-1.328,2.087a.95.95,0,0,1-.8.44" transform="translate(-123.543 -11.387)"/>
    <path id="パス_3549" data-name="パス 3549" d="M132.246,19.321a.949.949,0,0,1-.95-.95V.95a.95.95,0,0,1,1.9,0V18.371a.949.949,0,0,1-.95.95" transform="translate(-85.968)"/>
    <path id="パス_3550" data-name="パス 3550" d="M149.875,23a.951.951,0,0,1-.912-1.215l4.867-16.755a.95.95,0,1,1,1.824.53l-4.866,16.755a.95.95,0,0,1-.912.685" transform="translate(-97.511 -2.847)"/>
    <path id="パス_3551" data-name="パス 3551" d="M180.2,52.447a.95.95,0,0,1-.62-1.669l13.239-11.419a.95.95,0,0,1,1.24,1.438L180.823,52.217a.945.945,0,0,1-.62.231" transform="translate(-117.369 -25.62)"/>
    <path id="パス_3552" data-name="パス 3552" d="M38.588,183.535a1.3,1.3,0,0,1-.582-.154,2.283,2.283,0,0,1-.53-.359.823.823,0,0,1-.257-.342q.855-2.5,1.454-4.328t1.009-3.455q.411-1.624.736-3.387t.65-4.036q.325-2.275.735-5.491a2.014,2.014,0,0,1,.171-.6c.068-.125.285-.188.65-.188a1.914,1.914,0,0,1,1.539.564,1.886,1.886,0,0,1,.479,1.249,10.172,10.172,0,0,1-.12,1.2q-.12.856-.359,2.019a13.605,13.605,0,0,1,1.488-1.882,7.56,7.56,0,0,1,1.865-1.454,4.539,4.539,0,0,1,2.224-.564,3.7,3.7,0,0,1,2.771,1.129,4.1,4.1,0,0,1,1.094,2.976,7.574,7.574,0,0,1-.6,2.822,10.52,10.52,0,0,1-1.693,2.805,8.963,8.963,0,0,1-2.634,2.155,6.969,6.969,0,0,1-3.387.838,4.582,4.582,0,0,1-1.744-.273q-.65-.274-.65-.616a.276.276,0,0,1,.257-.291,2.888,2.888,0,0,1,.564-.051,6.847,6.847,0,0,0,2.925-.684,7.647,7.647,0,0,0,2.275-1.693,7.928,7.928,0,0,0,1.471-2.241,5.957,5.957,0,0,0,.513-2.36,3.333,3.333,0,0,0-.462-1.779,1.581,1.581,0,0,0-1.454-.753,3.238,3.238,0,0,0-1.728.547,7.668,7.668,0,0,0-1.625,1.385,13.646,13.646,0,0,0-1.334,1.745,12.644,12.644,0,0,0-.889,1.591q-.65,2.258-1.18,4.5t-1.009,4.157a31.3,31.3,0,0,1-.975,3.25A4.307,4.307,0,0,1,39.17,183.3a.873.873,0,0,1-.582.239" transform="translate(-24.37 -105.546)"/>
    <path id="パス_3553" data-name="パス 3553" d="M90.728,152.469a2.379,2.379,0,0,1-2.241-1.078,4.94,4.94,0,0,1-.633-2.549,15.251,15.251,0,0,1,.616-3.934,41.737,41.737,0,0,1,1.625-4.738q1.008-2.48,2.224-4.858t2.446-4.293a23.441,23.441,0,0,1,2.275-3.062q1.043-1.145,1.694-1.146a.892.892,0,0,1,.752.462,4.041,4.041,0,0,1,.5,1.094,4.167,4.167,0,0,1,.188,1.18,8.574,8.574,0,0,1-.462,2.412,25.449,25.449,0,0,1-1.3,3.267,37.607,37.607,0,0,1-1.984,3.643,31.184,31.184,0,0,1-2.532,3.541,19.245,19.245,0,0,1-2.959,2.908q-.137.855-.257,1.693a10.817,10.817,0,0,0-.12,1.522,3.094,3.094,0,0,0,.41,1.8,1.258,1.258,0,0,0,1.061.564,2.7,2.7,0,0,0,1.762-.8,10.657,10.657,0,0,0,1.744-2.052,18.716,18.716,0,0,0,1.454-2.583l.821.445a16.869,16.869,0,0,1-3.284,4.806,5.432,5.432,0,0,1-3.8,1.762m.821-9.271a26.934,26.934,0,0,0,2.207-2.754q1.043-1.488,1.916-3.028t1.522-2.976a23.2,23.2,0,0,0,1.009-2.583,7.806,7.806,0,0,0,.394-1.83v-.1q-.274,0-.872.77a24.034,24.034,0,0,0-1.42,2.1q-.821,1.334-1.693,3.045t-1.676,3.609q-.8,1.9-1.385,3.746" transform="translate(-57.524 -83.032)"/>
    <path id="パス_3554" data-name="パス 3554" d="M112.163,177.511a2.852,2.852,0,0,1-1.967-.753,2.881,2.881,0,0,1-.838-2.258,7.2,7.2,0,0,1,.547-2.6,13.213,13.213,0,0,1,1.505-2.771,14.624,14.624,0,0,1,2.189-2.48,11.363,11.363,0,0,1,2.634-1.8,6.354,6.354,0,0,1,2.805-.684,4.111,4.111,0,0,1,2.5.753,2.347,2.347,0,0,1,1.026,1.984,1.459,1.459,0,0,1-.65,1.334,2.056,2.056,0,0,1-1.539.24q.068-.308.119-.616a3.915,3.915,0,0,0,.051-.65,2.715,2.715,0,0,0-.274-1.231,1.171,1.171,0,0,0-1.163-.547,3.553,3.553,0,0,0-1.95.65,9.245,9.245,0,0,0-1.9,1.694,14.5,14.5,0,0,0-1.625,2.292,14.1,14.1,0,0,0-1.129,2.446,6.726,6.726,0,0,0-.41,2.155q0,1.1.787,1.095a2.9,2.9,0,0,0,1.744-.77,14.029,14.029,0,0,0,1.933-1.933q.975-1.163,1.865-2.378t1.539-2.07a.309.309,0,0,1,.273-.171q.136.035.53.154a2.617,2.617,0,0,1,.736.359.726.726,0,0,1,.342.616,1.945,1.945,0,0,1-.29.872q-.291.531-.684,1.163a11.377,11.377,0,0,0-.684,1.266,2.905,2.905,0,0,0-.291,1.215,1.583,1.583,0,0,0,.239.838.848.848,0,0,0,.787.393,4.339,4.339,0,0,0,2.309-1.214,13.488,13.488,0,0,0,3.028-4.122l.65.65a14.617,14.617,0,0,1-1.967,3.267,10.12,10.12,0,0,1-2.411,2.224,4.745,4.745,0,0,1-2.566.8,2.467,2.467,0,0,1-2.087-.889,3.472,3.472,0,0,1-.753-1.916v-.171a20.637,20.637,0,0,1-2.514,2.6,3.756,3.756,0,0,1-2.446.958" transform="translate(-71.604 -107.492)"/>
    <path id="パス_3555" data-name="パス 3555" d="M159.4,178.144a4.029,4.029,0,0,1-2.925-1.112,4.546,4.546,0,0,1-1.146-3.4,8.688,8.688,0,0,1,.65-3.284,10.433,10.433,0,0,1,1.745-2.891,8.914,8.914,0,0,1,2.446-2.036,5.6,5.6,0,0,1,2.754-.753,2.63,2.63,0,0,1,2.07.718,2.457,2.457,0,0,1,.633,1.676,4.058,4.058,0,0,1-.462,1.864,1.394,1.394,0,0,1-1.249.907,1.22,1.22,0,0,1-1.06-.65,2.8,2.8,0,0,0,.718-.89,3.316,3.316,0,0,0,.377-1.676.625.625,0,0,0-.137-.428.673.673,0,0,0-.513-.154,2.893,2.893,0,0,0-1.8.77,8.816,8.816,0,0,0-1.744,1.984,12.288,12.288,0,0,0-1.3,2.566,7.244,7.244,0,0,0-.5,2.48,3.288,3.288,0,0,0,.5,1.762,2.093,2.093,0,0,0,1.933.8,5.712,5.712,0,0,0,2.7-.753,9.938,9.938,0,0,0,2.634-2.1,10.566,10.566,0,0,0,1.984-3.233l.685.616a12.238,12.238,0,0,1-2.275,3.712,11.744,11.744,0,0,1-3.216,2.566,7.4,7.4,0,0,1-3.507.941" transform="translate(-101.707 -107.817)"/>
    <path id="パス_3556" data-name="パス 3556" d="M191.79,176.241a4.56,4.56,0,0,1-3.37-1.18,4.014,4.014,0,0,1-1.18-2.959,7.752,7.752,0,0,1,.77-3.2,12.994,12.994,0,0,1,2.07-3.182,11.636,11.636,0,0,1,2.873-2.412,6.168,6.168,0,0,1,3.147-.924,3.353,3.353,0,0,1,1.693.462,1.929,1.929,0,0,1,.8,1.83,4.3,4.3,0,0,1-.753,2.429,7.721,7.721,0,0,1-2.019,2.019,12.2,12.2,0,0,1-2.788,1.454,12.866,12.866,0,0,1-3.062.736,2.138,2.138,0,0,0-.051.291c-.011.1-.017.268-.017.5a5.883,5.883,0,0,0,.051.6,2.778,2.778,0,0,0,.291.907,2.072,2.072,0,0,0,.787.821,2.828,2.828,0,0,0,1.506.342,5.934,5.934,0,0,0,2.891-.8,11.592,11.592,0,0,0,2.737-2.138,12.812,12.812,0,0,0,2.138-2.976l.684.547a12.891,12.891,0,0,1-2.377,3.592,11.066,11.066,0,0,1-3.216,2.395,8.183,8.183,0,0,1-3.609.855m-1.437-6.192a6.512,6.512,0,0,0,1.984-.616,11.01,11.01,0,0,0,2.1-1.3,7.876,7.876,0,0,0,1.659-1.728,3.318,3.318,0,0,0,.65-1.9.733.733,0,0,0-.137-.513.614.614,0,0,0-.445-.137,2.992,2.992,0,0,0-1.642.565,8.928,8.928,0,0,0-1.676,1.471,12.41,12.41,0,0,0-1.471,2,12.277,12.277,0,0,0-1.026,2.155" transform="translate(-122.598 -106.325)"/>
  </g>
</svg>
