<svg xmlns="http://www.w3.org/2000/svg" xmlns:xlink="http://www.w3.org/1999/xlink" width="297.388" height="184.312" viewBox="0 0 297.388 184.312">
  <defs>
    <clipPath id="clip-path">
      <rect id="長方形_1261" data-name="長方形 1261" width="297.388" height="184.312" fill="none"/>
    </clipPath>
  </defs>
  <g id="グループ_589" data-name="グループ 589" clip-path="url(#clip-path)">
    <path id="パス_3458" data-name="パス 3458" d="M147.693,36.594c4.081,3.415,4.868,8.4,6,13.3,2.321-1.907,4.238-2.664,6.252-2.169a10.345,10.345,0,0,1,5.618,3.633c1.221,1.5,1.46,1.551,3.135.637a14.472,14.472,0,0,1,2.637-1.427,30.738,30.738,0,0,0,9.382-4.3c2.285-1.656,2.356-1.53.866-3.937a4.409,4.409,0,0,1-.75-3.8c.194-.613.418-1.164,1.158-1.184.78-.018,1.011.575,1.113,1.189a12.618,12.618,0,0,0,1.48,3.921c.385.713.94,1.13,1.8.618a8.682,8.682,0,0,1,3.883-.831c3.836-.319,7.354,1.169,11,1.926a5.736,5.736,0,0,1,1.53.936c.322.194.55.619,1.2.385.06-.559.154-1.2.192-1.844a12.188,12.188,0,0,1,1.956-5.833c.423-.672,1.095-1.2,1.832-.86.7.322.131,1.065.075,1.622a3.325,3.325,0,0,1-.222.769,27.042,27.042,0,0,0-1.326,7.884,1.941,1.941,0,0,0,.795,1.909c.822.575,1.64,1.154,2.474,1.71.275.183.56.32.843-.079.724-1.02,1.936-1.11,2.992-1.452a28.239,28.239,0,0,1,7.32-1.069c.622-.032,1.433.132,1.8-.609.825-1.664,2.352-2.718,3.509-4.093a28.778,28.778,0,0,1,6.41-6.015c.351-.222.75-.516,1.09-.237.46.378.16.836-.129,1.221-.12.162-.247.317-.37.476-1.995,2.594-3.88,5.275-6.086,7.7-.317.348-.676.676-.372,1.291,3.025.119,6.1.114,9.153.385a79.512,79.512,0,0,0,14.42.135,19.554,19.554,0,0,1,3.01.052,1.011,1.011,0,0,1,.915.93c.075.456-.272.71-.64.913a4.173,4.173,0,0,1-1.511.451c-6.608.9-13.194.29-19.773-.308a43.7,43.7,0,0,0-7.675-.024c.151.615.5.652.8.775a34.01,34.01,0,0,1,7.722,4.217,3.15,3.15,0,0,1,1.4,1.639.682.682,0,0,1-.155.743.6.6,0,0,1-.738.01c-.75-.434-1.5-.876-2.246-1.314a18.615,18.615,0,0,0-3.857-2.11,21.166,21.166,0,0,1-5.47-2.442,6.821,6.821,0,0,0-5.319-.8,10.264,10.264,0,0,0-3.959,1.277,3.044,3.044,0,0,0,1.752.669c2.545.556,5.128.94,7.656,1.558a20.023,20.023,0,0,1,11.311,6.733,6.848,6.848,0,0,1,1.809,4.558c-.07,2.315.646,3.9,2.99,4.754,2.266.827,4.095,2.519,6.211,3.664a7.521,7.521,0,0,0,9.028-1.32c.564-.565,1.1-1.163,1.669-1.717.278-.27.6-.591,1.046-.332a1.044,1.044,0,0,1,.475,1.039,5.252,5.252,0,0,1-2.376,4.2c-3.135,2.19-8.166,2.327-12.1-.3a28.18,28.18,0,0,0-4.465-2.482c.454,1.051.569,2.347,2.124,2.431a1.1,1.1,0,0,1,.915.7,5.062,5.062,0,0,0,1.507,1.848,4.129,4.129,0,0,1,1.062,2.12c.272.84-.093,1.331-.9,1.709-2.143,1-2.342,1.271-3.4,3.649-.053.121-.157.22-.212.34-.487,1.079-.456,1.2.646,1.539a32.937,32.937,0,0,1,5.46,1.975c1.769.912,1.747.828,2.533-.935A9.466,9.466,0,0,1,251.8,84a31.13,31.13,0,0,0,3.581-1.77,1.738,1.738,0,0,1,2.207.369,1.562,1.562,0,0,1,.329,2.007c-.185.378-.62.682-.433,1.293a11.845,11.845,0,0,0,2.892-1.019,40.6,40.6,0,0,1,10.493-3.887c2.092-.5,4.091-.08,6.121.2a.755.755,0,0,1,.724.581,4.72,4.72,0,0,1-1.19,2.925,12.393,12.393,0,0,0-3.987,4.269c-.494.914-.679,1.569.425,2.11.489.239.937.609.551,1.268a3.214,3.214,0,0,1-2.788,1.268,2.4,2.4,0,0,1-1.375-2.785c.631-2.169,1.363-4.314,3.307-5.75a4.848,4.848,0,0,0,1.884-2.412c-.325-.343-.527-.046-.758.022a4.442,4.442,0,0,1-.769.189,27.619,27.619,0,0,0-12.048,4c-.964.618-2.106.814-3.013,1.557-1.65,1.352-2.319,1.071-2.711-1.03a2.773,2.773,0,0,1,.208-1.951c.179-.32.475-.679-.005-1.177-1.373.88-2.821,1.7-4.146,2.69a7.718,7.718,0,0,0-2.44,3.615,1.189,1.189,0,0,0,.448,1.582,20.5,20.5,0,0,0,2.736,1.67c1.058.46,1.507,1.547,2.581,2.052a4.247,4.247,0,0,1,2.533,2.654,10.37,10.37,0,0,1-.17,5.932,2.856,2.856,0,0,1-2.44,2.081,5.45,5.45,0,0,0-2.647.679c-.425.244-.879.467-1.224-.075a1.069,1.069,0,0,1,.087-1.312,3.43,3.43,0,0,1,2.656-1.586c.48,0,.98.02,1.172-.537.5-1.454.475-5.585-.912-6.912-.244-.232-.457-.591-.816-.4-1.711.919-3.059-.275-4.215-1.018-3.814-2.455-8.009-3.951-12.222-5.471-4.722-1.7-9.862-1.406-14.575-3.126-.206-.074-.506.157-.765.165a15.348,15.348,0,0,1-5.693-.931.965.965,0,0,1-.727-1.062c.056-.619.485-.735,1-.707.534.029,1.073.035,1.6.117,1.517.229,3.02.559,4.543.728,4.38.483,8.8.646,13.143,1.432.4.072.778.123,1.046-.32,1.411-2.339,1.971-4.74.766-7.368-.7-1.522-1.457-3.008-2.221-4.5a17.4,17.4,0,0,1-2.14-6.213c-.445-4.947-3.418-7.8-7.463-9.9a27.717,27.717,0,0,0-11.326-2.951,10.483,10.483,0,0,1-5.043-1.789,65.245,65.245,0,0,1-8.613-6.858,3.988,3.988,0,0,0-2.882-1.179,8.59,8.59,0,0,1-2.9-.614c-2.3-.741-4.626-1.151-6.957.131a22.572,22.572,0,0,0-3.779,2.255c-2.621,2.208-5.867,3.126-8.92,4.367-2.288.929-4.288,2.446-6.861,2.927.85,1.8,1.21,3.584,2.243,5.087a13.654,13.654,0,0,1,2.3,6.558c.3,3.243,1.038,6.464.645,9.759a5.979,5.979,0,0,0,.169,1.38,44.969,44.969,0,0,0,1.769,6.559,14.411,14.411,0,0,1,.424,5.564c-.338,2.958-1.34,5.884-.48,8.913.18.634-.175,1.021-.79,1.16a.937.937,0,0,1-1.258-.672,6.635,6.635,0,0,1-.4-2.155c.177-2.066.019-4.136.16-6.193a19.133,19.133,0,0,0-1.118-7.675,21.471,21.471,0,0,1-.844-3.086c-.615-3.286-.407-6.637-.8-9.948-.323-2.727-.459-5.48-1.894-7.915a53.628,53.628,0,0,1-2.587-5.2,12.787,12.787,0,0,0-4.9-5.935c-2.032-1.239-3.013-1.12-4.756.524-1.113,1.049-2.119,2.246-3.672,2.711a21.707,21.707,0,0,1-11.086.473c-2.142-.476-4.235-1.169-6.364-1.71a20.765,20.765,0,0,0-8.735-.392c-2.691.457-5.357.6-7.774,2.228a15.033,15.033,0,0,0-6.673,8.88,31.813,31.813,0,0,0-.753,5.56,4.877,4.877,0,0,1-2.4,4.132,18.747,18.747,0,0,0-6.423,6.758c-.4.693-.833,1.374-1.29,2.033a6.386,6.386,0,0,0-.6,7.156,3.863,3.863,0,0,1-.183,4.154,12.725,12.725,0,0,0-1.995,7.844,2.335,2.335,0,0,0,.492,1.7c1.371,1.245.986,2.543.579,4.146-.945,3.722-.782,7.4,1.662,10.685a2.226,2.226,0,0,0,2.365.994,104.06,104.06,0,0,0,11.792-2.348c4.227-1,8.361-.447,12.517.288a4.359,4.359,0,0,1,.939.343c2.935,1.28,4.782,3.786,6.8,6.088.508.578-.012,1.822-.872,2.647-.8.769-1.226.013-1.635-.415-1.153-1.207-2.23-2.489-3.361-3.721a7.75,7.75,0,0,0-4.515-2.353,28.549,28.549,0,0,0-13.09.76c-3.615,1.017-7.353,1.318-11.022,2a20.892,20.892,0,0,0-4.8,1.3,6.977,6.977,0,0,0-4.034,8.383,34.962,34.962,0,0,0,1.438,4.792c1.221,2.924.934,5.881.568,8.88-.163,1.321-.7,2.653-.363,3.972,1.035,4.005,3.128,7.217,7.123,8.862a38.022,38.022,0,0,0,6.031,2.148,4.517,4.517,0,0,1,1.919,1.054,11.109,11.109,0,0,1,3.671,5.839c.694,2.749,1.266,3.092,4.023,2.83a3.18,3.18,0,0,1,3.492,1.788c.436.9.909,1.785,1.3,2.7a3.949,3.949,0,0,0,3.533,2.538c3.3.277,3.895-.207,3.8-3.513a32.221,32.221,0,0,1,1.416-10.486,20.259,20.259,0,0,1,6.16-9.642A56.613,56.613,0,0,0,141.883,147a36.035,36.035,0,0,1,5.336-5.128,2.984,2.984,0,0,1,1.614-.684c.537-.056,1.125-.154,1.421.436.311.621-.195.987-.579,1.346-.83.772-1.894,1.227-2.672,2.094-3.078,3.432-6.344,6.677-9.682,9.861a19.409,19.409,0,0,0-3.993,5.734,29.457,29.457,0,0,0-2.494,10.876,17.606,17.606,0,0,1-.851,5.324,3.552,3.552,0,0,0,2.407,4.846,1.887,1.887,0,0,1,1.649,1.861,7.084,7.084,0,0,0,4.112,5.76c.933.447,1.967.391,2.839.746s1.118,1.639,2.015,2.166a6.947,6.947,0,0,0,1.27.584,10.262,10.262,0,0,0,6.676.293c1.456-.477,2.888-1.058,4.376-1.4,3.488-.806,6.97-1.269,10.43.31a20.471,20.471,0,0,0,3.855,1.081,20.11,20.11,0,0,0,6.982.371c.448-.054,1.05.019,1.139-.565.079-.515-.393-.8-.822-1.024a2.76,2.76,0,0,1-.359-.177,2.154,2.154,0,0,1-.461-3.443,3.572,3.572,0,0,1,4.866-.464,4.71,4.71,0,0,0,3.954.937,3.646,3.646,0,0,1,2.344.316,20.572,20.572,0,0,1,3.185,1.688,15.816,15.816,0,0,0,3.412,1.68,3.011,3.011,0,0,0,2.705-.065,11.273,11.273,0,0,0,2.631-2.111,14.526,14.526,0,0,1,7.2-4.828,3.709,3.709,0,0,0,2.9-3.18,17.02,17.02,0,0,0-2.494-13.792,103.719,103.719,0,0,0-10.12-12.9,56.264,56.264,0,0,1-4.026-5.236c-.341-.451-.574-.9,0-1.384.491-.41,1-.762,1.62-.387a4.386,4.386,0,0,1,1.218,1.022,108.508,108.508,0,0,0,7.561,8.556c1.89,1.991,3.328,4.342,5.013,6.5,2.654,3.391,4.544,7.072,4.83,11.426.061.93.424,1.364,1.279,1.447,3.649.353,7.156,1.428,10.859,1.722a10.9,10.9,0,0,0,10.3-6.718,21.317,21.317,0,0,0,.784-4.732,11.329,11.329,0,0,1,4.456-8.393,33.88,33.88,0,0,0,3.544-2.614c1.546-1.5,1.782-2.322.872-4.222a6.626,6.626,0,0,0-1.19-1.844,10.42,10.42,0,0,1-3.17-6.735,3.806,3.806,0,0,0-2.077-3.163c-2.246-1.308-4.425-2.707-6.74-3.92a30.033,30.033,0,0,0-9.756-3.446c-1.65-.235-3.267-.7-4.9-1.049a1.063,1.063,0,0,1-.932-1.3,1.271,1.271,0,0,1,1.172-1.181,5.622,5.622,0,0,1,2.181.251,29.283,29.283,0,0,0,4.126.785,23.038,23.038,0,0,1,7.656,2.183c1.673.832,3.31,1.748,4.909,2.714,2.643,1.6,5.66,2.725,7.163,5.69,1.666-.755,1.684-.744,2.515-1.987.242-.36.555-.781.918-.62,1.63.722,2.548.194,2.974-1.468.038-.146.32-.223.473-.351,2.879-2.408,4.844-5.362,5.114-9.185.184-2.609.118-5.193-1.617-7.456a30.572,30.572,0,0,1-3.05-4.919,14.847,14.847,0,0,1-1.226-5.233,1.453,1.453,0,0,1,1.215-1.619c.769-.139,1.036.515,1.171,1.112a22.944,22.944,0,0,0,4.13,8.385c1.813,2.475,2.134,5.194,2.13,7.959a15.2,15.2,0,0,1-5.661,11.854c-.4.347-.928.651-1.019,1.2-.309,1.883-1.38,2.525-3.25,2.427a4.737,4.737,0,0,0-4.177,2.659c-.628,1.093.672,2.4,1.477,3.44a11.8,11.8,0,0,0,.89,1.087,5.084,5.084,0,0,1,1.418,2.393,2.367,2.367,0,0,0,1.887,1.81c1.178.389,1.408.267,1.369-1-.014-.465-.214-.937.183-1.319a6.047,6.047,0,0,1,2.975-.132,13.349,13.349,0,0,1,2.667,1.762c1.72,1.817,3.777,2.1,6.074,1.772a29.938,29.938,0,0,1,8.392-.314.8.8,0,0,0,.878-.31c-.007-.133.035-.3-.028-.375-.408-.526-.838-1.036-1.261-1.55-.927-1.126-.822-1.709.469-2.274a3,3,0,0,1,2.144-.229c.762.232,1.557.361,2.327.575a4.333,4.333,0,0,0,4.8-1.658,22.613,22.613,0,0,1,2.042-2.2c1.249-1.17,2.5-2.337,3.915-3.657-1.75-.371-3.255-.751-4.8.042a8.625,8.625,0,0,1-1.892.659,1.448,1.448,0,0,1-1.851-.77c-.279-.622.214-1.212,1.233-1.5a19.872,19.872,0,0,1,2.149-.475,6.054,6.054,0,0,0,2.449-.8c.842-.551,1.455-1.015.8-2.184-.318-.568-.477-1.551.635-1.733,1.186-.192,2.392-.266,3.591-.367a1,1,0,0,1,1.17.859c.078.537-.372.82-.85.961-.384.114-.778.2-1.171.284a1.027,1.027,0,0,0-.881.7c-.273.846-.584,1.679-.913,2.615a7.181,7.181,0,0,1,3.682.529c.453.257,1.122.379,1.1,1a1.356,1.356,0,0,1-1.04,1.125c-2.514.8-4,2.823-5.611,4.679a29.086,29.086,0,0,1-3.2,3.313,6.119,6.119,0,0,1-4.685,1.3c-.634-.052-1.254-.432-1.974-.09.129.273.255.5.353.748.554,1.373.41,1.742-.986,2.221a5.457,5.457,0,0,0-2.138,1.041,1.019,1.019,0,0,1-1.129.22c-1.763-.914-3.534-.291-5.286-.055a18.477,18.477,0,0,1-5.982.166c-1.811-.344-3.512-.946-4.483-2.653-.453-.8-1.17-.72-1.852-1-.073.308-.129.494-.158.685-.105.682.722,1.517-.136,2.023a3.887,3.887,0,0,1-2.361.238,2.684,2.684,0,0,1-.95-.3c-.791-.417-1.215-.369-1.681.583a9.358,9.358,0,0,1-4.4,4.257c-2.757,1.307-3.661,3.487-3.971,6.215a41.714,41.714,0,0,1-.671,4.564,14.685,14.685,0,0,1-3.915,6.873c-1.725,1.81-4.173,2.232-6.244,3.368a1.811,1.811,0,0,1-.595.066,24.677,24.677,0,0,1-11.88-.875,7.573,7.573,0,0,0-1.773-.316c-1.625-.178-1.693-.174-1.9,1.463a6.726,6.726,0,0,1-4.979,5.934A10.9,10.9,0,0,0,201.9,192a7.363,7.363,0,0,1-8.441,3.013,12.454,12.454,0,0,1-3.389-1.67,6.924,6.924,0,0,0-4.854-1.421,6.058,6.058,0,0,1-4.2-.952c-.628-.434-1.33-.967-2.222-.529.033.579.462.951.716,1.4.772,1.379.753,1.741-.573,2.62a10.162,10.162,0,0,1-6.87,1.676,33.683,33.683,0,0,1-4.722-.838c-2.639-.666-5.252-1.514-8.073-1.043a34.5,34.5,0,0,0-6.75,1.828,12.253,12.253,0,0,1-9.181-.263c-1.419-.563-2.135-2.05-3.361-2.77-1.29-.758-2.9-.88-4.221-1.765a10.2,10.2,0,0,1-3.612-5.167c-.254-.644-.431-1.193-1.171-1.48-2-.777-2.912-2.439-3.366-4.423-.374-1.638-.373-1.647-2.027-1.526-.667.049-1.329.165-1.994.216a5.69,5.69,0,0,1-3.117-.559,5.38,5.38,0,0,1-2.727-3c-1.38-3.523-1.617-3.438-4.61-3.164a1.708,1.708,0,0,0-.2.02,2.17,2.17,0,0,1-1.985-.668,7.371,7.371,0,0,1-2-3.617c-.95-3.11-2.755-5.455-6.156-6.191a18.862,18.862,0,0,1-5.583-2.186c-.858-.5-1.358-.379-1.974.457a38.369,38.369,0,0,1-5.943,6.217,6.6,6.6,0,0,1-2.76,1.557c-1.025.241-1.527-.4-1.153-1.393a2.542,2.542,0,0,1,1.383-1.356,21.562,21.562,0,0,0,6.927-5.978c.856-1.068.843-1.383.031-2.228A11.5,11.5,0,0,1,90.3,146.235a8.814,8.814,0,0,0,.105-3.7c-.264.076-.416.076-.5.151a104.435,104.435,0,0,1-10.794,7.994,4.489,4.489,0,0,1-2.582.977c-.386-.008-.875.1-1.046-.372s.272-.707.567-.946q4.9-3.967,9.825-7.914c1.154-.924,2.135-2.024,3.216-3.015a2.249,2.249,0,0,0,.406-3.057,10.939,10.939,0,0,1-1.536-4.922c-.021-.513-.119-1.2-.778-1.248-1.276-.092-1.971-1.067-2.854-1.727a38.27,38.27,0,0,0-7.051-4.024c-.924,1.846-1.07,1.945-2.962,2.567-2.1.687-4.177,1.42-6.268,2.124-1.2.4-2.4.816-3.619,1.176-.785.231-1.263-.118-1.477-.915-.176-.66-.181-1.147.594-1.432,3.385-1.245,6.757-2.524,10.136-3.784.432-.161.931-.2,1.145-.726a2.142,2.142,0,0,0-1.141-.712,107.644,107.644,0,0,0-16.964-5.457c-4.231-.959-8.512-1.692-12.774-2.5a6.909,6.909,0,0,1-2.888-1.32,1.091,1.091,0,0,1-.413-1.253c.2-.578.688-.442,1.173-.426,1.563.049,2.99.727,4.506.92A80.166,80.166,0,0,1,54.7,114.4c4,.95,7.918,2.272,11.871,3.438.294.087.593.351.872-.062a2.974,2.974,0,0,0-1-1.676c-1.2-1.167-2.392-2.34-3.622-3.473a19.186,19.186,0,0,1-4.329-5.474.972.972,0,0,1,.18-1.268c.461-.423.863-.107,1.246.176a5.753,5.753,0,0,1,.463.386c2.206,2.046,4.392,4.111,6.618,6.134a45.036,45.036,0,0,1,5.318,6.226,2.443,2.443,0,0,0,1.237.9,58.593,58.593,0,0,1,9,3.9c.264.144.563.421.9.039a4.7,4.7,0,0,0-.457-1.694,30.3,30.3,0,0,0-3.627-6.676,3.772,3.772,0,0,1-.78-3.267,5.552,5.552,0,0,1,2.7,1.837,21.95,21.95,0,0,1,4,6.67c.472,1.174,1.283,2.348,1.3,3.533a2.791,2.791,0,0,0,1.832,2.707c2.024-5.1,6.694-5.964,11.574-6.929-5.687-4.52-5.1-10.024-3.388-15.978-1.926-.981-2.2-2.872-1.859-5a8.045,8.045,0,0,1,.235-1.382c.659-1.9-.105-3.367-1.345-4.708a12.384,12.384,0,0,0-4.478-3.3,1.81,1.81,0,0,1-.668-.417,1.5,1.5,0,0,1-.342-1.981c.489-.808,1.173-.584,1.754-.331a10.7,10.7,0,0,1,3.6,2.133c1.064,1.093,2.222,2.095,3.384,3.176a1.76,1.76,0,0,0,.18-2.576c-2.013-2.823-1.408-5.55.137-8.252.66-1.158,1.548-2.182,2.227-3.33a15.368,15.368,0,0,1,5.848-5.871,4.337,4.337,0,0,0,2.314-5.155.783.783,0,0,0-.834-.028,26.454,26.454,0,0,0-2.673,1.371,76.12,76.12,0,0,1-15.117,7.338,3.786,3.786,0,0,1-3.231-.207C87.9,74.1,89.906,73.224,91.822,72.2c4.532-2.43,8.939-5.1,13.451-7.565,1.75-.957,3.363-1.859,3.546-4.131a2.576,2.576,0,0,1,.709-1.195c.606-.738.389-1.274-.236-1.887-1.809-1.779-3.434-3.756-5.619-5.117a11.933,11.933,0,0,1-2.433-2.06c-1.246-1.342-1.37-1.333-2.888-.5C93.5,52.422,88.2,53.756,82.888,55.091c-1.146.288-1.848-.11-2.577-1.187A60.546,60.546,0,0,0,97.7,46.988c-1.586-1.228-2.923-2.324-4.323-3.332-2.057-1.486-4.371-2.609-6.236-4.37-.382-.361-.916-.726-.525-1.34a1.055,1.055,0,0,1,1.448-.246c3.473,1.679,7.1,3.088,10.087,5.642.893.765,1.8,1.511,2.717,2.276.142-.243.285-.378.258-.453-1.245-3.669-1.549-7.573-2.834-11.23a2.672,2.672,0,0,1-.163-2.3c.337-.672.615-.81,1.169-.3a7.693,7.693,0,0,1,2.338,3.618,42.3,42.3,0,0,0,1.835,5.512,18.061,18.061,0,0,1,1.583,7.977c-.017.664.043,1.3.54,1.622.932.616,1.6,1.59,2.8,2.118a28.685,28.685,0,0,0,2.269-6.034,7.347,7.347,0,0,1,.513-2.338c1.545-2.639,2.179-5.583,3.032-8.456.4-1.336.382-1.34,2.2-1.206a37.49,37.49,0,0,1-1.494,7.838,15.15,15.15,0,0,0-1.047,4.46,20.658,20.658,0,0,1-.921,5.919,8.435,8.435,0,0,0-.637,3.192,34.054,34.054,0,0,1,4.641-3.187,9.99,9.99,0,0,1,4.7-1.519,13.458,13.458,0,0,0,3.733-.642c4.3-1.642,8.53-1.12,12.737.248,3.646,1.184,7.3,2.189,11.2,1.642,1.507-.21,1.688-.348,1.324-1.762a34.139,34.139,0,0,0-2.306-7.233c-.487-.949-.861-1.956-1.336-2.914-.173-.349-.236-.692.053-.9,1.033-.731.492-1.814.676-2.732Zm92.353,43.273a.431.431,0,0,0,.326.579c.091.026.3-.049.313-.114a.449.449,0,0,0-.326-.587c-.108.038-.292.055-.313.122" transform="translate(-16.418 -12.551)" fill="#fff" fill-rule="evenodd"/>
    <path id="パス_3459" data-name="パス 3459" d="M7.674,128.657a5.887,5.887,0,0,0-3.009-5.53,5.294,5.294,0,0,1,2.755-.8,6.711,6.711,0,0,0,2.545-1.08c1.189-.75,1.3-1.7.436-2.866-1.27-1.711-1.24-1.921.713-2.945a14.493,14.493,0,0,1,5.4-1.369c3.681-.361,7.12-1.584,10.637-2.6,2.527-.732,5-1.847,7.767-1.7,4.293.229,8.126,1.413,11.1,4.7.091.1.168.208.256.308.446.5.9,1.11,1.67.776a1.5,1.5,0,0,0,.835-1.86,2.316,2.316,0,0,1,.4-2.342,1.918,1.918,0,0,0,.115-2.237,11.89,11.89,0,0,1-1-6.068c.026-.782.348-1.068,1.142-.857,4.207,1.118,8.111,2.681,10.458,6.712.81,1.391,1.746,1.352,2.411-.139a21.444,21.444,0,0,0,1.823-6.636,8.247,8.247,0,0,1,4.55,2.4c.338.322.628.7.973,1.012.47.426.954.749,1.542.114.491-.532.816-1.012.33-1.755a10.086,10.086,0,0,0-8.556-4.744c-1.152-.04-1.38.192-1.237,1.47a9.974,9.974,0,0,1-.392,4.351c-.063.187-.161.363-.264.587-.189-.063-.447-.066-.524-.186a11.855,11.855,0,0,0-6.219-4.49c-.686-.258-1.356-.566-2.019-.883-.234-.112-.629-.4-.6-.466.484-1.246-.768-1.509-1.245-2.16a11.406,11.406,0,0,1-2.079-5.744c1.718,1.452,3.58,1.039,5.24.609,4.334-1.12,8.625-2.484,12.046-5.58,1.622-1.468,3.285-2.9,4.772-4.52a2.865,2.865,0,0,0,.8-2.167,1.783,1.783,0,0,0-2.227-1.854,15.852,15.852,0,0,0-4.207,1.251,22.039,22.039,0,0,1-6.241,2.1,3.49,3.49,0,0,0-.938.326.807.807,0,0,0-.445.824.849.849,0,0,0,.665.884,4.5,4.5,0,0,0,2.741-.273c1.994-.756,4.005-1.464,6.017-2.172.415-.145.847-.464,1.34-.054-.141,1.03-1.088,1.4-1.688,2.073C63.156,86.562,59,88.166,54.741,89.6a1.748,1.748,0,0,1-.978.164c-2.053-.718-4.276-.167-6.328-.891a1.965,1.965,0,0,0-2.25.331,1.74,1.74,0,0,0,.029,2.231c.462.728.258,1.567.419,2.345a15.389,15.389,0,0,0,2.105,5.333c-2.04.289-2.167,1.671-2.177,3.167a31.022,31.022,0,0,0,1.046,8.43,25.209,25.209,0,0,0-4.183-2.236,18.741,18.741,0,0,0-13.695-.308,83.23,83.23,0,0,1-10,2.91,4.827,4.827,0,0,1-.98.169,17.2,17.2,0,0,0-7.231,2.174,21.421,21.421,0,0,1-3.575,1.779c-1.1.319-1.181.977-.628,2.014.473.889,1.383,1.419,1.954,2.294a3.6,3.6,0,0,1-2.66.886c-1.279-.013-2.51.366-3.784.267a1.473,1.473,0,0,0-1.742,1.013,2.218,2.218,0,0,0,.943,2.436c.56.359,1.171.635,1.74.98a7.311,7.311,0,0,1,2.745,2.872c.57,1.111,1.2,1.237,2.179.706Z" transform="translate(0 -31.584)" fill="#fff" fill-rule="evenodd"/>
    <path id="パス_3460" data-name="パス 3460" d="M106.341,13.441a4.091,4.091,0,0,1-2.778-1.567,110.929,110.929,0,0,0-7.8-9.122C93.886.7,91.425.651,88.9,1.044a3.948,3.948,0,0,0-1.355.344,7.772,7.772,0,0,1-7.056.8c-1.045-.4-2.1.288-3.047.725a1.5,1.5,0,0,0-.31,2.577,4.5,4.5,0,0,1,1.2,4.04c-.113.759-.562,1.71.483,2.092.986.361,1.312-.706,1.846-1.224a2.967,2.967,0,0,0,.611-1.667,12.413,12.413,0,0,0-.021-3.266A12.852,12.852,0,0,0,87.31,3.706a4.731,4.731,0,0,1,3.709-.169,6.816,6.816,0,0,1,3.316,2.113c2.13,2.66,4.447,5.169,6.6,7.815,1.6,1.976,3.878,2.361,6.089,2.471,1.83.092,2.886-1.8,2.317-3.61-1-3.2-2.19-6.319-4.526-8.85a1.615,1.615,0,0,1-.607-1.139,2.982,2.982,0,0,1,2,.456c3.818,1.995,7.132,4.41,8.258,8.97.676,2.736,2.55,4.819,4.563,6.718,1.55,1.463,3.314,2.691,4.724,4.31a1.563,1.563,0,0,0,1.834.4,1.86,1.86,0,0,0,1.064-1.588,23.816,23.816,0,0,0,.019-6.991,21.313,21.313,0,0,0-2.976-8.646,6.315,6.315,0,0,1-1.05-2.372,18.187,18.187,0,0,1,5.564,1.7,4.746,4.746,0,0,0,1.466.576c1.179.252,1.335-.73,1.653-1.369.334-.674-.21-1.136-.8-1.382A21.434,21.434,0,0,0,121.357,1.3c-1.1.043-1.646,1.026-2.374,1.66-.3.263-.174.731.054,1.114.818,1.374,1.585,2.779,2.421,4.142,1.968,3.21,2.575,6.754,2.863,10.789-3.6-2.572-6.121-5.522-7.3-9.395C115.453,4.446,111.807,1.8,106.833.494A9.412,9.412,0,0,0,101.9.225,3.654,3.654,0,0,0,100.42.8c-.865.7-.909,1.1-.164,1.935a33.675,33.675,0,0,1,4.9,7.039,10.98,10.98,0,0,1,1.185,3.671" transform="translate(-30.964 0)" fill="#fff" fill-rule="evenodd"/>
    <path id="パス_3461" data-name="パス 3461" d="M283.954,101.9c-.316-.781.169-1.268.936-1.45s1.492-.244,1.659.826c.066.422-.085,1.061.627,1.021a1.36,1.36,0,0,0,1.087-.785,3.692,3.692,0,0,0,.321-2.727,1.322,1.322,0,0,1,.785-1.629,1.43,1.43,0,0,1,1.814.3,3.788,3.788,0,0,1,.943,4.036c-1.237,2.517-2.955,4.594-5.818,5.373a.766.766,0,0,0-.691.788,13.4,13.4,0,0,1-1.771,5.075c-3.189,6.019-6.47,11.989-9.663,18.006a104.238,104.238,0,0,0-4.545,9.6c-.437,1.076-.286,2.333-.826,3.285a24.5,24.5,0,0,0-2.011,6.055c-.53,2-1.255,3.945-1.6,6a1.706,1.706,0,0,1-2.178,1.211c-.847-.479-.708-1.141-.261-1.866a2.4,2.4,0,0,0-.055-2.448c-.981.414-1.184,1.351-1.665,2.031a3.728,3.728,0,0,1-2.237,1.569c-.878.207-1.521-.531-1.1-1.263a12.719,12.719,0,0,1,2.268-3.26,3.98,3.98,0,0,0,1.187-2.182,55.082,55.082,0,0,1,3.081-9.308,41.747,41.747,0,0,0,2.157-4.948,55.018,55.018,0,0,1,3.642-9.1,144.1,144.1,0,0,1,9.984-15.459c1.625-2.213,1.642-2.2.545-4.545-.389-.834-.717-1.548-1.922-.853-.791.455-3.085-1.207-3.1-2.088a1.25,1.25,0,0,1,.164-.562c.216-.415.443-.827.7-1.219a2.409,2.409,0,0,1,4.124.032,24.7,24.7,0,0,1,2.982,4.843,4.872,4.872,0,0,0,.436-4.362m-3.621,12.908c-3.869,3.2-11.811,18.7-12.053,23.441,3.471-8.094,7.917-15.688,12.053-23.441m-13.756,26.258c-1.175.9-2.683,5.439-2.774,8.4,1.1-2.692,2.383-5.326,2.774-8.4" transform="translate(-104.187 -39.216)" fill="#fff" fill-rule="evenodd"/>
    <path id="パス_3462" data-name="パス 3462" d="M73.046,45.967a33.376,33.376,0,0,0,6.491,2.038c4.447.788,8.5.023,11.986-2.992,1.113-.963,1.1-1.748.114-2.829a5.961,5.961,0,0,0-3.883-1.865,15.26,15.26,0,0,1-9.214-4.812,9.374,9.374,0,0,1-2.706-7.862c.127-1.124.433-2.23.536-3.355.068-.747.323-1.745-.813-1.963-1-.192-1.494.52-1.646,1.372-.447,2.493-1.2,4.969-1.021,7.524a10.164,10.164,0,0,0,5.018,8.011,17.5,17.5,0,0,0,8.069,3.18,5.456,5.456,0,0,1,1.89.633c.431.216,1.166.28,1.084.989-.068.587-.683.852-1.134,1.018a11.844,11.844,0,0,1-6.71.536,29.42,29.42,0,0,1-6.477-2.047c-1.005-.485-1.771-.233-2.825.515-1.829,1.3-1.9,2.8-1.677,4.671a16.009,16.009,0,0,1-.2,4.793,12.474,12.474,0,0,0,.1,5.372c.264,1.052.791,1.742,1.95,1.5.8-.168,1.21.426,1.8.671a9.466,9.466,0,0,0,7.182.216c.728-.276,1.76-.761,1.53-1.59-.306-1.108-1.405-.393-2.08-.267a7.731,7.731,0,0,1-6.923-1.689,1.847,1.847,0,0,1-.765-1.281,6.076,6.076,0,0,1-.068-1.991,17.316,17.316,0,0,0,.216-7.742c-.04-.168.083-.373.179-.754" transform="translate(-28.186 -9.019)" fill="#fff" fill-rule="evenodd"/>
    <path id="パス_3463" data-name="パス 3463" d="M340.1,29.606a4.271,4.271,0,0,0,2.69-1.66,15.747,15.747,0,0,0,2-3.237,17.316,17.316,0,0,1,3.6-5.029,25.044,25.044,0,0,1,5.819-4.157,1.36,1.36,0,0,1,1.647.144c1.722,1.364,3.664,2.42,5.287,3.94a15.583,15.583,0,0,0,9.255,3.873,6,6,0,0,0,1.574-.23c.521-.087.98.029,1.11.581s-.39.575-.742.735a49.236,49.236,0,0,0-8.164,4.658,23.8,23.8,0,0,0-4.21,4.264c-.727.858-.588,2.02-.85,3.036-.148.571.348,1.113.856,1.491a3.976,3.976,0,0,0,2.839.806,14.139,14.139,0,0,0,4.794-1.382c.453-.226.822-.445.737-1.03a1.177,1.177,0,0,0-1.019-1.081,3.656,3.656,0,0,0-2.15.272,5.278,5.278,0,0,1-2.521.559c-.332-.033-.692-.052-.762-.479a.852.852,0,0,1,.266-.721,22.642,22.642,0,0,1,5.865-4.914c2.278-1.239,4.426-2.74,6.95-3.5a5.561,5.561,0,0,0,.732-.327c1.734-.809,1.752-.836.475-2.4-.286-.35-.2-.771-.389-1.1-.469-.808-1.217-1.441-2.114-1.125a2.48,2.48,0,0,1-2.012-.2,12.1,12.1,0,0,0-3.088-.79c-2.849-.35-4.863-2.124-6.8-3.96a8.932,8.932,0,0,0-1.993-1.61,3.865,3.865,0,0,1-1.1-.853c-.566-.616-.835-1.547-1.891-1.648a7.507,7.507,0,0,0-3.561.353,10.437,10.437,0,0,0-3.284,1.9c-2.1,1.948-4.156,3.948-6.233,5.926a8.817,8.817,0,0,0-1.778,3.053c-.682,1.552-1.284,3.1-3.169,3.575a.922.922,0,0,0-.625,1.284c.272.8.991,1.018,1.961.987" transform="translate(-136.749 -5.042)" fill="#fff" fill-rule="evenodd"/>
    <path id="パス_3464" data-name="パス 3464" d="M63.628,238.28a.907.907,0,0,1,.214.779,13.7,13.7,0,0,1-3.134,7.04c-1.1,1.183-1.626,2.713-2.767,3.826a1.555,1.555,0,0,0-.378.7c-.249.961.643,1.888,1.486,1.407,1.609-.919,2.92-.356,4.333.376a7.986,7.986,0,0,0,4.073.879,71.44,71.44,0,0,0,7.2-.449c2.539-.375,4.94-1.268,6.377-3.674a1.433,1.433,0,0,0,.33-1.114c-.358-.349-.729-.223-1.106-.042-4.106,1.96-8.488,2.258-12.933,2.085a9.442,9.442,0,0,1-4.928-1.647c.683-1.047,1.417-2.007,1.975-3.06a16.354,16.354,0,0,0,1.854-8.911c-.12-1.8-1.067-2.231-2.678-1.375a15.353,15.353,0,0,1-12.788.847,21.022,21.022,0,0,1-3.088-1.4,12.753,12.753,0,0,0-5.841-1.625c.407-.878.721-1.606,1.079-2.311a2.882,2.882,0,0,0,.419-1.112c.04-.621.044-1.249-.621-1.557-.743-.344-1.141.188-1.426.728-.871,1.653-1.706,3.325-2.54,5a2.537,2.537,0,0,0-.217,1.37c.1,1.174.533,1.564,1.669,1.2a6.17,6.17,0,0,1,5.358.6,18.233,18.233,0,0,0,3.3,1.457c4.727,1.662,9.476,2.27,14.241.115a2.64,2.64,0,0,1,.543-.124" transform="translate(-15.576 -92.158)" fill="#fff" fill-rule="evenodd"/>
    <path id="パス_3465" data-name="パス 3465" d="M329.266,9.923c-3.319,1.8-5.394,4.33-7.463,6.851a9.737,9.737,0,0,0-2.228,4.647,2.162,2.162,0,0,0,.317,1.9,1.819,1.819,0,0,0,1.3.848c.775,0,.675-.728.827-1.182a20.784,20.784,0,0,1,8-10.47,20.023,20.023,0,0,0,2.678-2.41c.79-.809.711-1.5-.173-2.183a2.912,2.912,0,0,0-1.627-.7c-4.6-.277-9.19-.82-13.807-.473a10.22,10.22,0,0,0-7.566,3.893c-2.037,2.5-3.684,5.061-3.908,8.359a3.545,3.545,0,0,1-.394,1.128c-.165.369-.383.744-.88.628-.427-.1-.351-.5-.4-.819a10.545,10.545,0,0,0-.225-1.379c-.134-.444-.35-.914-.927-.913a1.422,1.422,0,0,0-1.438.885,3.484,3.484,0,0,0,1.731,4.568c1.458.818,3,.351,4.147-1.175a8.228,8.228,0,0,0,1.09-2.99c.3-1.1.648-2.175.989-3.258a13.094,13.094,0,0,1,3.769-5.279,2.5,2.5,0,0,1,1.659-.59c3.508-.351,7.005-.967,10.549-.346,1.152.2,2.375-.215,3.976.459" transform="translate(-121.775 -2.686)" fill="#fff" fill-rule="evenodd"/>
    <path id="パス_3466" data-name="パス 3466" d="M434.035,176.037c-.278-1.243-.254-1.275-4.972-4.771-1.928-1.427-3.984-2.683-5.983-4.016-1.982-1.32-4.276-2.048-6.631-3.218a9.906,9.906,0,0,1,3.578-.835c2.047-.295,4.1-.527,6.152-.805a24.451,24.451,0,0,1,9.157.41c1.651.4,2.418-.359,1.978-1.829-.189-.631-.594-.747-1.181-.833a31.866,31.866,0,0,0-10.97-.022,1.672,1.672,0,0,1-.486-.089,7.254,7.254,0,0,1,2.891-3.857,43.641,43.641,0,0,1,7.087-4.514,4.443,4.443,0,0,0,1.464-1.032.851.851,0,0,0,.07-1.1.724.724,0,0,0-.915-.157,32.2,32.2,0,0,0-3.127,1.336,46.662,46.662,0,0,0-6.272,3.955,9.529,9.529,0,0,0-2.283,2.512c-.4.622-.871,1.374-.525,2.059.666,1.32-.179,1.3-1.018,1.368a38.684,38.684,0,0,0-9.754,2.206,8.535,8.535,0,0,1-3.173.339,4.518,4.518,0,0,0-2.517.516c-.505.3-1.046.8-.772,1.463s.909.655,1.557.5c1.494-.351,2.992-.675,4.5-.987.456-.095.928-.108,1.391-.171.689-.091,1.2.008,1.17.89-.032.913.583,1.284,1.348,1.492,4.325,1.168,8,3.637,11.811,5.85,1.784,1.036,3.552,2.1,5.349,3.116.3.171.639.563,1.08.226" transform="translate(-164.128 -60.381)" fill="#fff" fill-rule="evenodd"/>
    <path id="パス_3467" data-name="パス 3467" d="M200.227,27.172A29.59,29.59,0,0,0,190.7,16.079c-1.369-1.02-4.135.068-4.541,1.839-.887,3.862-3.364,6.613-6.129,9.19A6.857,6.857,0,0,1,178.7,28c-1.045.587-1.457.43-1.628-.718a14.987,14.987,0,0,1,.347-5.174,16.543,16.543,0,0,0-1.441-11.078,7.752,7.752,0,0,0-2.918-2.975,1.837,1.837,0,0,0-1.906-.1.98.98,0,0,0-.525,1.486,5.1,5.1,0,0,0,1.016,1.224,9.49,9.49,0,0,1,2.943,5.779,17.045,17.045,0,0,1-.283,7.752,11.045,11.045,0,0,0,.121,5.163,2.184,2.184,0,0,0,3.215,1.452c5.024-2.255,8.217-6.236,10.471-11.092.648-1.4.668-1.495,1.951-.471a44.845,44.845,0,0,1,5.21,4.969c.71.784,1.305,1.669,1.953,2.509,1.168,1.513,1.449,1.551,3.017.413l-.023.03" transform="translate(-68.952 -3.13)" fill="#fff" fill-rule="evenodd"/>
    <path id="パス_3468" data-name="パス 3468" d="M443.871,130.733c-1.05-.327-2.37.211-3.711.051a1.158,1.158,0,0,0-1.424,1.275c.118.967.815,1.071,1.622,1.068a28.011,28.011,0,0,1,9.63,1.4,39.5,39.5,0,0,1,9.068,5.036,93.53,93.53,0,0,1,7.721,6.062,12.76,12.76,0,0,0,3.5,2.322c1.284.511,2.263.048,2.509-1.074.165-.755.046-1.33-.8-1.547a5.3,5.3,0,0,1-2.041-1.234,98.786,98.786,0,0,0-10.066-7.593c-3.686-2.354-7.379-4.858-11.943-5.377-1.261-.145-2.52-.269-4.06-.388" transform="translate(-177.463 -52.838)" fill="#fff" fill-rule="evenodd"/>
    <path id="パス_3469" data-name="パス 3469" d="M289.837,8.631a21.078,21.078,0,0,0-.391,3.6,3,3,0,0,0,1.161,2.222,1.2,1.2,0,0,0,1.318.14.785.785,0,0,0,.482-.987c-.811-2.471.5-4.556,1.233-6.727a5.554,5.554,0,0,0,.2-2.755c-.143-.871-.68-1.126-1.444-.682a17.509,17.509,0,0,0-1.765,1.3,21.025,21.025,0,0,1-6.609,3.614,14.15,14.15,0,0,0-6.79,4.72,19.786,19.786,0,0,0-3.424,6.041,12.623,12.623,0,0,0-.42,3.549,2.067,2.067,0,0,0,.983,1.672c.684.542,1.2.329,1.388-.544a29.762,29.762,0,0,1,.74-3.513,15.56,15.56,0,0,1,9.941-10.221c1.123-.389,2.06-1.2,3.4-1.433" transform="translate(-110.582 -1.306)" fill="#fff" fill-rule="evenodd"/>
    <path id="パス_3470" data-name="パス 3470" d="M8.43,163.012c-.763.965-1.176,1.938-.235,3.056.557.659.2,1.073-.471,1.356a2.9,2.9,0,0,1-1.573.162c-.84-.119-1.489.051-1.46,1.091-.289-.1-.466-.107-.509-.188-.416-.775-.955-1.346-1.907-.949-.652.274-.54,1.23,0,2.308a9.622,9.622,0,0,0,5.611,4.818c1.5.549,2.693,1.726,4.272,2.128a.772.772,0,0,1,.582.915c-.008.133.011.27-.005.4-.629,4.872,2.493,7.409,6.074,9.576,1.353.819,1.932.515,2.916-.57.671-.738.548-1.154-.3-1.451a13.392,13.392,0,0,1-3.923-2.344,29.9,29.9,0,0,1-2.351-2.7c-.469-.47-.233-1.125-.208-1.725a13.285,13.285,0,0,0,.053-2.726c-.351-2.3-2.207-2.678-3.768-3.149a14.645,14.645,0,0,1-5.567-2.549.849.849,0,0,1-.4-.98c.611.171,1.223.36,1.844.513a3.258,3.258,0,0,0,3.98-2.165c.569-1.284.078-2.569-1.234-3.649-.48-.394-1.333-.351-1.442-1.184a.07.07,0,0,1,.023,0" transform="translate(-0.739 -65.937)" fill="#fff" fill-rule="evenodd"/>
    <path id="パス_3471" data-name="パス 3471" d="M463.755,190.885a12.908,12.908,0,0,0,6.19-2.5,19.1,19.1,0,0,0,6.845-11,18.7,18.7,0,0,1,3.883-8.276c.416-.5,1.058-1.077.428-1.732-.572-.591-1.277-.453-1.99.041a10.283,10.283,0,0,0-3.407,4.345,26.474,26.474,0,0,0-1.885,5.476c-.868,4.028-3.423,7.038-6.486,9.612a9.278,9.278,0,0,1-4.082,1.566c-.651.147-1.617-.046-1.641,1.061-.018.8.8,1.378,2.146,1.408" transform="translate(-186.719 -67.546)" fill="#fff" fill-rule="evenodd"/>
    <path id="パス_3472" data-name="パス 3472" d="M281.753,200.247c1.887-.444,3.254.294,4.687.426a16.821,16.821,0,0,1,7.847,3.257,8.425,8.425,0,0,1,2.243,1.973c.339.464.736.9,1.3.393.526-.471.84-1.118.265-1.753a12.273,12.273,0,0,0-1.767-1.619,38.17,38.17,0,0,0-9.246-5.119,7.535,7.535,0,0,0-3.128-.541,2.7,2.7,0,0,0-1.977.811,12.367,12.367,0,0,1-2.913,2.842c-.578.35-.389,1.319.281,1.623,2.045.922,3.48,2.667,5.3,3.9a5.944,5.944,0,0,1,1.818,3.243,6.37,6.37,0,0,0,.685,1.644.664.664,0,0,0,1.229-.17,2.825,2.825,0,0,0-.141-2.276,21.224,21.224,0,0,0-6.481-8.631" transform="translate(-112.74 -79.789)" fill="#fff" fill-rule="evenodd"/>
    <path id="パス_3473" data-name="パス 3473" d="M403.6,42.288c-1.591.4-3.341.161-5.052.627-2.114.575-3.753,1.969-5.672,2.866a1.692,1.692,0,0,0-.883,1.68c.008,1.278.691,1.713,1.8,1.071,1.382-.8,2.721-1.675,4.084-2.509a11.1,11.1,0,0,1,4.375-1.259c2.393-.345,4.131.9,5.6,2.488a12.276,12.276,0,0,0,5.273,3.1c.675.233,1.571.506,1.919-.35.312-.769-.288-1.374-1-1.739-.592-.307-1.186-.612-1.795-.883a7.85,7.85,0,0,1-2.9-2.057,13.6,13.6,0,0,0-3.9-2.763,3.552,3.552,0,0,0-1.857-.275" transform="translate(-158.559 -17.104)" fill="#fff" fill-rule="evenodd"/>
    <path id="パス_3474" data-name="パス 3474" d="M256.032,213.374c.409,2.334.12,5.056,1.264,7.568.45.99.821,1.315,1.725,1.048a1.479,1.479,0,0,0,.877-2.059,7.8,7.8,0,0,1-1.093-2.776c-.35-3.948.121-7.716,2.811-10.891.519-.613.852-1.282.254-1.965a1.481,1.481,0,0,0-2.014-.04,5.816,5.816,0,0,0-2.457,2.825,19.089,19.089,0,0,0-1.365,6.289" transform="translate(-103.564 -82.469)" fill="#fff" fill-rule="evenodd"/>
    <path id="パス_3475" data-name="パス 3475" d="M240.226,132.892c1.43.013,2.223-.971,1.739-2.1-1.485-3.473-2.543-7.116-4.778-10.287a23.175,23.175,0,0,0-3.557-4.493c-.248-.216-.512-.5-.863-.283s-.226.575-.149.9a12.612,12.612,0,0,0,1.388,3.523,52.309,52.309,0,0,1,4.619,11.238c.293.955.719,1.557,1.6,1.5" transform="translate(-94.061 -46.78)" fill="#fff" fill-rule="evenodd"/>
    <path id="パス_3476" data-name="パス 3476" d="M44.973,209.366c-.927,1.551-1.947,2.688-2.685,4.018a2.91,2.91,0,0,0-.266,2.269.983.983,0,0,0,1.773.5,3.854,3.854,0,0,0,.78-1.152,13.675,13.675,0,0,1,3.469-4.334,4.469,4.469,0,0,0,1.283-1.973c.3-.99-.118-1.667-1.141-1.588-3.067.237-5.529-1.191-7.979-2.7-.666-.409-1.3-.819-1.887.042-.556.809-.057,1.462.523,1.9a15.747,15.747,0,0,0,6.13,3.013" transform="translate(-15.403 -82.497)" fill="#fff" fill-rule="evenodd"/>
    <path id="パス_3477" data-name="パス 3477" d="M396.539,81.7c1-.1,2.06.189,2.881-.588.352-.335,1.1-.49.865-1.176-.2-.6-.8-.671-1.353-.55a10.814,10.814,0,0,1-2.785-.065,6.452,6.452,0,0,1-4.276-1.935,28.044,28.044,0,0,1-2.936-3.258,24.8,24.8,0,0,0-3.5-3.253,1.278,1.278,0,0,0-1.819.013,1.071,1.071,0,0,0,.207,1.6c2.1,1.6,3.094,4.132,5.076,5.857a12.286,12.286,0,0,0,7.643,3.353" transform="translate(-155.059 -28.517)" fill="#fff" fill-rule="evenodd"/>
    <path id="パス_3478" data-name="パス 3478" d="M425.845,56.971c-1.124-1.129-2.007-.32-2.668.135a17.436,17.436,0,0,0-5.509,5.694,27.672,27.672,0,0,0-2.144,4.715,11.368,11.368,0,0,1-2.29,4.387,1.012,1.012,0,0,0-.177,1.29c.344.492.867.269,1.277.1a4.118,4.118,0,0,0,2.381-2.287,35.219,35.219,0,0,0,1.544-3.893,16.114,16.114,0,0,1,4.777-7.476c.91-.867,1.82-1.73,2.809-2.667" transform="translate(-167.015 -22.812)" fill="#fff" fill-rule="evenodd"/>
    <path id="パス_3479" data-name="パス 3479" d="M229.6,162.333c.507-1.011-.077-1.456-.449-1.988-2.614-3.736-6.153-6.426-9.928-8.863a37.008,37.008,0,0,0-7.629-3.917A1.59,1.59,0,0,0,209.32,149c-.073.713.259,1.346,1,1.077,1.968-.714,3.6.288,5.1,1.1a41.277,41.277,0,0,1,11.175,8.31c.888.969,1.907,1.817,3,2.852" transform="translate(-84.665 -59.636)" fill="#fff" fill-rule="evenodd"/>
    <path id="パス_3480" data-name="パス 3480" d="M305.346,174.79a4.47,4.47,0,0,1-.8-.007c-4.329-.783-7.692,1.3-10.933,3.7a1.878,1.878,0,0,0-.821,2.1c.338,1.31,1.206,1.623,2.126.628a12.466,12.466,0,0,1,5.73-3.509,39.932,39.932,0,0,1,5.321-.868c.743-.11,1.745.157,1.812-1.011.043-.749-.728-1.113-2.035-1.1-.133,0-.266.018-.4.027Z" transform="translate(-118.405 -70.631)" fill="#fff" fill-rule="evenodd"/>
    <path id="パス_3481" data-name="パス 3481" d="M233.641,190.532a25.85,25.85,0,0,0-6.944,2.417,7.9,7.9,0,0,0-2.826,1.842.892.892,0,0,1-1.045.294c-.931-.192-1.342.385-1.424,1.227-.076.777.487,1.252,1.1.837,1.309-.875,3-.9,4.194-2.048a1.421,1.421,0,0,1,2.138-.2,1.472,1.472,0,0,0,1.712-.023,11.675,11.675,0,0,1,5.4-1.295c.717,0,1.411-.219,1.558-.968s-.459-1.2-1.095-1.5a7.97,7.97,0,0,0-2.77-.583" transform="translate(-89.553 -77.07)" fill="#fff" fill-rule="evenodd"/>
    <path id="パス_3482" data-name="パス 3482" d="M260.391,159.4c-1.054-2.454-1.938-5.277-3.879-7.568a23.755,23.755,0,0,0-3.426-3.363,1.527,1.527,0,0,0-1.844-.27c-.445.263-1.032.5-1.09,1.088s.538.675.925.906c3.811,2.268,5.734,5.829,6.817,9.962.182.7.126,1.572,1.221,1.452.815-.089,1.423-1.03,1.276-2.206" transform="translate(-101.185 -59.862)" fill="#fff" fill-rule="evenodd"/>
    <path id="パス_3483" data-name="パス 3483" d="M288.542,192.17a19.6,19.6,0,0,1,3.184.372,39,39,0,0,0,4.778.536,8.176,8.176,0,0,1,4.509,1.489c.647.459,1.146.715,1.661-.065.528-.8.332-1.47-.649-1.906a24.934,24.934,0,0,0-4.55-1.551,58.379,58.379,0,0,0-6.487-1.284,4.965,4.965,0,0,0-3.671.607c-.483.35-1.026.8-.77,1.483.247.66.868.454,1.4.363.2-.032.4-.03.6-.044" transform="translate(-115.881 -76.723)" fill="#fff" fill-rule="evenodd"/>
    <path id="パス_3484" data-name="パス 3484" d="M392.884,89.694c.211-.66-.266-.989-.661-1.328a9.861,9.861,0,0,0-4.288-2.045c-2.735-.625-5.006-1.767-5.99-4.647-.279-.816-1.106-.913-1.828-.983-.438-.042-.706.323-.8.75A2.1,2.1,0,0,0,379.536,83a10.987,10.987,0,0,0,4.589,4.6,16.622,16.622,0,0,0,4.945,1.5c1.281.146,2.424,1.176,3.814.593" transform="translate(-153.411 -32.638)" fill="#fff" fill-rule="evenodd"/>
    <path id="パス_3485" data-name="パス 3485" d="M222.389,176.569a16.233,16.233,0,0,0-4.881.786c-.476.157-.868.426-.69,1.018.157.519.6.429.994.381a21.843,21.843,0,0,1,6.374.02,23.731,23.731,0,0,1,6,2.135c1.156.535,1.672.6,2.007-.085a2.151,2.151,0,0,0-.751-2.461,4.96,4.96,0,0,0-.94-.341,34.785,34.785,0,0,0-8.116-1.452" transform="translate(-87.685 -71.422)" fill="#fff" fill-rule="evenodd"/>
    <path id="パス_3486" data-name="パス 3486" d="M244.971,160.755a.656.656,0,0,0,.629-.647,3.513,3.513,0,0,0-.42-1.731,28.243,28.243,0,0,0-8.132-11.46c-.6-.529-1.22-1.036-1.8-1.58-.477-.443-.978-.777-1.582-.3-.521.408-1.056.892-.932,1.647.12.726.658.869,1.348.863,1.66-.015,2.611,1.313,3.6,2.281a23.878,23.878,0,0,1,6.576,9.854c.336,1.07.4,1.052.713,1.076" transform="translate(-94.131 -58.573)" fill="#fff" fill-rule="evenodd"/>
    <path id="パス_3487" data-name="パス 3487" d="M298.063,158.387a.959.959,0,0,0-.265.066c-3.277,1.407-6.72,2.558-8.822,5.768-.4.61-.888,1.165-1.275,1.783a1.437,1.437,0,0,0,.119,2c.719.607,1.364.008,1.983-.359.437-.26.518-.753.745-1.152a11.721,11.721,0,0,1,6.09-5.486A5.408,5.408,0,0,0,298.7,159.5a.67.67,0,0,0-.638-1.112" transform="translate(-116.233 -64.064)" fill="#fff" fill-rule="evenodd"/>
    <path id="パス_3488" data-name="パス 3488" d="M408.018,195.82c.081.489.247.859.825.978a13.154,13.154,0,0,1,7.281,4.653c.326.37.626,1.011,1.285.656a1.412,1.412,0,0,0,.694-1.72,4.682,4.682,0,0,0-1.2-2.052,19.119,19.119,0,0,0-5.6-3.827,4.608,4.608,0,0,0-1.542-.394,1.548,1.548,0,0,0-1.742,1.7" transform="translate(-165.041 -78.516)" fill="#fff" fill-rule="evenodd"/>
    <path id="パス_3489" data-name="パス 3489" d="M420.413,148.731a5.293,5.293,0,0,0-2.2,1.074,19.08,19.08,0,0,0-7.7,9.653c-.221.638-.568,1.61.254,1.941.925.373,1.408-.475,1.695-1.268,1.337-3.714,3.967-6.419,6.929-8.85.818-.671,1.447-1.322,1.024-2.548" transform="translate(-165.943 -60.161)" fill="#fff" fill-rule="evenodd"/>
    <path id="パス_3490" data-name="パス 3490" d="M245.758,197.932c-2.146.006-5.652,2.353-6.365,4.32-.3.834-.953,1.44-1.226,2.264-.358,1.084.055,1.523,1.175,1.326a2.11,2.11,0,0,0,1.569-1.129c1.049-2.112,2.892-3.235,4.919-4.164.181-.082.36-.173.539-.263.6-.3,1.33-.559,1.094-1.419-.242-.88-1.061-.881-1.7-.934" transform="translate(-96.287 -80.063)" fill="#fff" fill-rule="evenodd"/>
    <path id="パス_3491" data-name="パス 3491" d="M272.185,138.01c-.02.776.3,1.2.881,1.295a1.575,1.575,0,0,0,1.713-.759,4.764,4.764,0,0,0,.332-1.142,16.05,16.05,0,0,1,2.869-6.3c.208-.252.441-.53.276-.89-.2-.435-.6-.465-1.015-.449a2.63,2.63,0,0,0-1.757.833c-1.4,1.328-3.318,5.692-3.3,7.407" transform="translate(-110.098 -52.49)" fill="#fff" fill-rule="evenodd"/>
    <path id="パス_3492" data-name="パス 3492" d="M308.3,119.815a4.125,4.125,0,0,1,2.082.123,2.4,2.4,0,0,0,2.388-.67c.563-.509,1.068-1.111.756-1.906a1.909,1.909,0,0,0-1.786-1.069,2.22,2.22,0,0,0-.794.054c-1.533.434-3.024,1.013-4.6,1.317-.529.1-1.047.417-.962,1.075a1.169,1.169,0,0,0,1.044,1.06,16.572,16.572,0,0,0,1.871.016" transform="translate(-123.523 -47.035)" fill="#fff" fill-rule="evenodd"/>
    <path id="パス_3493" data-name="パス 3493" d="M277.623,214.417a10.493,10.493,0,0,0-.9-4.69,3.118,3.118,0,0,0-.822-1.347.749.749,0,0,0-.891-.23.665.665,0,0,0-.36.656,6.351,6.351,0,0,0,.2,1.57,10.2,10.2,0,0,1,.239,6.262,4.389,4.389,0,0,0-.162.778,1.023,1.023,0,0,0,.43,1.045,1.136,1.136,0,0,0,1.316-.036,1.872,1.872,0,0,0,.95-1.65c-.007-.664,0-1.328,0-2.358" transform="translate(-111.094 -84.167)" fill="#fff" fill-rule="evenodd"/>
    <path id="パス_3494" data-name="パス 3494" d="M315.326,109.915a3.343,3.343,0,0,1,2.3.032,3.816,3.816,0,0,0,1.973-.141c1.08-.275,1.574-.947,1.386-1.819-.287-1.335-1.079-1.957-2.256-1.619-1.406.4-2.705,1.137-4.158,1.424-.724.144-1.312.513-1.167,1.339.134.762.915.637,1.463.8a1.573,1.573,0,0,0,.46-.016" transform="translate(-126.762 -42.989)" fill="#fff" fill-rule="evenodd"/>
    <path id="パス_3495" data-name="パス 3495" d="M302.9,91.932a2.409,2.409,0,0,0-2.481-2.423,2.442,2.442,0,0,0-2.389,2.423c.03.308.258.868.364.859,1.653-.115,1.122,2.162,2.53,2.271.641.049,1.212-.022,1.4-.769.213-.831.406-1.668.573-2.361" transform="translate(-120.548 -36.206)" fill="#fff" fill-rule="evenodd"/>
    <path id="パス_3496" data-name="パス 3496" d="M320.174,100.171c.967.221,1.2-1.012,2.062-1.014.777,0,1.566.283,2.316-.254.567-.407.86-.834.5-1.486a5.966,5.966,0,0,0-.876-1.315c-1.3-1.345-2.945-1.055-3.616.7-.224.585-.347,1.128-.969,1.374-.6.241-1.152.66-.956,1.305s.984.538,1.535.691" transform="translate(-128.872 -38.532)" fill="#fff" fill-rule="evenodd"/>
    <path id="パス_3497" data-name="パス 3497" d="M313.41,87.339c-1.958,0-2.263.42-1.793,2.39.122.513.168,1.043.269,1.561.187.968.856,1.235,1.75,1.223.921-.01,1.068-.651,1.109-1.335a5.974,5.974,0,0,1,.585-2.077c.545-1.235.261-1.636-1.127-1.76-.262-.023-.529,0-.793,0" transform="translate(-125.97 -35.325)" fill="#fff" fill-rule="evenodd"/>
    <path id="パス_3498" data-name="パス 3498" d="M377.648,75.131a2.243,2.243,0,0,1,1.2-2.309c.323-.221.788-.4.6-.9-.154-.414-.291-.857-.867-.994a3.693,3.693,0,0,0-3.321,1.446,3.018,3.018,0,0,0,.347,3.362,1.639,1.639,0,0,0,.448.393c.481.213.976.5,1.507.121.45-.322.193-.713.08-1.12" transform="translate(-151.65 -28.672)" fill="#fff" fill-rule="evenodd"/>
    <path id="パス_3499" data-name="パス 3499" d="M323.792,86.965a4.534,4.534,0,0,0,2.973-2.64,1.083,1.083,0,0,0-.46-1.215c-.619-.4-1.37-.807-2.038-.419-.645.373-1.731.757-1.012,1.932a.741.741,0,0,1-.213,1.039c-.311.289-.554.626-.323,1.034s.682.3,1.073.27" transform="translate(-130.501 -33.384)" fill="#fff" fill-rule="evenodd"/>
    <path id="パス_3500" data-name="パス 3500" d="M329.625,196.739A1.476,1.476,0,0,0,330.98,196c.26-.372.288-.747-.164-1.013a6.8,6.8,0,0,0-3.418-1.018,1.388,1.388,0,0,0-1.551,1.259c-.1.847.654.89,1.221,1.018.846.191,1.7.332,2.556.5" transform="translate(-131.801 -78.459)" fill="#fff" fill-rule="evenodd"/>
    <path id="パス_3501" data-name="パス 3501" d="M495.452,161.346c.073.5.192,1.03.914,1.015a1.638,1.638,0,0,0,1.426-1.831.982.982,0,0,0-1.04-.982c-.67-.03-1.325.891-1.3,1.8" transform="translate(-200.409 -64.537)" fill="#fff" fill-rule="evenodd"/>
    <path id="パス_3502" data-name="パス 3502" d="M324.29,175.056c-.833.062-1.769.969-1.667,1.639.094.621.572.636,1.051.6a1.56,1.56,0,0,0,1.548-1.474.781.781,0,0,0-.931-.765" transform="translate(-130.497 -70.808)" fill="#fff" fill-rule="evenodd"/>
    <path id="パス_3503" data-name="パス 3503" d="M272.875,201.962a1,1,0,0,0-1.1.847A1.554,1.554,0,0,0,273,204.366c.728.057.881-.476.938-1.011.079-.737-.149-1.308-1.059-1.393" transform="translate(-109.927 -81.693)" fill="#fff" fill-rule="evenodd"/>
    <path id="パス_3504" data-name="パス 3504" d="M310.563,157.954c.01.529.218.939.8.883s1.2-.229,1.268-.983c.046-.5-.1-.93-.679-1.017a1.361,1.361,0,0,0-1.389,1.117" transform="translate(-125.622 -63.436)" fill="#fff" fill-rule="evenodd"/>
    <path id="パス_3505" data-name="パス 3505" d="M316.382,218.084a.959.959,0,0,0,.675-1.078.826.826,0,0,0-.916-.846c-.5.032-.618.464-.545.9.077.463.194.933.787,1.03" transform="translate(-127.649 -87.435)" fill="#fff" fill-rule="evenodd"/>
  </g>
</svg>
