<svg xmlns="http://www.w3.org/2000/svg" xmlns:xlink="http://www.w3.org/1999/xlink" width="211.291" height="267.628" viewBox="0 0 211.291 267.628">
  <defs>
    <clipPath id="clip-path">
      <rect id="長方形_1314" data-name="長方形 1314" width="211.291" height="267.628" fill="none"/>
    </clipPath>
    <clipPath id="clip-path-2">
      <path id="パス_3968" data-name="パス 3968" d="M117.885,94.173c35.4-11.463,13.961,2.493,13.961,2.493-13.462,5.987,9.729,2.742,9.729,2.742,16.7,0,4.984,4.986,4.984,4.986-11.718,0-4.738,4.738-4.738,4.738a57.906,57.906,0,0,1,7.477,9.977c3.99,11.962-3.988,3.986-3.988,3.986-11.718-11.716-37.894-13.963-37.894-13.963-5.98,14.462,5.982,29.419,5.982,29.419,6.983,6.978,3.993,9.977,3.993,9.977-8.979,0-14.462-14.462-14.462-14.462-6.978-13.462-4.738,13.71-4.738,13.71,0,11.222-4.241,4.237-4.241,4.237-8.223-8.223-4.984-36.9-4.984-36.9,0-10.971-23.931,9.973-23.931,9.973-18.947,12.963-11.967,0-2.992-8.975s-12.963,0-12.963,0C37.112,121.6,40.6,117.61,40.6,117.61,43.1,105.646,71.018,97.168,71.018,97.168c-7.99-5.095-18.873-5.321-28.534-2.995-6.271,1.515-15.711,4.137-18.328,10.165-2.22,5.122,1.208,7.712,1.075,12.782-.16,6.066-6.524,7.845-6.985,13.527-.637,7.866,2.586,7.85,6.621,7.836,2.125-.009,4.48-.016,6.615,1.129,3.76,2.023,1.85,6.111,3.584,9.311,3.272,6.057,14.532,7.267,20.379,4.709,8.4-3.676,8.658-22,16.576-22.565,10.779-.775-2.215,13.864-2.821,16.565-1.685,7.5-.375,16.287,4.65,22.091,6.536,7.559,7.486,3.322,15.878,2.76a20.077,20.077,0,0,1,5.149.648c2.538.528,5.156,1.057,7.439.253,3.128-1.109,5.158-5.379,8.568-6.332,2.967-.827,5.607.558,8.227,1.942,2.552,1.348,5.088,2.7,7.886,2,7.717-1.922,7.47-13.649,6.987-19.677-.752-9.469-2.538-10.6-9.616-15.357-2.229-1.5-10.754-7.364-7.26-10.517,3.317-2.992,22.3,10.727,25.083,12.236,5.727,3.085,13.855,6.637,20.555,4.022,5.664-2.213,6.608-9.758,6.576-15.4,5.467-1.892,14.044-.26,17.744-5.8a9.737,9.737,0,0,0,1.366-5.348V114.9a23.86,23.86,0,0,0-1.558-7.9c-3.141-8.236-16.465-8.744-17.644-16.3-1.025-6.653,6.262-10.237-3.6-14.566a24.645,24.645,0,0,0-9.914-1.863c-14.27,0-32.032,9.074-37.836,19.9" transform="translate(-18.165 -74.271)" fill="none"/>
    </clipPath>
    <radialGradient id="radial-gradient" cx="0.493" cy="0.232" r="1.013" gradientTransform="matrix(0.603, 0, 0, -1, -0.094, 1.94)" gradientUnits="objectBoundingBox">
      <stop offset="0" stop-color="#e57bac"/>
      <stop offset="0.467" stop-color="#d6006c"/>
      <stop offset="0.499" stop-color="#d70870"/>
      <stop offset="0.548" stop-color="#da1e7d"/>
      <stop offset="0.61" stop-color="#e04392"/>
      <stop offset="0.681" stop-color="#e876b0"/>
      <stop offset="0.759" stop-color="#f1b7d5"/>
      <stop offset="0.802" stop-color="#f8dfec"/>
      <stop offset="1" stop-color="#f8dfec"/>
    </radialGradient>
    <clipPath id="clip-path-3">
      <path id="パス_3969" data-name="パス 3969" d="M63.808,95.413c1.94.5,29,4.932,24.13-3.051C86.5,90,80.731,90.388,78.471,90.278,63.065,89.539,38.948,85.248,27,74.474,32.812,85.614,50.1,91.868,63.808,95.413" transform="translate(-26.995 -74.474)" fill="none"/>
    </clipPath>
    <radialGradient id="radial-gradient-2" cx="0.969" cy="0.906" r="4.035" gradientTransform="matrix(0.393, 0, 0, -1, -0.562, 7.687)" xlink:href="#radial-gradient"/>
    <clipPath id="clip-path-4">
      <path id="パス_3970" data-name="パス 3970" d="M77.812,55.054c-4.8.477-6.253,1.987-10.409,3.62a9.719,9.719,0,0,1-5.226.517,12.78,12.78,0,0,0-3.453-.025c-16.167,2.4-6.215,34.473-2.1,43.375,0,0,5.485,12.468,5.485,0,0,0,0-20.442,8.475-28.918,0,0,6.985-3.988,2.992,9.975,0,0-8.473,25.426,2.493,8.972,0,0,17.22-22.057,10.472-4.989,0,0-9.257,9.248-7.979,18.949,2.466-5.111,9.686-6.94,14.528-8.573,7.125-2.394,15.2-4.817,20.885-9.887,5.135-4.575,5.754-9.054.987-14.86-5.944-7.233-18.882-2.432-23.556-8.143-2.084-2.547-.077-6.63-1.868-8.9-.994-1.267-3.15-1.624-5.449-1.624a60.953,60.953,0,0,0-6.283.51" transform="translate(-49.808 -54.544)" fill="none"/>
    </clipPath>
    <radialGradient id="radial-gradient-3" cx="0.253" cy="1.132" r="1.726" gradientTransform="matrix(0.783, 0, 0, -1, -0.295, 4.778)" xlink:href="#radial-gradient"/>
    <clipPath id="clip-path-5">
      <path id="パス_3971" data-name="パス 3971" d="M59.9,56.2s-8.478,9.97-13.965,4.49S28.984,64.18,28.984,76.641s11.468,34.9,40.884,34.9c0,0-18.448-5.483-20.442-13.963,0,0,.748-5.732,6.479,0s18.453,18.453,5.736-3.986c0,0-4.736-19.446,4.239-2.493,0,0,2.493,7.482,12.466,14.959,0,0-15.458-23.437-6.983-43.877,0,0,0-7.66-5.872-7.662A12.424,12.424,0,0,0,59.9,56.2" transform="translate(-28.984 -54.523)" fill="none"/>
    </clipPath>
    <radialGradient id="radial-gradient-4" cx="1.201" cy="1.114" r="1.697" gradientTransform="matrix(1.246, 0, 0, -1, 0.326, 4.698)" xlink:href="#radial-gradient"/>
    <clipPath id="clip-path-6">
      <path id="パス_3972" data-name="パス 3972" d="M24.124,73.277a4.989,4.989,0,1,0,4.991-4.984,4.992,4.992,0,0,0-4.991,4.984" transform="translate(-24.124 -68.293)" fill="none"/>
    </clipPath>
    <radialGradient id="radial-gradient-5" cx="7.041" cy="3.75" r="10.466" gradientTransform="matrix(1, 0, 0, -1, -0.002, 22.742)" xlink:href="#radial-gradient"/>
    <clipPath id="clip-path-7">
      <path id="パス_3973" data-name="パス 3973" d="M22.236,77.984A4.987,4.987,0,1,0,27.218,73a4.984,4.984,0,0,0-4.982,4.984" transform="translate(-22.236 -73)" fill="none"/>
    </clipPath>
    <radialGradient id="radial-gradient-6" cx="7.47" cy="2.685" r="10.468" gradientTransform="matrix(1, 0, 0, -1, -0.002, 20.615)" xlink:href="#radial-gradient"/>
    <clipPath id="clip-path-8">
      <path id="パス_3974" data-name="パス 3974" d="M18.372,74.119a4.985,4.985,0,1,0,4.984-4.984,4.99,4.99,0,0,0-4.984,4.984" transform="translate(-18.372 -69.135)" fill="none"/>
    </clipPath>
    <radialGradient id="radial-gradient-7" cx="8.349" cy="3.558" r="10.461" gradientTransform="matrix(1.001, 0, 0, -1, 0.003, 22.351)" xlink:href="#radial-gradient"/>
    <clipPath id="clip-path-9">
      <rect id="長方形_1313" data-name="長方形 1313" width="211.29" height="267.628" fill="none"/>
    </clipPath>
    <clipPath id="clip-path-10">
      <rect id="長方形_1312" data-name="長方形 1312" width="170.264" height="144.463" fill="none"/>
    </clipPath>
  </defs>
  <g id="グループ_634" data-name="グループ 634" clip-path="url(#clip-path)">
    <g id="グループ_616" data-name="グループ 616" transform="translate(41.023 167.727)">
      <g id="グループ_615" data-name="グループ 615" clip-path="url(#clip-path-2)">
        <rect id="長方形_1305" data-name="長方形 1305" width="170.823" height="103.011" transform="translate(-0.556 0)" fill="url(#radial-gradient)"/>
      </g>
    </g>
    <g id="グループ_618" data-name="グループ 618" transform="translate(60.963 168.185)">
      <g id="グループ_617" data-name="グループ 617" clip-path="url(#clip-path-3)">
        <rect id="長方形_1306" data-name="長方形 1306" width="65.812" height="25.871" transform="translate(0 0)" fill="url(#radial-gradient-2)"/>
      </g>
    </g>
    <g id="グループ_620" data-name="グループ 620" transform="translate(112.481 123.177)">
      <g id="グループ_619" data-name="グループ 619" clip-path="url(#clip-path-4)">
        <rect id="長方形_1307" data-name="長方形 1307" width="77.178" height="60.466" transform="translate(-7.251 0)" fill="url(#radial-gradient-3)"/>
      </g>
    </g>
    <g id="グループ_622" data-name="グループ 622" transform="translate(65.455 123.13)">
      <g id="グループ_621" data-name="グループ 621" clip-path="url(#clip-path-5)">
        <rect id="長方形_1308" data-name="長方形 1308" width="49.362" height="61.512" transform="translate(0 0)" fill="url(#radial-gradient-4)"/>
      </g>
    </g>
    <g id="グループ_624" data-name="グループ 624" transform="translate(54.479 154.227)">
      <g id="グループ_623" data-name="グループ 623" clip-path="url(#clip-path-6)">
        <rect id="長方形_1309" data-name="長方形 1309" width="9.977" height="9.973" transform="translate(0 0)" fill="url(#radial-gradient-5)"/>
      </g>
    </g>
    <g id="グループ_626" data-name="グループ 626" transform="translate(50.216 164.857)">
      <g id="グループ_625" data-name="グループ 625" clip-path="url(#clip-path-7)">
        <rect id="長方形_1310" data-name="長方形 1310" width="9.975" height="9.97" transform="translate(0 0)" fill="url(#radial-gradient-6)"/>
      </g>
    </g>
    <g id="グループ_628" data-name="グループ 628" transform="translate(41.49 156.128)">
      <g id="グループ_627" data-name="グループ 627" clip-path="url(#clip-path-8)">
        <rect id="長方形_1311" data-name="長方形 1311" width="9.97" height="9.977" transform="translate(0 0)" fill="url(#radial-gradient-7)"/>
      </g>
    </g>
    <g id="グループ_633" data-name="グループ 633" transform="translate(0 0)">
      <g id="グループ_632" data-name="グループ 632" clip-path="url(#clip-path-9)">
        <g id="グループ_631" data-name="グループ 631" transform="translate(41.027 123.156)" opacity="0.8">
          <g id="グループ_630" data-name="グループ 630">
            <g id="グループ_629" data-name="グループ 629" clip-path="url(#clip-path-10)">
              <path id="パス_3975" data-name="パス 3975" d="M57.324,71.353c-.029,3.473-4.3,3.247-5.237,5.93.406,1.109.808,2.112,1.172,2.972h6.014a77.873,77.873,0,0,1,.836-8.88c-.077,0-.149-.014-.228-.023Z" transform="translate(24.514 -33.372)" fill="#eb9cc1"/>
              <path id="パス_3976" data-name="パス 3976" d="M61.2,96.57h2.565c-.4-11.983,4.02,5.332,5.115-2.227a23.845,23.845,0,0,1,.025-2.4c-2.778-.736-5.413-1.3-7.705-1.725V96.57Z" transform="translate(35.986 -9.635)" fill="#efaecd"/>
              <path id="パス_3977" data-name="パス 3977" d="M72.65,64.157c-.621-3.911-4.408-5.068-10.237-4.449-1.055,5.359,4.672,4.84,2.559,11.127C68.375,73.064,72.7,74.5,75.2,77.5a15.133,15.133,0,0,1-3.085.266c-.145.553-.35,1.21-.612,1.956,4.286-.429,8.611-.892,8.812,2.229,3.918,3.157,14.654.725,19.817-1.874.145-.176.253-.35.388-.526C95.951,76.4,92.051,81.661,88,75.284c6.879,1.21,7.218-4.133,12.057-7.08-.262-.359-.483-.711-.79-1.086C93.492,60.081,81.116,64.4,76.137,59.39a17.171,17.171,0,0,0-3.487,4.767" transform="translate(37.343 -48.425)" fill="#eeabcb"/>
              <path id="パス_3978" data-name="パス 3978" d="M61.944,64.379a26.182,26.182,0,0,1-1.213,6.843s-.3.894-.711,2.236h2.674c.034-2.247,4.494-2.8,5.124,0a6.239,6.239,0,0,0,.935.181c.926-1.016,1.872-2,2.742-2.818-3.728-1.671-4.677-5.761-9.55-6.441" transform="translate(34.497 -42.148)" fill="#eeabcb"/>
              <path id="パス_3979" data-name="パス 3979" d="M77.107,72.308c-2.509-3-6.827-4.44-10.232-6.669-2-.743-4.076-1.407-6.1-2.121A6.969,6.969,0,0,1,61,65.461c4.873.68,5.822,4.77,9.55,6.441,2.59-2.421,4.528-3.354,3.471.673a15.122,15.122,0,0,0,3.085-.266" transform="translate(35.44 -43.23)" fill="#f0b6d2"/>
              <path id="パス_3980" data-name="パス 3980" d="M59.353,68.253a18.126,18.126,0,0,1,2.6-3.383,4.062,4.062,0,0,1,.375-.178A23.359,23.359,0,0,1,56.672,61.5c.2,2.852-.154,6.183,2.681,6.752" transform="translate(30.284 -45.769)" fill="#f0b6d2"/>
              <path id="パス_3981" data-name="パス 3981" d="M41.932,65.818c3.27-8.32,5.332-7.134,10.436-11.249a11.2,11.2,0,0,0-6.226,1.61,23.981,23.981,0,0,1-6.226,5.05c1.694.637,2.852,1.746,2.017,4.589" transform="translate(9.198 -54.535)" fill="#f1bbd5"/>
              <path id="パス_3982" data-name="パス 3982" d="M22.236,77.339a4.986,4.986,0,1,0,9.973,0l0-.054a17.1,17.1,0,0,1-8.143-3.771,4.941,4.941,0,0,0-1.825,3.826" transform="translate(-13.047 -30.654)" fill="#f1bbd5"/>
              <path id="パス_3983" data-name="パス 3983" d="M49.4,90.82c-2.249-2.127-4.774-4.819-5.79-7.152-6.429-2.319-12.269-5.314-16.565-9.153.016.068.038.131.059.194,3.957,7.269,12.807,12.432,22.3,16.111" transform="translate(-6.994 -29.393)" fill="#f1bbd5"/>
              <path id="パス_3984" data-name="パス 3984" d="M52.887,70.255c-3.234,9.5,6.716,7.538,11.036,10.479A26.622,26.622,0,0,1,65.8,77.007c-2.834-.569-2.48-3.9-2.683-6.752a23.374,23.374,0,0,0,5.657,3.191c.849-.361,2.893-.939,3.6,1.369,2.028.711,4.106,1.375,6.1,2.118,2.114-6.287-3.613-5.768-2.559-11.127,5.829-.619,9.616.537,10.237,4.449a17.172,17.172,0,0,1,3.487-4.767c-.135-.14-.294-.262-.42-.418-2.087-2.55-.077-6.628-1.868-8.9-1.981-2.527-8.591-1.43-11.734-1.113-4.8.477-6.253,1.987-10.406,3.62-3.618,1.425-5.386,0-8.681.492a9.187,9.187,0,0,0-4.989,2.279,75.892,75.892,0,0,0,9.013,6.592c-.411,2.608-4.666,1.868-7.671,2.218" transform="translate(23.834 -54.523)" fill="#f1bbd5"/>
              <path id="パス_3985" data-name="パス 3985" d="M37.726,61.085c3.153.976,5.257,2.857,5.122,6.678,3.713-3.862,7.324-4,6.38-7.972a5.311,5.311,0,0,1-3.34-1.624C40.621,52.9,29.862,60.981,29.02,72.67c3.092-4.607,6.9-8.627,8.706-11.585" transform="translate(-4.511 -52.03)" fill="#f1bbd5"/>
              <path id="パス_3986" data-name="パス 3986" d="M24.125,73.278a4.9,4.9,0,0,0,.217,1.369A19.728,19.728,0,0,1,28.511,78.2a5.29,5.29,0,0,0,.6.063,4.933,4.933,0,0,0,3.214-1.2,13.553,13.553,0,0,1-1.678-8.507,4.936,4.936,0,0,0-1.536-.264,4.988,4.988,0,0,0-4.989,4.986" transform="translate(-10.67 -37.224)" fill="#f1bbd5"/>
              <path id="パス_3987" data-name="パス 3987" d="M20.586,89.939c.346,1.585,1,3.087,1.36,4.846.266-.025.535-.084.8-.093.711-2.825-.422-4.049-2.159-4.754" transform="translate(-15.124 -9.985)" fill="#f1bbd5"/>
              <path id="パス_3988" data-name="パス 3988" d="M55.255,71.538c-11.754-2.114-18.4-2.432-23.9,3.132a37.542,37.542,0,0,0,9.79,10.438,12.734,12.734,0,0,1,1.319-.219c.7-3.372,2.288-4.724,4.291-5.205a6.442,6.442,0,0,1-.312-.869s.748-5.732,6.479,0c.307.3.632.632.973.969,2.394.158,4.715.02,6.481-1.57.009-.095,0-.167.007-.257-.517-.964-1.082-1.987-1.725-3.128,0,0-.689-2.827-1.046-5.391a5.825,5.825,0,0,1-2.358,2.1" transform="translate(-1.573 -35.782)" fill="#f1bbd5"/>
              <path id="パス_3989" data-name="パス 3989" d="M23.358,69.135a4.989,4.989,0,1,0,3.966,7.981,12.484,12.484,0,0,1-1.793-7.423c.452.327.917.635,1.387.942a4.968,4.968,0,0,0-3.559-1.5" transform="translate(-17.909 -36.163)" fill="#f1bbd5"/>
              <path id="パス_3990" data-name="パス 3990" d="M44.787,91.071c-4.32.556-12.511,3.907-12.511,3.907-.276.124-.5.221-.759.339.056.976.89,2.38,3.065,4.625-.4-6.262,7.195-5.578,10.205-8.871" transform="translate(-1.369 -8.561)" fill="#f1bbd5"/>
              <path id="パス_3991" data-name="パス 3991" d="M43.638,72.448a22.119,22.119,0,0,1,2.236,3.324c2.057-.16,4.377-.535,6.188-.472a49.886,49.886,0,0,1-1.637-10.7c-1-.029-2.03-.041-2.943-.145-2.328,1.757-2.893,5.041-3.844,7.99" transform="translate(13.883 -42.048)" fill="#f1bbd5"/>
              <path id="パス_3992" data-name="パス 3992" d="M61.39,67.411c-1.947,3.5-8.114,3.336-7.671,8.9a18.173,18.173,0,0,1-2.832-2.687c.418,1.581.858,3.105,1.314,4.539,2.1-.709,3.491-2.044,6.633-1.852H61.39c.077-.05.174-.1.257-.147A60.056,60.056,0,0,1,63.1,69.331a3.013,3.013,0,0,1-1.714-1.92" transform="translate(23.004 -38.332)" fill="#f1bbd5"/>
              <path id="パス_3993" data-name="パス 3993" d="M27.172,99.635c-2.22-5.9,6.256-13.5,7.681-8.9-8.069,2.351-4.957,14.209,0,17.8a27.652,27.652,0,0,0,2.2-1.926C39.179,99.319,50.534,93.4,58.707,90a27.609,27.609,0,0,1,1.739-5.937c-.106-.1-.237-.215-.382-.339a37.9,37.9,0,0,0-12.041-1.19c-.528,5.3-5.144,10.709-10.616,10.436-1.014-5.951,3.254-7.3,5.982-9.984-1.565.228-3.121.508-4.639.872-5.8,1.4-14.3,3.756-17.617,8.866,1,3.177-.413,8.469,6.039,6.915" transform="translate(-14.435 -19.381)" fill="#f1bbd5"/>
              <path id="パス_3994" data-name="パス 3994" d="M60.387,68.4c-.2.653-.427,1.418-.659,2.233A27.524,27.524,0,0,0,63.061,68.4Z" transform="translate(34.129 -37.088)" fill="#f1bbd5"/>
              <path id="パス_3995" data-name="パス 3995" d="M54.9,61.962c-11.057,6.2,8.247,16.26,2.552,17.8-4.261-.023-3.677-4.259-7.5-4.672A77.531,77.531,0,0,0,52.065,85.97,18.279,18.279,0,0,0,54.9,88.658c-.44-5.567,5.725-5.4,7.671-8.9a3.014,3.014,0,0,0,1.714,1.917,40.315,40.315,0,0,1,1.651-4.788c-4.32-2.938-14.27-.976-11.036-10.476,3.006-.352,7.26.391,7.671-2.22A75.394,75.394,0,0,1,53.556,57.6a10,10,0,0,0-2.308,3.243c1.4-.2,3.116-.978,3.649,1.12" transform="translate(21.824 -50.679)" fill="#f4cadf"/>
              <path id="パス_3996" data-name="パス 3996" d="M50.9,59.892a10.234,10.234,0,0,0-1.378-4.3h-4c-1.407,4.761,2.055,5.106,5.382,4.3" transform="translate(15.844 -53.204)" fill="#f4cadf"/>
              <path id="パス_3997" data-name="パス 3997" d="M57.624,78.121c5.7-1.536-13.609-11.6-2.552-17.8-.533-2.1-2.254-1.319-3.649-1.12-1.716,3.717-1.908,8.864-1.3,14.243,3.821.413,3.236,4.65,7.5,4.672" transform="translate(21.649 -49.043)" fill="#f5cde1"/>
              <path id="パス_3998" data-name="パス 3998" d="M42.891,70.248c.138-3.821-1.969-5.7-5.122-6.678-1.807,2.958-5.614,6.978-8.706,11.585-.034.483-.079.96-.079,1.452a32.948,32.948,0,0,0,5.354,16.8c5.5-5.564,12.145-5.246,23.9-3.132a5.824,5.824,0,0,0,2.358-2.1c-.393-2.843-.366-5.35,1.479-3.256.953-2.949,1.518-6.233,3.844-7.99.917.1,1.944.115,2.945.145a35.262,35.262,0,0,1,2.5-14.921s0-.377-.063-.946c-3.326.808-6.788.461-5.382-4.3h4a4.954,4.954,0,0,0-3.8-2.353c-5.1,4.115-7.166,2.931-10.436,11.249.836-2.843-.323-3.952-2.017-4.589a8.2,8.2,0,0,1-4.4,1.066c.944,3.975-2.665,4.11-6.38,7.972" transform="translate(-4.556 -54.515)" fill="#f5cde1"/>
              <path id="パス_3999" data-name="パス 3999" d="M28.754,76.916a4.945,4.945,0,0,0-1.678-8.507,13.568,13.568,0,0,0,1.678,8.507" transform="translate(-7.097 -37.077)" fill="#f5cde1"/>
              <path id="パス_4000" data-name="パス 4000" d="M41.337,75.039c.745.745,1.56,1.551,2.4,2.358,1.585-.987,3.087-2.035,4.731-2.963q-.3-.586-.646-1.224c-.009.09,0,.165-.009.26-1.764,1.59-4.085,1.725-6.479,1.57" transform="translate(10.988 -31.035)" fill="#f0b6d2"/>
              <path id="パス_4001" data-name="パス 4001" d="M44.629,69.735c.467.8.987,1.739,1.565,2.83a16.811,16.811,0,0,0,.985,2.148c1.143-.982,3.049-1.308,4.684-1.856-.375-1.156-.729-2.355-1.05-3.593-1.809-.061-4.126.314-6.183.472" transform="translate(15.13 -36.011)" fill="#f0b6d2"/>
              <path id="パス_4002" data-name="パス 4002" d="M36.274,79.182v1.127a38.575,38.575,0,0,0,4.187,2.383c1.3-1.052,1.958-2.66,3.487-3.509.185-.045.355-.115.535-.16a12.6,12.6,0,0,1-3.918-5.047c-2,.483-3.591,1.836-4.291,5.208" transform="translate(4.617 -30.074)" fill="#f0b6d2"/>
              <path id="パス_4003" data-name="パス 4003" d="M56.5,126.963c2.24-7.141-6.639-4.611-7.676-8.893,2.089-.169,4.072-.438,4.885-1.723-.851-.285-.878-1.3-.325-2.737a13.485,13.485,0,0,1-7.125-2.215c-.569,1.725-.065,4.388-2.55,4.449,0-2.229-2.08-2.651-2.572-4.449,3.658-.537,4.325-3.667,7.687-4.451a6.464,6.464,0,0,0,5.729,4.338c.463-.781,1.016-1.619,1.644-2.489a11.941,11.941,0,0,0-2.261-4.076c5.835,4.368,2.925-.438,7.529-2.154.05-.047.1-.1.149-.154V98.072h-.032c-3.01,3.293-10.6,2.608-10.205,8.871-2.172-2.245-3.008-3.649-3.065-4.625-11.007,4.937-7.717,1.156-7.717,1.156.047-.233.124-.458.187-.684a27.651,27.651,0,0,1-2.2,1.926c-4.957-3.586-8.069-15.445,0-17.8-1.425-4.607-9.9,3-7.681,8.9-6.452,1.554-5.032-3.737-6.039-6.915a9.067,9.067,0,0,0-.711,1.3,8.161,8.161,0,0,0-.526,5.314c1.737.7,2.87,1.929,2.159,4.756-.264.009-.533.065-.8.093a11.591,11.591,0,0,1,.239,2.62c-.16,6.064-6.522,7.843-6.983,13.527a13.491,13.491,0,0,0,.273,4.745c8.11-5.44,16.5.779,30.309-.962-.784,11.662,8.751,6.556,14.494,8.189.781-1.9,1.542-3.78,2.36-5.472-1.312-.874-6.942,2.177-9.178,3.952" transform="translate(-18.168 -15.564)" fill="#eeabcb"/>
              <path id="パス_4004" data-name="パス 4004" d="M56.595,132c.44-3.333-.912-8.209,2.561-8.9,1.131,1.486,8.539,4.794,9.288,4.146-1.179.106-2.552-2.139-2.552-2.139-.16-.165-.316-.35-.472-.531-1.809-1.048-2.093-1.725-1.5-2.2a19.532,19.532,0,0,1-.937-2.042c-.723-.007-1.172-.445-1.265-1.689a4.784,4.784,0,0,0,.617-.156,42.741,42.741,0,0,1-1.441-7.019,2.148,2.148,0,0,1-1.737-1.725,10.425,10.425,0,0,1,1.129-9.566c0-1.608.045-3.128.1-4.519-4.6,3.281-9.264,6.506-11.47,11.863,4.024.215,8.877-.3,7.678,4.456-5.354.725-6.576-2.909-8.586-3.812-1.125,4.336-6.481,10.842-6.868,12.558a29.02,29.02,0,0,0-.266,11.12c3.089-2.678,9.078-1.019,15.72.154" transform="translate(9.887 -2.79)" fill="#eeabcb"/>
              <path id="パス_4005" data-name="パス 4005" d="M58.076,106.2a7.707,7.707,0,0,0-4.555-.528c.09,1.646.181,2.751.181,2.751v.077c2.421-.429,4.544-1.014,4.374-2.3" transform="translate(26.319 9.652)" fill="#eeabcb"/>
              <path id="パス_4006" data-name="パス 4006" d="M73.672,101.983a12.539,12.539,0,0,0,.431,1.942c4.009,2.023,8.859,3.97,13.527,4.015-2.949-4.241-6.98-6.8-13.959-5.957" transform="translate(51.675 4.969)" fill="#f2c0d9"/>
              <path id="パス_4007" data-name="パス 4007" d="M55.538,118.9a9.437,9.437,0,0,0,.147.937,13.426,13.426,0,0,0,3.663-2.909c-1.21-.032-2.5-.133-3.81-.251Z" transform="translate(28.857 23.655)" fill="#f2c0d9"/>
              <path id="パス_4008" data-name="パス 4008" d="M60.074,113.719a8.466,8.466,0,0,1,.567,3.494,11.02,11.02,0,0,1,3.507,1.025c.98-2.071-.047-3.577-4.074-4.519" transform="translate(34.565 19.938)" fill="#f2c0d9"/>
              <path id="パス_4009" data-name="パス 4009" d="M78.282,106.127c6.086.657-2.855,6.016-5.122,6.673-.113-3.062,1.206-4.889,2.559-6.673H70.6c-.14-1.29-.384-2.486-2.261-2.261h-.014c-.095.032-.19.063-.285.1-.3,4.758,2.956,6.42,4.535,9.541l.029.054a7.4,7.4,0,0,1,.551,1.466c-2.9-.364-4.137-2.175-5.549-3.835a1.081,1.081,0,0,1-.1.133,8.838,8.838,0,0,1-3.778-.908c.924,1.242,2.252,2.134,1.748,4.609-3.647-.869-4.311-2.672-7.669,0-.269,12.863,13.283,3.609,15.35,11.127-4-.578-2.182,3.911-2.972,6.136,2.233,1.152,4.478,2.116,6.929,1.5,7.717-1.922,7.473-13.652,6.987-19.679-.411-5.149-1.131-7.825-2.834-9.968-1.5.224-2.663.741-2.988,1.985" transform="translate(31.711 7.505)" fill="#f2c0d9"/>
              <path id="パス_4010" data-name="パス 4010" d="M73.672,70.373c4.047,6.377,7.949,1.111,12.52,4.273,2.667-3.485,2.635-7.066-.463-11.353-4.84,2.947-5.178,8.29-12.057,7.08" transform="translate(51.675 -43.514)" fill="#eda4c6"/>
              <path id="パス_4011" data-name="パス 4011" d="M63.091,96.97c.009,2.231-2.071,2.651-2.552,4.449,4.395-.12,6.554,1.712,7.676,4.449-3.652.869-4.316,2.667-7.676,0a5.127,5.127,0,0,1-.836,2.1c.836,1.276,1.425,2.028,1.425,2.028a23.814,23.814,0,0,1,2.739,3.207c.6-.2,1.21-.393,1.789-.592a.34.34,0,0,1,0-.068c.106-.016.185-.014.285-.029,3.144-1.086,6.009-2.184,8.819-3.3-.8-.558-1.673-1.145-2.66-1.809-2.175-1.466-10.32-7.082-7.457-10.282a8.067,8.067,0,0,1-1.551-.145" transform="translate(34.099 -1.138)" fill="#efaecd"/>
              <path id="パス_4012" data-name="パス 4012" d="M64.306,95.861c-.174,1.608-.431,3.137-1.5,3.968a12.537,12.537,0,0,1,3.146.872c2.9-3.588,5.833-9.105-1.649-4.84" transform="translate(38.006 -4.483)" fill="#efaecd"/>
              <path id="パス_4013" data-name="パス 4013" d="M69.384,79.435a29.247,29.247,0,0,0-7.062,8.241c2.457-.79,4.614-1.452,6.545-2.019,1.276-2.145,2.6-5.088.517-6.222" transform="translate(37.393 -23.202)" fill="#efaecd"/>
              <path id="パス_4014" data-name="パス 4014" d="M70.61,96.647c-.269.122-.5.233-.738.339,6.118,5.894,23.737-8.028,22.644,12.949-5.506-4.392-5.027,1.317-6.741,5.6,1.4,2.028,2.285,3.559,2.285,3.559,3.993,11.96-3.988,3.984-3.988,3.984a29.606,29.606,0,0,0-4.607-3.7,13.27,13.27,0,0,1-2.3-.54c.176-.233.289-.418.44-.63-1.242-.72-2.543-1.387-3.866-2.008a27.994,27.994,0,0,0-4.257,2.638c-.815,5.162.413,8.543,2.563,11.127a9.815,9.815,0,0,0-3.564-.185c2.369,1.389,4.709,2.875,6.746,4.2.257-.1.522-.2.788-.3.251-.1.5-.2.761-.294.7-.269,1.414-.535,2.136-.8.217-.081.443-.167.668-.248.644-.235,1.3-.47,1.974-.709.163-.056.325-.113.495-.178q1.209-.42,2.489-.847c.219-.072.438-.142.655-.212.8-.264,1.61-.524,2.45-.79l.346-.106c.939-.291,1.917-.585,2.918-.878l.689-.2c.985-.282,2-.567,3.049-.856a1.5,1.5,0,0,0,.165-.045c1.093-.3,2.233-.589,3.406-.883.273-.07.553-.142.833-.21,1.2-.3,2.421-.594,3.706-.894-2.039-13.245,15.332-15.987,18.794-23.617-5.129-3.88-12.676-5.61-13.55-11.215-.77-4.98,3.121-8.238.989-11.38a16.815,16.815,0,0,0-1.113,1.71,7.18,7.18,0,0,0,.379-2.559,13.385,13.385,0,0,0-3.853-2.337,21.776,21.776,0,0,0-5.77-1.579q-.786-.047-1.527-.133a39.46,39.46,0,0,0-12.7,1.186c-5.745,5.278-11.093,10.9-17.57,15.537,20.472-5.348,3.778,5.524,3.778,5.524" transform="translate(43.068 -29.678)" fill="#efaecd"/>
              <path id="パス_4015" data-name="パス 4015" d="M68.553,87.4q.457-1.274.946-2.934c-3.977,1.953-3.311,2.728-.946,2.934" transform="translate(42.835 -16.871)" fill="#efaecd"/>
              <path id="パス_4016" data-name="パス 4016" d="M51.14,107.611c-.233-.594-.449-1.2-.648-1.845a4.732,4.732,0,0,1-.619.156c.093,1.244.544,1.682,1.267,1.689" transform="translate(21.729 9.93)" fill="#efaecd"/>
              <path id="パス_4017" data-name="パス 4017" d="M58.166,112.02c1.443-.336,2.812-.68,4.139-1.023.09-.023.19-.05.282-.07.653-.174,1.253-.346,1.877-.517a29.87,29.87,0,0,1-3.5-4.928,25.5,25.5,0,0,1-2.8-.129,3.518,3.518,0,0,1,1.33-2.629c-.393-.815-.655-1.43-.811-1.8a19.164,19.164,0,0,0-5.092.748,82.055,82.055,0,0,0,.018,9.824,7.707,7.707,0,0,1,4.555.528" transform="translate(26.229 3.832)" fill="#efaecd"/>
              <path id="パス_4018" data-name="パス 4018" d="M50.479,103.621c-.07-.574-.138-1.147-.2-1.728H48.74a2.154,2.154,0,0,0,1.739,1.728" transform="translate(20.303 5.057)" fill="#efaecd"/>
              <path id="パス_4019" data-name="パス 4019" d="M62.624,103.851h0l-.285.1c.095-.034.19-.065.285-.1" transform="translate(37.415 7.52)" fill="#efaecd"/>
              <path id="パス_4020" data-name="パス 4020" d="M52.506,109.687a12.3,12.3,0,0,1-1.5-2.2c-.592.474-.307,1.152,1.5,2.2" transform="translate(22.801 12.096)" fill="#f0b6d2"/>
              <path id="パス_4021" data-name="パス 4021" d="M64.038,131.208c.585-4.2-2.879-4.914-2.552-8.9h2.552c5.953-1.506,6.849-7.4,12.8-8.9-1.3-4.914.384-7.233,4.989-7.01-.431-.407-.851-.833-1.251-1.278-.623.172-1.224.346-1.877.517-.093.02-.192.047-.282.07-1.328.343-2.7.687-4.139,1.023.169,1.285-1.953,1.87-4.374,2.3-.007,4.783-.8,6.219-1.687,6.3-.75.648-8.159-2.66-9.291-4.146-3.473.691-2.118,5.569-2.559,8.9-6.642-1.17-12.631-2.832-15.72-.154A22.432,22.432,0,0,0,45.562,130.9c2.13,2.462,3.663,3.661,5.059,4.153,1.6-2.364,1.391-6.612,3.186-1.626a5.411,5.411,0,0,1,2.9,1.009,25.608,25.608,0,0,1,4.729-.777c.135-.011.282.009.422.007.2-1.274.556-2.421,2.175-2.462" transform="translate(10.118 9.12)" fill="#f0b6d2"/>
              <path id="パス_4022" data-name="パス 4022" d="M68.453,114.955a7.688,7.688,0,0,0-.551-1.466l-.032-.056c-1.576-3.121-4.835-4.781-4.535-9.539-.576.2-1.19.391-1.789.589,2.827,4.027,1.73,6.122,1.357,6.637,1.411,1.658,2.649,3.471,5.549,3.835" transform="translate(36.418 7.575)" fill="#f0b6d2"/>
              <path id="パス_4023" data-name="パス 4023" d="M98.072,110.129c-1.283.3-2.5.6-3.706.894-.28.068-.56.14-.833.208-1.17.3-2.31.589-3.406.885a1.04,1.04,0,0,1-.165.043c-1.05.289-2.062.574-3.049.856-.228.07-.463.138-.687.2-1,.294-1.978.587-2.918.878-.12.034-.23.07-.348.106-.838.266-1.651.526-2.448.788-.217.072-.438.142-.657.215-.849.285-1.68.567-2.486.847-.169.063-.332.122-.5.178-.673.239-1.33.474-1.974.709-.224.081-.449.167-.668.248-.72.264-1.436.533-2.136.8-.257.1-.51.194-.761.294s-.524.206-.786.3c2.744,1.78,4.921,3.25,5.729,3.686.562.3,1.154.61,1.757.917a12.285,12.285,0,0,1-.431-1.942c6.976-.842,11.009,1.716,13.956,5.957a14.031,14.031,0,0,0,5.273-.91c5.664-2.213,6.608-9.758,6.574-15.4,5.467-1.895,14.047-.26,17.748-5.8,2.369-3.543,1.224-9.8-.194-13.5a11.672,11.672,0,0,0-4.094-5.086c-3.462,7.631-20.831,10.372-18.794,23.617" transform="translate(47.744 -14.297)" fill="#f0b6d2"/>
              <path id="パス_4024" data-name="パス 4024" d="M62.468,105.692h.011c1.877-.226,2.121.971,2.261,2.261h5.115c-1.353,1.784-2.672,3.611-2.556,6.673,2.267-.657,11.208-6.016,5.12-6.673.325-1.244,1.486-1.761,2.99-1.985a19.132,19.132,0,0,0-4.124-3.579c-2.809,1.12-5.673,2.22-8.819,3.3Z" transform="translate(37.574 5.68)" fill="#f0b6d2"/>
              <path id="パス_4025" data-name="パス 4025" d="M62.625,103.851c-.1.016-.178.014-.285.029a.339.339,0,0,0,0,.068l.285-.1" transform="translate(37.413 7.52)" fill="#f0b6d2"/>
              <path id="パス_4026" data-name="パス 4026" d="M85,78.69a15.976,15.976,0,0,1,1.113-1.71,5.049,5.049,0,0,0-.734-.849A7.18,7.18,0,0,1,85,78.69" transform="translate(65.934 -27.36)" fill="#eda4c6"/>
              <path id="パス_4027" data-name="パス 4027" d="M80.235,74.338c.495.056,1,.1,1.527.133-.5-.07-1.014-.09-1.527-.133" transform="translate(59.933 -29.616)" fill="#eda4c6"/>
              <path id="パス_4028" data-name="パス 4028" d="M69.423,105.868c-1.12-2.739-3.279-4.569-7.674-4.451.479-1.8,2.559-2.215,2.55-4.447h-2.55c-.754,1.362-6.371,8.566,0,8.9,3.36,2.667,4.024.869,7.674,0" transform="translate(32.889 -1.138)" fill="#eda4c6"/>
              <path id="パス_4029" data-name="パス 4029" d="M65.073,92.667v-1.9c-2.814-.517-5.1-.827-6.479-.989-1.949,3.4,2.617,6.468,6.479,2.888" transform="translate(32.117 -10.186)" fill="#eb9cc1"/>
              <path id="パス_4030" data-name="パス 4030" d="M91.687,97.286c1.091-20.977-16.526-7.055-22.644-12.947l-.605.289q-.488,1.66-.946,2.931c3.817.33,12.016-.82,12.016-.82,16.7,0,4.984,4.986,4.984,4.986-11.718,0-4.738,4.738-4.738,4.738a47.747,47.747,0,0,1,5.192,6.42c1.712-4.282,1.235-9.989,6.741-5.6" transform="translate(43.897 -17.032)" fill="#eb9cc1"/>
              <path id="パス_4031" data-name="パス 4031" d="M64.617,93.38c3.022,1.082,5.8,2.362,7.674,4.447a27.927,27.927,0,0,1,4.257-2.638,72.767,72.767,0,0,0-11.906-4.207,23.805,23.805,0,0,0-.025,2.4" transform="translate(40.254 -8.673)" fill="#eb9cc1"/>
              <path id="パス_4032" data-name="パス 4032" d="M73.709,94.9c-.605-.4-1.229-.795-1.863-1.17-.151.212-.264.4-.44.632a13.246,13.246,0,0,0,2.3.537" transform="translate(48.824 -5.211)" fill="#eb9cc1"/>
              <path id="パス_4033" data-name="パス 4033" d="M65.22,91.41c1.33-.386,2.536-.72,3.638-1.009,6.477-4.634,11.825-10.26,17.57-15.537A54.552,54.552,0,0,0,74.96,79.174c1.865,2.613,1.229,4.469-3.455,5.56-1.251-.386-2.556-.757-3.873-1.064-.657.49-1.28,1-1.895,1.518,2.084,1.134.757,4.076-.517,6.222" transform="translate(41.04 -28.955)" fill="#f0b6d2"/>
              <path id="パス_4034" data-name="パス 4034" d="M77.4,70.426c-1.554,6.807-8.46,8.956-12.791,13.353.079.126.167.212.253.33a53.571,53.571,0,0,1,9.618-3.776c7.125-2.394,15.2-4.817,20.885-9.885a19.272,19.272,0,0,0,1.85-1.9c-5.162,2.6-15.9,5.032-19.814,1.874" transform="translate(40.266 -36.897)" fill="#f0b6d2"/>
              <path id="パス_4035" data-name="パス 4035" d="M66,79.7c-.784-5.129,7.4-2.475,7.674-6.676-6.086-3.882,2.848,1.655,5.117-2.227-.2-3.121-4.528-2.658-8.812-2.231-.19.54-.4,1.113-.657,1.761A34.975,34.975,0,0,0,63.5,78.632,2.362,2.362,0,0,0,66,79.7" transform="translate(38.872 -37.266)" fill="#eda4c6"/>
              <path id="パス_4036" data-name="パス 4036" d="M63.7,69.361c.237-.262.465-.522.7-.781a6.478,6.478,0,0,1-.935-.181,3.685,3.685,0,0,1,.23.962" transform="translate(38.842 -37.089)" fill="#eda4c6"/>
              <path id="パス_4037" data-name="パス 4037" d="M55.767,71.457c.011-.052.02-.113.029-.169-.084.05-.181.1-.26.147.081.009.154.018.23.023" transform="translate(28.856 -33.454)" fill="#efaecd"/>
              <path id="パス_4038" data-name="パス 4038" d="M64.035,69.458A27.35,27.35,0,0,1,60.7,71.691c-.863,3.022-1.8,6.788-1.746,8.74.508-1.725.1-4.243,2.527-4.3v4.212a37.9,37.9,0,0,0,3.083-4.144S66.831,73.3,69.39,70.42a3.6,3.6,0,0,0-.23-.962c-.63-2.8-5.09-2.247-5.124,0" transform="translate(33.155 -38.146)" fill="#efaecd"/>
              <path id="パス_4039" data-name="パス 4039" d="M67.073,82.735c4.331-4.4,11.237-6.547,12.791-13.353-2.27,3.884-11.2-1.655-5.117,2.227-.278,4.2-8.457,1.547-7.674,6.676a2.364,2.364,0,0,1-2.5-1.064,22.743,22.743,0,0,0-1.926,5.515h4.429Z" transform="translate(37.798 -35.852)" fill="#efaecd"/>
              <path id="パス_4040" data-name="パス 4040" d="M26.2,73a4.9,4.9,0,0,0-3.157,1.161,17.1,17.1,0,0,0,8.143,3.771A4.987,4.987,0,0,0,26.2,73" transform="translate(-12.031 -31.301)" fill="#f0b6d2"/>
              <path id="パス_4041" data-name="パス 4041" d="M23.341,76.805a4.948,4.948,0,0,0-.406-6.481c-.47-.307-.935-.617-1.387-.942a12.484,12.484,0,0,0,1.793,7.423" transform="translate(-13.926 -35.852)" fill="#f0b6d2"/>
              <path id="パス_4042" data-name="パス 4042" d="M27.111,74.567c-.036-.029-.079-.059-.115-.093.052.1.12.19.174.287-.018-.063-.041-.129-.059-.194" transform="translate(-7.058 -29.445)" fill="#f0b6d2"/>
              <path id="パス_4043" data-name="パス 4043" d="M24.221,71.107a4.952,4.952,0,0,0,4.169,3.555,19.841,19.841,0,0,0-4.169-3.555" transform="translate(-10.55 -33.682)" fill="#f0b6d2"/>
              <path id="パス_4044" data-name="パス 4044" d="M53.107,76.431s3.223,7.315,4.727,5.12a14.966,14.966,0,0,0-1.163-4.031c.682-.129,1.308-.226,1.913-.314,0-.253.011-.5.011-.775,0,0,0-.429.025-1.136H52.606c.174.411.348.8.5,1.136" transform="translate(25.168 -28.412)" fill="#eda4c6"/>
              <path id="パス_4045" data-name="パス 4045" d="M58.955,75.657c.043,1.542.709,1.931,2.527-.093V71.353c-2.425.061-2.019,2.577-2.527,4.3" transform="translate(33.157 -33.372)" fill="#eda4c6"/>
              <path id="パス_4046" data-name="パス 4046" d="M46.788,74.486a23.7,23.7,0,0,1,5.562,1.488c-.657-1.57-1.308-3.29-1.908-5.124-1.637.549-3.541.872-4.684,1.856.273.517.614,1.116,1.03,1.78" transform="translate(16.551 -34.005)" fill="#eda4c6"/>
              <path id="パス_4047" data-name="パス 4047" d="M58.1,71.363c-3.144-.192-4.528,1.143-6.635,1.85.47,1.472.939,2.843,1.4,4.081.937-2.683,5.208-2.457,5.237-5.93" transform="translate(23.736 -33.382)" fill="#eda4c6"/>
              <path id="パス_4048" data-name="パス 4048" d="M41.951,84.246h2.563c4.4.876,6.563-3.3,7.678,0,.007,2.157-1.926,2.631-2.493,4.291l.341.043a8.374,8.374,0,0,1,6.822.7c7.425.492,15.067-.011,12.285-4.573-1.443-2.36-7.206-1.974-9.467-2.084a136.848,136.848,0,0,1-17.653-2.064c-.043,1.249-.145,2.543-.077,3.688" transform="translate(11.731 -21.789)" fill="#eb9cc1"/>
              <path id="パス_4049" data-name="パス 4049" d="M43.919,77.674c3.467,2.927,5.96,4.042,3.209-2.2V77.3a28.039,28.039,0,0,0-3.209.377" transform="translate(14.237 -28.189)" fill="#eb9cc1"/>
              <path id="パス_4050" data-name="パス 4050" d="M40.808,79.357a2.593,2.593,0,0,1,2.421,2.093,49.915,49.915,0,0,0,11.759,1.344,63.149,63.149,0,0,1-12.43-5.424,6.644,6.644,0,0,0-1.75,1.987" transform="translate(10.322 -25.801)" fill="#eb9cc1"/>
              <path id="パス_4051" data-name="パス 4051" d="M56.665,83.492a63.787,63.787,0,0,1-4.889-9.544,23.812,23.812,0,0,0-5.562-1.488A41.719,41.719,0,0,0,56.665,83.492" transform="translate(17.124 -31.979)" fill="#eb9cc1"/>
              <path id="パス_4052" data-name="パス 4052" d="M64.753,94.129c0-3.733-2.771-3.767-6.434-2.191C55.4,95.958,52.4,99.9,50.2,104.542c-2.73-.346-2.787-3.015-2.613-5.89-3.823,2.868-6.77,5.447-6.77,5.447-.808.553-1.551,1.041-2.267,1.5-.422,1.1-.793,2.233-1.145,3.39,4.684-1.043,5.284,1.463,6.052,3.823a6.045,6.045,0,0,1,4.347-2.737,5.882,5.882,0,0,1,3,.384c4.645-6.5,10.219-10.442,13.893-15.849.032-.3.05-.483.05-.483" transform="translate(6.042 -8.71)" fill="#eb9cc1"/>
              <path id="パス_4053" data-name="パス 4053" d="M66.515,97.21V92.754c-3.862,3.579-8.428.513-6.479-2.888-.926-.113-1.466-.158-1.466-.158a22.169,22.169,0,0,0-1.588,7.035c3.442-1.308,6.91-1.42,9.532.467" transform="translate(30.675 -10.276)" fill="#eda4c6"/>
              <path id="パス_4054" data-name="パス 4054" d="M49.114,107.223h1.54a92.84,92.84,0,0,1-.411-9.564,10.426,10.426,0,0,0-1.129,9.564" transform="translate(19.929 -0.271)" fill="#eda4c6"/>
              <path id="パス_4055" data-name="パス 4055" d="M52.971,115.857c1.2-4.756-3.654-4.241-7.678-4.456,2.206-5.357,6.872-8.579,11.47-11.863.138-3.378.373-5.955.472-6.967-3.674,5.409-9.248,9.349-13.893,15.851,1.3.635,1.475,1.976,1.043,3.625,2.01.9,3.232,4.535,8.586,3.81" transform="translate(13.511 -6.672)" fill="#eda4c6"/>
              <path id="パス_4056" data-name="パス 4056" d="M36.025,95c-3.36.786-4.027,3.914-7.685,4.453.49,1.8,2.572,2.218,2.57,4.447,2.484-.061,1.981-2.724,2.55-4.447a13.493,13.493,0,0,0,7.127,2.213,15.856,15.856,0,0,1,1.168-2.328A6.467,6.467,0,0,1,36.025,95" transform="translate(-5.367 -3.619)" fill="#eda4c6"/>
              <path id="パス_4057" data-name="パス 4057" d="M44.56,103.993c2.2-4.648,5.2-8.586,8.119-12.6A58.754,58.754,0,0,0,41.949,98.1c-.174,2.875-.12,5.544,2.611,5.89" transform="translate(11.685 -8.161)" fill="#eda4c6"/>
              <path id="パス_4058" data-name="パス 4058" d="M34.008,95.213a11.979,11.979,0,0,1,2.261,4.076,56.374,56.374,0,0,1,5.269-6.231c-4.6,1.716-1.694,6.522-7.529,2.154" transform="translate(1.765 -6.059)" fill="#eda4c6"/>
              <path id="パス_4059" data-name="パス 4059" d="M44.534,100.829c.352-1.156.723-2.294,1.147-3.39-5.052,3.252-7.861,4.289-9.054,3.893-.811,1.285-2.794,1.554-4.885,1.721,1.037,4.284,9.916,1.755,7.676,8.9,2.236-1.775,7.868-4.826,9.178-3.952a19.276,19.276,0,0,1,1.992-3.345c-.768-2.36-1.371-4.867-6.055-3.823" transform="translate(-1.085 -0.548)" fill="#eda4c6"/>
              <path id="パス_4060" data-name="パス 4060" d="M45.52,84.344c2.005.269,4.4.537,6.822.7a8.374,8.374,0,0,0-6.822-.7" transform="translate(16.251 -17.554)" fill="#eda4c6"/>
              <path id="パス_4061" data-name="パス 4061" d="M43.925,82.91A4.711,4.711,0,0,1,42.4,85.877c.687.185,1.366.373,2.035.544.449.115,2.247.443,4.679.779.567-1.66,2.5-2.134,2.493-4.291-1.116-3.3-3.279.876-7.678,0" transform="translate(12.32 -20.453)" fill="#eda4c6"/>
              <path id="パス_4062" data-name="パス 4062" d="M40.166,81.559a43.653,43.653,0,0,0,4.51,1.353,2.6,2.6,0,0,0-2.421-2.093,6.644,6.644,0,0,1,1.75-1.987,30,30,0,0,1-3.783-2.622c-.181.045-.348.115-.535.16a16.321,16.321,0,0,0,.479,5.19" transform="translate(8.877 -27.262)" fill="#eda4c6"/>
              <path id="パス_4063" data-name="パス 4063" d="M42.407,82.711c2.577-.007,3.051,1.8,5.12,2.224-.07-1.143.032-2.439.077-3.686-2-.366-4.013-.772-6.023-1.242-6.262.215-4.788,7.857.827,2.7" transform="translate(6.158 -22.481)" fill="#eda4c6"/>
              <path id="パス_4064" data-name="パス 4064" d="M45.829,79.838a28.039,28.039,0,0,1,3.209-.377V77.636q-.708-1.6-1.906-3.884c-1.644.926-3.146,1.976-4.731,2.961,1.149,1.109,2.337,2.206,3.428,3.126" transform="translate(12.326 -30.353)" fill="#eda4c6"/>
              <path id="パス_4065" data-name="パス 4065" d="M64.708,75.295a4.487,4.487,0,0,1-2.218,3.34,14.494,14.494,0,0,0,.117,1.786,11.535,11.535,0,0,1,4.912-4.8c-.086-.115-.174-.2-.253-.327Z" transform="translate(37.605 -28.412)" fill="#f2c0d9"/>
              <path id="パス_4066" data-name="パス 4066" d="M73.617,76.772a50.738,50.738,0,0,0-7.328,4.5c1.317.307,2.622.677,3.873,1.064,4.684-1.091,5.318-2.947,3.455-5.56" transform="translate(42.385 -26.553)" fill="#f2c0d9"/>
              <path id="パス_4067" data-name="パス 4067" d="M55.569,80.486c.416-.607.7-1.938.75-4.345-.605.088-1.231.185-1.913.316a14.872,14.872,0,0,1,1.163,4.029" transform="translate(27.432 -27.347)" fill="#f0b6d2"/>
              <path id="パス_4068" data-name="パス 4068" d="M64.708,75.295h-1.87a16.136,16.136,0,0,0-.348,3.34,4.487,4.487,0,0,0,2.218-3.34" transform="translate(37.605 -28.412)" fill="#f0b6d2"/>
              <path id="パス_4069" data-name="パス 4069" d="M40.172,85.72q2.066.81,4.164,1.518c.648-.917,1.673-1.509,1.992-2.712-5.616,5.153-7.089-2.489-.829-2.705a99.954,99.954,0,0,1-11.118-3.252c1.016,2.333,3.541,5.025,5.79,7.152" transform="translate(2.236 -24.293)" fill="#eeabcb"/>
              <path id="パス_4070" data-name="パス 4070" d="M38.785,83.125c-.138-.038-.278-.059-.413-.1.147.124.273.239.384.336a1.582,1.582,0,0,1,.029-.237" transform="translate(7.257 -18.684)" fill="#eeabcb"/>
              <path id="パス_4071" data-name="パス 4071" d="M38.128,79.789a41.969,41.969,0,0,0,3.966,1.68,16.249,16.249,0,0,1-.479-5.19c-1.529.849-2.191,2.457-3.487,3.509" transform="translate(6.95 -27.172)" fill="#eeabcb"/>
              <path id="パス_4072" data-name="パス 4072" d="M35.69,76.5c.429.309.869.61,1.319.908V76.28a12.736,12.736,0,0,0-1.319.219" transform="translate(3.882 -27.172)" fill="#eeabcb"/>
              <path id="パス_4073" data-name="パス 4073" d="M47.826,119.071c.481-.129,1-.264,1.551-.407a5.4,5.4,0,0,0-2.9-1.007,10.046,10.046,0,0,1,1.353,1.414" transform="translate(17.45 24.893)" fill="#f1bbd5"/>
              <path id="パス_4074" data-name="パス 4074" d="M71.487,119.919c-5.3-1.344-9.7-3.444-7.683-11.127-5.951,1.5-6.849,7.394-12.8,8.9v2.227c5.036.659,5.083-3.01,7.683-4.451,3.223.91,5.23,2.866,5.117,6.669-7.7-1.339-6.648,4.932-9.654,7.676a26.2,26.2,0,0,0,3.236.49c1.192-.4,2.464-.869,3.857-1.488V126.59c1.31.12,2.6.221,3.81.251,1.36-1.366,2.753-2.735,4.508-3.225a6.749,6.749,0,0,1,2.493-.2,8.466,8.466,0,0,0-.567-3.494" transform="translate(23.152 13.738)" fill="#f1bbd5"/>
              <path id="パス_4075" data-name="パス 4075" d="M50.041,119.135a12.771,12.771,0,0,1,2.175.167v-2.629c-1.619.041-1.972,1.19-2.175,2.462" transform="translate(21.94 23.655)" fill="#f1bbd5"/>
              <path id="パス_4076" data-name="パス 4076" d="M37.828,95.019c3.48-3.476,2.308-4.255-.42-3.907v4.336c.142-.14.28-.287.42-.429" transform="translate(6.044 -8.604)" fill="#f0b6d2"/>
              <path id="パス_4077" data-name="パス 4077" d="M37.771,89.246c4.849-2.014,8.577-3.15,8.577-3.15a26.386,26.386,0,0,0-6.809-3.026,1.942,1.942,0,0,0-.029.237,27.663,27.663,0,0,0-1.739,5.939" transform="translate(6.5 -18.628)" fill="#f0b6d2"/>
              <path id="パス_4078" data-name="パス 4078" d="M45.9,83.43c-2.069-.42-2.543-2.231-5.12-2.224-.316,1.2-1.341,1.8-1.99,2.712,2.748.939,5.494,1.759,8.143,2.48a4.722,4.722,0,0,0,1.529-2.967Z" transform="translate(7.783 -20.974)" fill="#f0b6d2"/>
              <path id="パス_4079" data-name="パス 4079" d="M48.631,101.646c-13.805,1.741-22.2-4.476-30.309.962,1.42,4.941,7.014,1.976,11.892,3.753.167-.086.321-.187.495-.26,2.412,1.452,13.907-1.1,10.237,11.118h2.57c5.214,4.465,5.009-.985,10.23-2.229.962,3.64-3.308,5.51-.5,6.522a13.135,13.135,0,0,0,2.005-.666c3.805-1.669,5.939-6.344,7.875-11.012-5.743-1.633-15.277,3.473-14.494-8.189" transform="translate(-17.972 3.084)" fill="#f1bbd5"/>
              <path id="パス_4080" data-name="パス 4080" d="M53.83,119.146a8.849,8.849,0,0,0,3.611-.357c.135-.05.262-.135.393-.194a9.434,9.434,0,0,1-.147-.937c-1.393.619-2.665,1.089-3.857,1.488" transform="translate(26.708 24.894)" fill="#f0b6d2"/>
              <path id="パス_4081" data-name="パス 4081" d="M58.334,104.479c-.594-1.016-1.089-1.969-1.466-2.76a3.522,3.522,0,0,0-1.33,2.629,25.5,25.5,0,0,0,2.8.131" transform="translate(28.857 4.838)" fill="#eb9cc1"/>
              <path id="パス_4082" data-name="パス 4082" d="M58.451,102.834c-3.333-6.429-4.56-3.586-4.939,1.134a19.2,19.2,0,0,1,5.095-.747c-.093-.228-.156-.386-.156-.386" transform="translate(26.308 1.532)" fill="#eb9cc1"/>
              <path id="パス_4083" data-name="パス 4083" d="M71.666,98.274c-2-.49-2.972-1.863-2.559-4.444H66.542c-2.622-1.888-6.091-1.775-9.53-.467-.576,8.778,3.789,16.763,6.143,20.359a5.187,5.187,0,0,0,.838-2.1c-6.371-.332-.754-7.536,0-8.9h2.55a7.9,7.9,0,0,0,1.554.142,2,2,0,0,1,.194-.233,2.381,2.381,0,0,1,1.879-.4c1.066-.831,1.323-2.36,1.5-3.968" transform="translate(30.646 -6.896)" fill="#eb9cc1"/>
              <path id="パス_4084" data-name="パス 4084" d="M36.891,114H34.318c3.67-12.222-7.825-9.666-10.235-11.12-.174.072-.327.174-.5.26a8.586,8.586,0,0,1,1.07.467c3.762,2.023,1.852,6.111,3.586,9.311a9.1,9.1,0,0,0,3,3.171c4.16.476,6.041,5.316,5.644-2.089" transform="translate(-11.347 6.302)" fill="#f4cadf"/>
              <path id="パス_4085" data-name="パス 4085" d="M74.866,123.833c-2.066-7.518-15.618,1.737-15.352-11.127,3.358-2.672,4.022-.869,7.671,0,.5-2.475-.827-3.367-1.75-4.609a13.673,13.673,0,0,1-3.5-2.4c-4.6-.224-6.287,2.1-4.989,7.01-2.012,7.683,2.387,9.783,7.685,11.127,4.027.942,5.054,2.448,4.072,4.519,1.07.488,2.13,1.073,3.189,1.617.788-2.224-1.032-6.714,2.972-6.136" transform="translate(30.005 9.824)" fill="#f4cadf"/>
              <path id="パス_4086" data-name="パス 4086" d="M42.851,106.82c-5.219,1.244-5.016,6.694-10.228,2.229.4,7.407-1.484,2.565-5.644,2.089,4.139,2.791,10.686,3.412,15.37,2.2-2.807-1.014,1.466-2.882.5-6.522" transform="translate(-7.078 11.256)" fill="#f0b6d2"/>
              <path id="パス_4087" data-name="パス 4087" d="M48.248,118.95c-1.8-4.986-1.588-.738-3.186,1.626,1.49.528,2.823.246,4.539-.212a10.047,10.047,0,0,0-1.353-1.414" transform="translate(15.675 23.6)" fill="#f4cadf"/>
              <path id="パス_4088" data-name="パス 4088" d="M28.425,92.934c5.472.273,10.088-5.129,10.616-10.436-1.547.081-3.1.226-4.636.452-2.728,2.687-6.994,4.033-5.98,9.984" transform="translate(-5.452 -19.348)" fill="#f4cadf"/>
              <path id="パス_4089" data-name="パス 4089" d="M77.745,108.808c-2.15-2.586-3.378-5.964-2.563-11.127-1.874-2.084-4.652-3.365-7.674-4.447-1.1,7.561-5.517-9.754-5.117,2.229-.413,2.579.56,3.954,2.559,4.444,7.482-4.266,4.546,1.249,1.649,4.837a58.574,58.574,0,0,1,7.583,3.878,9.815,9.815,0,0,1,3.564.185" transform="translate(37.362 -8.527)" fill="#eda4c6"/>
              <path id="パス_4090" data-name="パス 4090" d="M65.238,118.417c.115-3.805-1.895-5.761-5.117-6.669-2.6,1.441-2.647,5.111-7.683,4.451V113.97H49.886c-.327,3.986,3.137,4.693,2.552,8.9V125.5c1.023.151,2.082.375,3.148.592,3.006-2.742,1.949-9.015,9.652-7.674" transform="translate(21.718 17.457)" fill="#f4cadf"/>
            </g>
          </g>
        </g>
        <path id="パス_4091" data-name="パス 4091" d="M47.2,30.524C39.762,22.06,19.408,18.67,10.18,25.583c-6.307,4.72-.522,6.064-.149,10.978.411,5.58-9,8.15-9.871,14.539-.4,2.875-.176,7.518,2.1,9.652,3.555,3.333,9.4.748,13.606,1.192.912,4.024,2.836,9.246,7.238,9.885,5.21.752,10.411-3.125,13.981-6.274,1.737-1.538,12.985-14.462,15.847-12.877,3.013,1.664-2.091,7.256-3.43,8.7-4.257,4.562-5.341,5.664-4.307,12.536.653,4.377,2.423,12.775,8.241,12.866,4.275.068,6.38-5.675,10.831-5.481,2.586.115,4.742,2.821,7.152,3.094,3.015.332,6.079-2.283,8.823-2.728,6.073-.991,7.452,1.872,10.856-4.6,2.62-4.968,2.1-11.45-.346-16.511-.883-1.827-12.57-10.1-4.758-11.339,5.736-.908,8.956,12.1,15.551,13.333,4.593.856,12.414-1.874,13.742-6.734.7-2.565-1.332-5.165,1.014-7.229,3.853-3.39,10.625-.185,7.945-8.582-1.271-3.972-6.1-4.185-7.22-8.482-.937-3.591,1.077-6-1.353-9.286-2.866-3.859-10.027-4.169-14.747-4.2-7.27-.059-14.986,1.908-19.837,6.863,0,0,21.3,1.411,25.063,9.526,0,0,3.15,2.267-6.287.339,0,0-17.123-2.757-9.236,2.15s15,12.985-.646,6.89c0,0-20.526-10.957-18.708-3.139,0,0,7.062,19.9,2.563,27.118,0,0-1.863,5.682-3.724-2.317,0,0-2.9-19.735-5.648-8.984,0,0-1.511,11.215-7.906,12.7,0,0-2.629-1.64,1.192-7.769,0,0,6.043-12.644-.617-21.958,0,0-18.279,5.937-24.688,16.233,0,0-4.365,7.005-3.5-2.182a42.466,42.466,0,0,1,3.677-8.347s4.189-4.535-4.16-2.593c0,0-9.178-1.61,2.726-4.379,0,0,17.062-1.533,6.475-3.566,0,0-17.594-6.393,9.537-4.092" transform="translate(0 22.682)" fill="#dc0010"/>
        <path id="パス_4092" data-name="パス 4092" d="M67.286,11.569c-2.3,8.9-13.581,16.226-22.762,21.023-1.3.677-19.846,8.322-17.7,1.825.637-1.917,4.808-2.6,6.4-3.053,10.86-3.078,27.33-10.138,34.062-19.794" transform="translate(33.536 14.557)" fill="#dc0010"/>
        <path id="パス_4093" data-name="パス 4093" d="M38.049,40.32c-2.606-3.236-8.053-3.342-11.775-3.7-5.474-.524-11.63-.912-16.522-3.582-4.415-2.412-5.6-5.5-3.166-10.427C9.624,16.47,19.642,17.746,22.024,12.9c1.064-2.159-1.046-4.736-.145-6.651.991-2.132,5.883-2.443,8.175-2.739,3.5-.454,4.788.379,8.017.856,2.814.413,3.839-.892,6.267-1.089,11.919-.971,10.142,23.536,8.683,30.562,0,0-1.843,9.794-3.911.908,0,0-3.387-14.564-10.831-19.2,0,0-5.639-1.685-.479,7.6,0,0,10.253,16.716-.289,6.809,0,0-15.926-12.863-8.29-1.82,0,0,8.13,5.054,8.828,12.184" transform="translate(6.724 4.088)" fill="#dc0010"/>
        <path id="パス_4094" data-name="パス 4094" d="M29.51,39.673s7.129-19.266-2.3-32.425c0,0-1.983-8.527,7.179-6.17,0,0,7.694,5.7,10.7.885s12.656-.318,14.722,8.561S57.42,37.3,36.461,42.173c0,0,12.238-6.965,12.251-13.338,0,0-1.484-3.961-4.618,1.075S34,46.118,39.345,28.02c0,0,.154-14.643-3.433-1.073,0,0-.537,5.743-6.4,12.726" transform="translate(34.012 0.001)" fill="#dc0010"/>
        <path id="パス_4095" data-name="パス 4095" d="M42.938,11.486a3.649,3.649,0,1,0,2.728-4.379,3.65,3.65,0,0,0-2.728,4.379" transform="translate(53.909 8.823)" fill="#dc0010"/>
        <path id="パス_4096" data-name="パス 4096" d="M45.066,14.529a3.647,3.647,0,1,0,2.726-4.381,3.649,3.649,0,0,0-2.726,4.381" transform="translate(56.585 12.648)" fill="#dc0010"/>
        <path id="パス_4097" data-name="パス 4097" d="M47.178,11.132A3.647,3.647,0,1,0,49.9,6.754a3.649,3.649,0,0,0-2.726,4.379" transform="translate(59.245 8.377)" fill="#dc0010"/>
        <path id="パス_4098" data-name="パス 4098" d="M38.413,8.317l-.242-1.043c-1.761-2.6,2.5-2.8,2.039-4.882l1.509-.352q.576-.159,1.134-.3a14.741,14.741,0,0,1,1.933,2.69,1.968,1.968,0,0,1-.831.4c-4.13-1.728-3.1,1.947-5.542,3.489" transform="translate(47.491 2.184)" fill="#eb6e49"/>
        <path id="パス_4099" data-name="パス 4099" d="M27.464,2.495c-.036-.16-.07-.278-.106-.42A4.1,4.1,0,0,1,31.2.3a7.766,7.766,0,0,1-.727,1.5Z" transform="translate(34.425 0.373)" fill="#f4a584"/>
        <path id="パス_4100" data-name="パス 4100" d="M9.853,24.138c1.868-.312,3.643-.515,3.5,1.387-3.033.377-2.656,2.112-4.031,3.144-.2-1.728-3.119-.461-5.558.278a3.922,3.922,0,0,1-.544-1.78A14.858,14.858,0,0,0,8.1,23.444l-1.2-.815a19.5,19.5,0,0,1,6.9-2.649c-.014,1.9-4.885,1.877-3.948,4.158" transform="translate(4.049 25.141)" fill="#f4a584"/>
        <path id="パス_4101" data-name="パス 4101" d="M27.255,4.324c-4.808.346-3.069-.059-7.536,1.752a12.557,12.557,0,0,0,1.427-1.694c1.831-.036,2.893-.84,4.659-1.1a3.061,3.061,0,0,0,1.45,1.039" transform="translate(24.813 4.134)" fill="#f4a584"/>
        <path id="パス_4102" data-name="パス 4102" d="M12.574,6.939a2.456,2.456,0,0,1,.208-.766c.994-2.132,5.885-2.443,8.175-2.739a12.524,12.524,0,0,1,4.083.075c-.025.041-.05.07-.075.111-5.415.434-9.566,3.256-12.391,3.32" transform="translate(15.822 4.156)" fill="#f4a584"/>
        <path id="パス_4103" data-name="パス 4103" d="M27.144,2.184a4.444,4.444,0,0,1,.483-1.1c.036.142.07.257.106.42-.242.26-.431.483-.589.68" transform="translate(34.156 1.364)" fill="#f39e7c"/>
        <path id="パス_4104" data-name="パス 4104" d="M31.861,3.788a15.886,15.886,0,0,0-4.313,1.439c-.12-.178-.212-.366-.339-.544a9,9,0,0,1-.151-2.443c1.136.262,5.221-1.328,4.8,1.549" transform="translate(34.014 2.558)" fill="#f39e7c"/>
        <path id="パス_4105" data-name="パス 4105" d="M28.74,1.794A7.746,7.746,0,0,0,29.463.3a11.731,11.731,0,0,1,2.775.4l.149.108a11.3,11.3,0,0,1-3.647.987" transform="translate(36.164 0.374)" fill="#f39e7c"/>
        <path id="パス_4106" data-name="パス 4106" d="M36.4,1.266A6.569,6.569,0,0,0,39.079.144a9.961,9.961,0,0,1,1.838.738c-1.5.8-3.164,1.8-4.514.384" transform="translate(45.806 0.181)" fill="#f39e7c"/>
        <path id="パス_4107" data-name="パス 4107" d="M35.621.4A4.335,4.335,0,0,1,36.1.178c-.149.12-.327.226-.458.352-.011-.045,0-.084-.016-.129" transform="translate(44.822 0.224)" fill="#f39e7c"/>
        <path id="パス_4108" data-name="パス 4108" d="M3.218,25.689c-.02-1.131.682-2.378,2.913-4.047.239-.178.517-.325.772-.49.386.262.779.531,1.2.815a14.858,14.858,0,0,1-4.887,3.722" transform="translate(4.049 26.616)" fill="#f6b396"/>
        <path id="パス_4109" data-name="パス 4109" d="M51.363,9.263a3.616,3.616,0,0,1-.084,1.911C50.641,8.879,50.153,7.7,49.4,6.826a3.625,3.625,0,0,1,1.96,2.437" transform="translate(62.164 8.589)" fill="#f4a584"/>
        <path id="パス_4110" data-name="パス 4110" d="M43.03,8.981l.014-.027c1.118-.492,2.911-.716,2.719-1.725l-.041-.174a3.607,3.607,0,0,1,4.045,4.528,11.753,11.753,0,0,0-6.737-2.6" transform="translate(54.145 8.828)" fill="#f1906c"/>
        <path id="パス_4111" data-name="パス 4111" d="M53.075,4.214l-1.506.35c-.47-1.233-1.025-2.367-3.5-1.389.237,1.055,1.511.964,1.992,1.741C38.9,7.174,39.839,8.4,30.955,11.562l-.244-1.043c-.239-1.048-1.506-.962-1.994-1.739,3.424-2.224,7.854.626,7.541-1.752-3.654-.346-6.619-1.452-7.491-4.869a11.3,11.3,0,0,0,3.649-.987c1.039.729,7.78,5.217,10.546.777A4.032,4.032,0,0,1,44.308.616c.011.045,0,.084.016.129.131-.126.309-.233.458-.352A5.8,5.8,0,0,1,48.748.316a6.541,6.541,0,0,1-2.676,1.122c1.35,1.416,3.015.422,4.514-.384a13.151,13.151,0,0,1,3.049,2.261c-.391.219-.637.492-.56.9" transform="translate(36.135 0.009)" fill="#f1906c"/>
        <path id="パス_4112" data-name="パス 4112" d="M43.722,39.015c4.465-.117,9.584-.953,14.049-1.066-.33-2.218,1.746-3.726,3.695-4.966.041.495.108,1,.176,1.509a9.464,9.464,0,0,0-2.118,4.149c-6.134.307-10.275,1.947-12.206,4.921a6.3,6.3,0,0,1-1.251-.51c.734-.429,1.35-.9,1.4-1.606-6.423,2.3.736-2.358-3.5-1.387.077.352-.172.675-.542.915-.255-.264-.5-.549-.743-.838.653-.253,1.149-.567,1.043-1.12" transform="translate(53.703 41.503)" fill="#f6b396"/>
        <path id="パス_4113" data-name="パス 4113" d="M51.171,35.019a66.724,66.724,0,0,0,8.469-7.466,4.427,4.427,0,0,1,.215.454,12.347,12.347,0,0,1,.587,2.638,15.209,15.209,0,0,0-2.66,3.7,21.224,21.224,0,0,0-4.846,1.531,9.751,9.751,0,0,0-1.764-.858" transform="translate(64.389 34.67)" fill="#f6b396"/>
        <path id="パス_4114" data-name="パス 4114" d="M19.255,3.611c.492.1,1.009.2,1.608.291a6.929,6.929,0,0,0,1.165.072A12.721,12.721,0,0,1,20.6,5.666c-1.752.2-1.782-.98-1.344-2.055" transform="translate(23.932 4.544)" fill="#f39e7c"/>
        <path id="パス_4115" data-name="パス 4115" d="M18.136,3.395c.072.011.145.029.219.043l-.294.068c.025-.041.05-.07.075-.111" transform="translate(22.726 4.272)" fill="#f39e7c"/>
        <path id="パス_4116" data-name="パス 4116" d="M50.619,19.28c.045.034.1.054.142.09-.056-.025-.117-.043-.172-.072l.029-.018" transform="translate(63.658 24.26)" fill="#f4a584"/>
        <path id="パス_4117" data-name="パス 4117" d="M51.571,21.3a4.659,4.659,0,0,1,1.583-.3,21.9,21.9,0,0,1-.038,4.381c-1.777-1-3.776-1.716-1.545-4.085" transform="translate(63.648 26.435)" fill="#f4a584"/>
        <path id="パス_4118" data-name="パス 4118" d="M58.157,49.676c-.072-1.477-9.04.675-3.744-2.432,2.048,1.014,3.539-2.827,6.863-1.247a6.037,6.037,0,0,0,.917.535A6.331,6.331,0,0,0,61.275,46c-1.344-.971.632-1.217-.056-3.647-4.611,3.1-.716.3-2.236-2.78.2,1.463-10.51,3.952-6.03,1.4a41.967,41.967,0,0,0,15.607-8.035q-1.8-3.272-7-2.78c.7,1.409,2.891,1.188,3.742,2.437-7.236,2.184-10.156-2.606-4.23-4.523-4.81.181-5.641,4.09-7.5,3.424,1.1-.242-.007-1.043-.007-1.043a7.087,7.087,0,0,0-.549-.878c3.695-2.245,7.3-4.442,3.345-8.116,5.779-1.863,2.705,6.045,7.861,4.873a8.044,8.044,0,0,0,.215,1.226c1.073,4.115,5.515,4.517,7.005,8.028a66.89,66.89,0,0,1-8.469,7.464,9.75,9.75,0,0,1,1.764.858,6.134,6.134,0,0,0-1.025.711,3.475,3.475,0,0,0-1.131,3.227c-1.947,1.24-4.022,2.748-3.692,4.968-4.467.111-9.587.948-14.049,1.064-.535.077-1.122.206-1.7.325q-.688-.867-1.346-1.782c5.752-4.085,10.445,1.348,16.364-2.744" transform="translate(52.589 26.639)" fill="#f4a584"/>
        <path id="パス_4119" data-name="パス 4119" d="M56.94,37.8a9.416,9.416,0,0,1,2.118-4.149,6.327,6.327,0,0,1-.059,2.5,6.081,6.081,0,0,1-.646,1.47c-3.444,1.9-6.305,4.069-9.2,5.253a11.92,11.92,0,0,1-3.9.009,5.416,5.416,0,0,1-.526-.158C46.667,39.746,50.8,38.107,56.94,37.8" transform="translate(56.287 42.343)" fill="#f8c1a7"/>
        <path id="パス_4120" data-name="パス 4120" d="M56.758,28.922c.217,2.443-.987,3.218-2.66,3.7a15.21,15.21,0,0,1,2.66-3.7" transform="translate(68.072 36.393)" fill="#f8c1a7"/>
        <path id="パス_4121" data-name="パス 4121" d="M14.573,24.988c.246-.138.447-.3.666-.447a20.129,20.129,0,0,0,2.078,1.052,1.938,1.938,0,0,1-2.744-.605" transform="translate(18.337 30.88)" fill="#ef8661"/>
        <path id="パス_4122" data-name="パス 4122" d="M21.6,24.1l-1.509.35c-.612-1.186-1.82-.251-3.013.7-1.086-2.963,2-4.268,3.306-6.276-2.511,1.215-9.148.795-8.8,3.146,1.224-.036,2.979-.657,3.259.348-6.633.589-8.952,2.457-9.408,4.4A8.65,8.65,0,0,1,6.4,21.8,39.82,39.82,0,0,0,17.05,15.2c2.193-.8,4.083-1.748,4.952-3.516a3.78,3.78,0,0,0,.208-2.378c.176-.3.355-.592.5-.888,5.043-.255,3.333.165,5.786-2.446,3.236,3.588,11.12.806,17.066-1.768-2.2,5.07,3.209,1.52,5.894,2.265a15.257,15.257,0,0,1,.779,1.748c-5.266,1.931-9.517.425-11.486,2.613-.526-.729-.522-2.051-1.994-1.739-4.957,3.476-5.535-1.847-8.8,3.148,1.411,0,8.15.316,3.744,2.437-.612-1.192-1.818-.253-3.015.7q-.379-3.516-5.246-2.084c-.427,1.73-1.619,3.155-2.042,4.88,2.988-.709,1.253-3.295,5.542-3.489,1.667,1.658,2.927,3.765,5.732,4.171-4.7,1.583-7.041,3.184-2.283,3.837a10.438,10.438,0,0,1-2.64.576c-1.651-.915-2.83-1.226-2.574-.034A10.853,10.853,0,0,0,21.6,24.1" transform="translate(6.746 5.295)" fill="#ef8661"/>
        <path id="パス_4123" data-name="パス 4123" d="M19.651,21.753c-4.487-.917-1.843,5.28-4.282,2.1a24.745,24.745,0,0,1,2.233-3.11A24.737,24.737,0,0,1,27.855,27.1a99.342,99.342,0,0,0-10.948-.477c1.059-1.565,1.739-3.286,2.744-4.873" transform="translate(19.339 26.096)" fill="#ef8661"/>
        <path id="パス_4124" data-name="パス 4124" d="M31.2,18.85c-2.355-.025-4.158-.664-6.513-.687-.149.888.436,2.069-1.023,2.439.526-5.741-7.59-3.01-12.319-.908a20.827,20.827,0,0,1-3.485-1.47c-.37-.2-.687-.418-1.012-.635A5.647,5.647,0,0,1,8.4,16.447c4.611-1.617,4.819,2.672,7.778-.709.235.619.515,1.183,1.752.693,5.481-2.211,7.882,1.825,10.788-1.416-.44,4.438,5.854,1.42,4.715,6.619l1.425-.33a11.718,11.718,0,0,1,1.3,4.2c-1.789-2.222-4.914-2.958-7.906-3.324,1.267-1,2.624-1.96,2.949-3.333" transform="translate(8.617 18.894)" fill="#ef8661"/>
        <path id="パス_4125" data-name="パス 4125" d="M12.732,19.459c-1.238.49-1.518-.075-1.752-.693-.052-2.236,3.6-3,3.55-5.235a10.853,10.853,0,0,1,5.576-.865,10.527,10.527,0,0,0,1.551,2.981c-4.846.28-8.938.081-8.925,3.812" transform="translate(13.815 15.865)" fill="#ee805b"/>
        <path id="パス_4126" data-name="パス 4126" d="M22.338,20c-4.756-.653-2.414-2.254,2.283-3.837-2.8-.406-4.063-2.513-5.732-4.171-4.289.194-2.554,2.782-5.542,3.489.422-1.725,1.615-3.15,2.042-4.88q4.861-1.433,5.248,2.084c1.195-.953,2.4-1.892,3.013-.7,4.406-2.121-2.333-2.437-3.744-2.434,3.268-5,3.846.325,8.8-3.15,1.472-.312,1.468,1.009,1.994,1.739l.486,2.091c1.965-.8,2.534-2.157,5.786-2.446-3.9,3.006-7.821,5.813.44,8.708l-3.871.9a17.847,17.847,0,0,0-5.336-5.756s-5.214-1.536-.955,6.691c-.108,1.093.517,2.631,1.38,2.434l.027.047a13.894,13.894,0,0,1-5.289,2.152,41.68,41.68,0,0,0-3.67-2.387A10.444,10.444,0,0,0,22.338,20" transform="translate(16.796 7.992)" fill="#ee805b"/>
        <path id="パス_4127" data-name="パス 4127" d="M39.511,2.371c-.077-.406.169-.68.56-.9.194.192.386.388.576.6-.375.095-.752.2-1.136.3" transform="translate(49.699 1.852)" fill="#ed7853"/>
        <path id="パス_4128" data-name="パス 4128" d="M39.3,9.6c1.118-.506,2.97-.718,2.775-1.743-1.226.034-2.981.659-3.261-.348l3.794-4.182a1.982,1.982,0,0,0,.831-.4A14.818,14.818,0,0,1,44.98,6.836a17.469,17.469,0,0,1,.325,2.019C44.838,11.084,40,12,39.3,9.6" transform="translate(48.839 3.683)" fill="#ed7853"/>
        <path id="パス_4129" data-name="パス 4129" d="M31.928,5.761c.8,1.3,2.606,1.5,2.48,3.83l-1.509.35c-2.36.357-2.046,1.777-2.387,2.938a27.765,27.765,0,0,0-2.568-8.261,5.561,5.561,0,0,0,3.74.1Z" transform="translate(35.162 5.811)" fill="#ef8661"/>
        <path id="パス_4130" data-name="パス 4130" d="M22.543,16.35c-2.906,3.243-5.307-.795-10.788,1.416-.014-3.731,4.079-3.532,8.925-3.812.151.228.3.456.477.709a23.561,23.561,0,0,1,7.527,7.976l-1.425.332c1.138-5.2-5.156-2.184-4.715-6.621" transform="translate(14.791 17.558)" fill="#ed7853"/>
        <path id="パス_4131" data-name="パス 4131" d="M19.512,11.654c.156.3.3.587.479.915,0,0,.373.607.9,1.52-.863.2-1.488-1.341-1.38-2.434" transform="translate(24.537 14.664)" fill="#ed7853"/>
        <path id="パス_4132" data-name="パス 4132" d="M24.969,18.136c-.059-.233-.12-.427-.181-.689l-.113-.454c.05.018.086.023.138.041a8.181,8.181,0,0,0,.156,1.1" transform="translate(31.049 21.382)" fill="#ed7853"/>
        <path id="パス_4133" data-name="パス 4133" d="M23.075,12.753c.163.28.336.587.522.912a.617.617,0,0,0-.086.009c2.166,4.325-3.186-.145-2.529,2.787,2.315.734,2.8-.133,3.864-.488,2.071,4.018,3.588,8.2-2.99,2.017,0,0-1.9-1.531-4.069-3.085a13.93,13.93,0,0,0,5.289-2.152" transform="translate(22.38 16.047)" fill="#ed7853"/>
        <path id="パス_4134" data-name="パス 4134" d="M48.28,7.887c-2,.452-1.8-1.511-3.5-1.391-.989,2.279,5.325,2.446.973,4.18C43.728,7.3,38.229,9.2,34.959,12.086c.933-.156,1.82-.26,1.752.7l-4.523,1.05c.129-2.328-1.678-2.525-2.48-3.828,8.884-3.168,7.94-4.388,19.105-6.648-.481-.775-1.755-.687-1.992-1.739,2.475-.978,3.033.156,3.5,1.389.465,2.084-3.8,2.285-2.042,4.882" transform="translate(37.382 1.568)" fill="#ed7853"/>
        <path id="パス_4135" data-name="パス 4135" d="M39.263,15.772c-1.513.348-1.6,1.262-2.771,1.746,3.873-2.556-4.853-3.516-1.215-5.228.639,1.488,3.866.115,6.271-.355.339-3.026,4.806-4.417,6.317-6.978.28,1,2.035.379,3.261.348.194,1.025-1.658,1.238-2.775,1.743.7,2.4,5.54,1.481,6.007-.748a20.8,20.8,0,0,1,.113,2.2,14.566,14.566,0,0,0-6.653,3.076c.106,1.439,5.973,2.708,2.477,3.823-1.3-2.168-7.046,3.191-2.283,3.844a31.168,31.168,0,0,0-5.759,2.322c-.718-.689-2.014-.985-3.934,2.1-.273.438-.576.926-.894,1.432a22.217,22.217,0,0,1-2,1.481,3.26,3.26,0,0,0,1.689-.987c-2.584,4.065-6.07,9.069-5.409,3.92,1.457-.574,2.419-1.348,2.211-2.584a8.873,8.873,0,0,0-1.962,1.107c.187-.939.458-2.08.829-3.457,2.717-2.717,5.284-5.488,6.484-8.807" transform="translate(39.789 6.237)" fill="#eb6e49"/>
        <path id="パス_4136" data-name="パス 4136" d="M34.269,19.7c-.675.038-1.418.081-2.2.131.508-.178,1.016-.361,1.531-.551a2.04,2.04,0,0,0,.666.42" transform="translate(40.357 24.263)" fill="#eb6e49"/>
        <path id="パス_4137" data-name="パス 4137" d="M36.952,18.974a35.756,35.756,0,0,0-3.9.145,39.491,39.491,0,0,0,3.6-2.988A8.154,8.154,0,0,0,38.7,18.062c-.556.321-1.154.617-1.748.912" transform="translate(41.583 20.298)" fill="#eb6e49"/>
        <path id="パス_4138" data-name="パス 4138" d="M43.611,7.538A3.624,3.624,0,0,1,44.7,7.072c.1-.023.194-.023.291-.038l.041.174Z" transform="translate(54.876 8.851)" fill="#eb6e49"/>
        <path id="パス_4139" data-name="パス 4139" d="M31.206,19.019s.4-.23,1.028-.621a1.916,1.916,0,0,1,.587.163c-.542.149-1.048.325-1.615.458" transform="translate(39.267 23.15)" fill="#eb6e49"/>
        <path id="パス_4140" data-name="パス 4140" d="M29.217,16.565l.185-.041c-.266.379-.549.761-.849,1.152a5.5,5.5,0,0,1,.664-1.111" transform="translate(35.929 20.792)" fill="#eb6e49"/>
        <path id="パス_4141" data-name="パス 4141" d="M31.841,19.414c-3.067-1.134.524-3.819-1.7-7.317l1.509-.35,4.523-1.052c.068-.955-.82-.851-1.752-.693,3.268-2.886,8.767-4.79,10.792-1.411,4.354-1.734-1.962-1.9-.971-4.18,1.7-.12,1.5,1.843,3.5,1.391l.242,1.046C50.422,5.3,49.392,1.63,53.523,3.355L49.729,7.54c-1.511,2.561-5.978,3.952-6.316,6.978-2.405.47-5.632,1.843-6.271.355-3.638,1.712,5.088,2.672,1.217,5.228a3.43,3.43,0,0,0-2.972,1.811c-.029-.659-.075-1.373-.149-2.028.827-.86,1.432-1.766.881-2.57a3.518,3.518,0,0,0-1.292.635c-.309-.7-.775-.628-1.477,1.066a4.571,4.571,0,0,1-1.509.4" transform="translate(37.923 3.655)" fill="#e85c3a"/>
        <path id="パス_4142" data-name="パス 4142" d="M31.47,6.975c2.222,3.5-1.369,6.183,1.7,7.317-.757,3.15-6.362,3.451-.537,4.528a4.945,4.945,0,0,1-3.315.723,40.065,40.065,0,0,0-.237-9.629c.343-1.161.029-2.581,2.389-2.938" transform="translate(36.593 8.777)" fill="#ed7853"/>
        <path id="パス_4143" data-name="パス 4143" d="M27.3,8.245c-3.252.289-3.821,1.644-5.786,2.446L21.033,8.6C23,6.411,27.252,7.917,32.521,5.984a27.753,27.753,0,0,1,1.452,6.292c-5.653,2.055,2.466-4.754-4.675-2.294,5.223,2.647-3.591,3.087-3.792,4.187,1.994-.452,1.8,1.511,3.5,1.389,2.157-1.687,3.8-1.269,5.147-1.409.129,1.635.176,3.286.163,4.905a18.913,18.913,0,0,0-6.569-2.1c-8.261-2.9-4.34-5.7-.44-8.708" transform="translate(26.466 7.53)" fill="#ed7853"/>
        <path id="パス_4144" data-name="パス 4144" d="M26.513,13.632c-1.7.122-1.506-1.841-3.5-1.389.2-1.1,9.017-1.54,3.794-4.187,7.141-2.459-.98,4.35,4.672,2.294.075.617.129,1.244.178,1.872-1.35.14-2.988-.278-5.144,1.409" transform="translate(28.958 9.454)" fill="#ee805b"/>
        <path id="パス_4145" data-name="パス 4145" d="M14.8,14.2c-.28-1-2.032-.384-3.256-.348-.35-2.351,6.287-1.933,8.8-3.148-1.31,2.01-4.392,3.315-3.306,6.278,1.192-.953,2.4-1.888,3.013-.7a4.15,4.15,0,0,0-2.527,2.789c-4.433,1.836-4.853-.768-9.288,1.061.239,1.048,1.513.96,2,1.743a5.558,5.558,0,0,0-1.551,1.143A6.593,6.593,0,0,1,5.394,18.6c.456-1.94,2.773-3.808,9.406-4.4" transform="translate(6.787 13.468)" fill="#ee805b"/>
        <path id="パス_4146" data-name="パス 4146" d="M32.643,14.966c-5.824-1.077-.219-1.378.537-4.528a4.571,4.571,0,0,0,1.509-.4,35.134,35.134,0,0,0-1.348,4.27,16.58,16.58,0,0,1-1.061,3.9,10.979,10.979,0,0,1-3.2-.341c.1-.7.183-1.425.253-2.175a4.947,4.947,0,0,0,3.315-.723" transform="translate(36.585 12.631)" fill="#eb6e49"/>
        <path id="パス_4147" data-name="パス 4147" d="M32.627,11.855a7.256,7.256,0,0,0-.413-1.935,3.512,3.512,0,0,1,1.294-.635c.549.8-.054,1.71-.881,2.57" transform="translate(40.535 11.683)" fill="#eb6e49"/>
        <path id="パス_4148" data-name="パス 4148" d="M32.732,12.941c0,.653-.016,1.292-.041,1.929-3.2-1.583-6.1-3.076-9.06-1.233l.183.788c-.463-.91-.973-1.811-1.524-2.683l3.871-.9a18.925,18.925,0,0,1,6.572,2.1" transform="translate(28.048 13.641)" fill="#eb6e49"/>
        <path id="パス_4149" data-name="パス 4149" d="M43.009,47.247c-1.7-2.983,6.158-7.256-.185-9.566a8.557,8.557,0,0,0,3.437.418,3.437,3.437,0,0,0,1.073.434c-1.082-4.539,8.132-5,9.094-8.726-1.554-1-3.9-1.61-6.018-2.364a11.27,11.27,0,0,0,3.568.208c1.865.666,2.694-3.243,7.507-3.424-5.928,1.917-3.006,6.707,4.228,4.523-.851-1.249-3.037-1.028-3.742-2.437q5.2-.488,7,2.78A42.02,42.02,0,0,1,53.364,37.13c-4.483,2.547,6.228.059,6.027-1.4,1.52,3.083-2.373,5.883,2.236,2.78.689,2.43-1.287,2.676.056,3.647-3.324-1.581-4.812,2.261-6.863,1.247-5.293,3.107,3.672.955,3.744,2.432C52.645,49.926,47.953,44.49,42.2,48.575c-.248-.341-.492-.68-.734-1.021a5.65,5.65,0,0,0,1.54-.307" transform="translate(52.181 30.484)" fill="#f39e7c"/>
        <path id="パス_4150" data-name="パス 4150" d="M50.42,32.164a6.129,6.129,0,0,1,.917.535,6.233,6.233,0,0,1-.917-.535" transform="translate(63.444 40.472)" fill="#f39e7c"/>
        <path id="パス_4151" data-name="パス 4151" d="M51.557,13.859a3.65,3.65,0,1,1,.766-6.82c.75.869,1.238,2.053,1.877,4.347a3.632,3.632,0,0,1-2.642,2.473" transform="translate(59.245 8.377)" fill="#f39e7c"/>
        <path id="パス_4152" data-name="パス 4152" d="M54.258,25.346c3.957,3.674.35,5.872-3.345,8.116-1.459-2.2-4.225-3.866-7.432-5.108.077-.187.129-.357.226-.553l-.244-1.048,1.509-.35c1.845.321.508,3.546,5.492,3.132-.226-1.355,1.6-1.9.779-3.487,4.381-2.1-2.38-2.387-2.48-3.826,2.344-.653,5.257-1.075,4.036-3.148-3.48,2.471-2.3.44-2.737-1,3.41.23,7.109.878,9.526,2.71l-.029.018c.054.029.115.05.172.075a6.828,6.828,0,0,1,1.251,1.276,5.992,5.992,0,0,1,1.131,2.536,4.658,4.658,0,0,0-1.583.3c-2.231,2.369-.233,3.087,1.545,4.083a9.437,9.437,0,0,0,.045,1.147c-5.156,1.172-2.082-6.737-7.861-4.873" transform="translate(54.69 22.749)" fill="#f39e7c"/>
        <path id="パス_4153" data-name="パス 4153" d="M43.044,36.774c-.224-.257-.438-.524-.655-.8.578-.117,1.163-.248,1.7-.323.108.553-.391.867-1.041,1.12" transform="translate(53.339 44.864)" fill="#f39e7c"/>
        <path id="パス_4154" data-name="パス 4154" d="M47.413,12.039c-.065-.639-.045-1.249,1.181-1.378a3.567,3.567,0,0,1,.714,1.443,3.644,3.644,0,0,1-1.33,3.713,4.717,4.717,0,0,1-.565-3.778" transform="translate(59.448 13.415)" fill="#f39e7c"/>
        <path id="パス_4155" data-name="パス 4155" d="M31.657,17.272c.054-.422.135-.91.248-1.477a8.972,8.972,0,0,1,1.962-1.109c.208,1.235-.754,2.01-2.211,2.586" transform="translate(39.834 18.48)" fill="#ed7853"/>
        <path id="パス_4156" data-name="パス 4156" d="M35.848,11.492c1.172-.483,1.258-1.4,2.771-1.746-1.2,3.32-3.767,6.091-6.486,8.807.228-.847.488-1.768.793-2.8,0,0,.011-1.118-.047-2.448a3.419,3.419,0,0,1,2.97-1.813" transform="translate(40.433 12.263)" fill="#ed7853"/>
        <path id="パス_4157" data-name="パス 4157" d="M22.884,12.551c2.963-1.841,5.858-.348,9.063,1.233a61.288,61.288,0,0,1-1,9.413S29.93,28.6,28.557,27.723a9.3,9.3,0,0,0,1.766-3.688,21.531,21.531,0,0,1-3.8-1.845A55.777,55.777,0,0,0,24.2,15.747c1.646-1.052.876-4.042-1.312-3.2" transform="translate(28.795 14.724)" fill="#ed7853"/>
        <path id="パス_4158" data-name="パス 4158" d="M44.65,11.566l0,.011-.007,0,.009-.016" transform="translate(56.172 14.553)" fill="#ed7853"/>
        <path id="パス_4159" data-name="パス 4159" d="M37.631,21.83a1.817,1.817,0,0,0-.271-1.086,22.14,22.14,0,0,1,2.705-1.5c-.081,1.152-.691,2.093-2.434,2.588" transform="translate(47.01 24.212)" fill="#ed7853"/>
        <path id="パス_4160" data-name="パス 4160" d="M47.629,11.235a3.062,3.062,0,0,1-.479.163,3.642,3.642,0,0,1-4.176-2.125c2.34-.215,3.491.881,4.654,1.962" transform="translate(54.076 11.633)" fill="#ed7853"/>
        <path id="パス_4161" data-name="パス 4161" d="M24.259,34.358l-.244-1.043c-.09-1.6-1.382-1.877-2.071-2.821.479-.224.953-.445,1.4-.646a1.22,1.22,0,0,0,1.012-.438c2.132-.919,3.785-1.529,4.593-1.813a2.651,2.651,0,0,0,.991.477c.183.289.373.574.533.865a3.027,3.027,0,0,0-1.159-.163c.221.973,1.314.991,1.859,1.608.018.047.041.09.061.138-4.925.248-4.221,2.73-6.978,3.837" transform="translate(27.612 34.726)" fill="#ed7853"/>
        <path id="パス_4162" data-name="パス 4162" d="M29.939,20.326l-.187.041a5.487,5.487,0,0,0-.664,1.111c-.3.4-.621.793-.96,1.195A48.352,48.352,0,0,0,30.267,13.5a10.971,10.971,0,0,0,3.2.339,29.7,29.7,0,0,1-3.532,6.484" transform="translate(35.394 16.992)" fill="#ed7853"/>
        <path id="パス_4163" data-name="パス 4163" d="M35.306,13.876c-.1.16-.208.327-.314.495a3.259,3.259,0,0,1-1.689.985,21.191,21.191,0,0,0,2-1.479" transform="translate(41.906 17.46)" fill="#ed7853"/>
        <path id="パス_4164" data-name="パス 4164" d="M46.076,10.5a4.673,4.673,0,0,0,2.419,1.034,21.458,21.458,0,0,0-3.5,1.028A3.637,3.637,0,0,1,46.076,10.5" transform="translate(56.611 13.217)" fill="#ed7853"/>
        <path id="パス_4165" data-name="パス 4165" d="M44.37,13.427c3.5-1.116-2.371-2.385-2.477-3.826a14.61,14.61,0,0,1,6.653-3.076,27.07,27.07,0,0,1-3.9,13.789c-.108-.093-.2-.154-.316-.264-2.563-.183-1.73.364-.334,1.3a27.22,27.22,0,0,1-3.356,4.106c.8-1.4.987-2.755-.346-2.263-1.6-3.031.011,5.016-3.256-.343-.237.151-.467.3-.7.458a6.49,6.49,0,0,0,.68-2.69,3.13,3.13,0,0,0-.684-1.028,31.377,31.377,0,0,1,5.759-2.324c-4.763-.65.987-6.009,2.283-3.841" transform="translate(45.712 8.212)" fill="#ed7853"/>
        <path id="パス_4166" data-name="パス 4166" d="M38.619,16.913a1.274,1.274,0,0,0,1.226.673,29.65,29.65,0,0,1-3.155,2.1,8.186,8.186,0,0,1-2.048-1.931c.266-.253.528-.506.786-.768a4.2,4.2,0,0,0,.42,1.678c1.542-.517.991-1.868.82-3.065.16-.194.325-.388.474-.587,2.543-.784,3.412,1.364,1.477,1.9" transform="translate(43.59 18.675)" fill="#ed7853"/>
        <path id="パス_4167" data-name="パス 4167" d="M38.282,38.113a14.13,14.13,0,0,1-3.627,2.674c-.081-.4-.165-.788-.248-1.181,2.7-3.561,8.785-1.025,10.923-5.336-3.322.332-8.392.477-11.928,1.2-.924-3.437-1.777-5.863-1.777-5.863-.714-3.071,2.026-3.238,5.61-2.319-1.217.605-2.455,1.448-.9,2.464a7.1,7.1,0,0,0,5.248,2.08,11.056,11.056,0,0,0,2.918-1.89c2.053.9,3.835,1.782,4.871,2.308-1.154,1.766-.373,4.3-.346,6.531a3.935,3.935,0,0,0-2.685-.614c-2.509.4-2.992,1.524-2.482,2.927-2.306-1.127-4.77-1.719-5.58-2.981" transform="translate(39.65 33.722)" fill="#ed7853"/>
        <path id="パス_4168" data-name="パス 4168" d="M38.995,35.6c.352.336.684.659,1,.96l-.919.215a8.433,8.433,0,0,0-.077-1.174" transform="translate(49.068 44.798)" fill="#ed7853"/>
        <path id="パス_4169" data-name="パス 4169" d="M32.247,19.829a1.92,1.92,0,0,0-.585-.163c.763-.481,1.881-1.213,3.128-2.134a36.374,36.374,0,0,1,3.9-.142,35.753,35.753,0,0,1-6.447,2.439" transform="translate(39.841 21.882)" fill="#ed7853"/>
        <path id="パス_4170" data-name="パス 4170" d="M28.869,35.37c-.244-.174-.5-.33-.732-.522,4.485.081,6.7-.309,5.3-4.535-2.615,1.1-3.943.777-5.149.321,1.177-.373,2.371-.623,3.069-.824,1.759-.5,3.679-1.113,5.668-1.818.777-.047,1.522-.093,2.2-.129a2.032,2.032,0,0,1-.666-.422C47.278,24.2,57.19,19.169,63.127,12.8a16.86,16.86,0,0,1-.693,3.227c-.513.7-1.064,1.391-1.664,2.064-.928-.655-8.76,4.636-5.461,3.83l.235,1.007q-.7.559-1.439,1.1a2.706,2.706,0,0,0-3.071-.007,17.941,17.941,0,0,1,.51,1.813,97.081,97.081,0,0,1-8.891,5.212c-.833.436-8.771,3.735-13.785,4.329" transform="translate(35.405 16.101)" fill="#ed7853"/>
        <path id="パス_4171" data-name="パス 4171" d="M41.018,14.3c1.332-.492,1.143.858.346,2.263a27.228,27.228,0,0,1-2.911,2.59,1.27,1.27,0,0,1-1.226-.671c1.935-.54,1.066-2.687-1.477-1.9a12.035,12.035,0,0,0,1.314-2.166c.23-.156.463-.307.7-.458,3.268,5.359,1.66-2.687,3.256.343" transform="translate(44.983 17.106)" fill="#eb6e49"/>
        <path id="パス_4172" data-name="パス 4172" d="M35.411,18.242a4.171,4.171,0,0,1-.42-1.678c.438-.452.849-.912,1.24-1.387.169,1.2.72,2.545-.82,3.065" transform="translate(44.03 19.097)" fill="#eb6e49"/>
        <path id="パス_4173" data-name="パス 4173" d="M25.046,27.706c.343-.12.574-.2.574-.2.158.221.273.449.418.673a2.668,2.668,0,0,1-.991-.477" transform="translate(31.516 34.616)" fill="#eb6e49"/>
        <path id="パス_4174" data-name="パス 4174" d="M35.306,20.553c1.4,4.225-.813,4.616-5.3,4.535.226.192.488.348.732.522-2.8.33-4.684-.178-3.916-2.5.357-1.079,1.829-1.759,3.333-2.231,1.206.456,2.532.777,5.149-.323" transform="translate(33.536 25.862)" fill="#eb6e49"/>
        <path id="パス_4175" data-name="パス 4175" d="M33,44.117l-4.521,1.052c-1.644-3.184-.768-5.366,1.556-6.971a6.233,6.233,0,0,1-1.619.492c.264-.745.483-1.461.655-2.109,1.143.449,2.864.26,5.025-.42.133.547.255,1.093.368,1.628a4.573,4.573,0,0,0-.926,1.8,2.138,2.138,0,0,1,1.348.332c.106.578.2,1.1.269,1.524C33.5,41.96,32.1,42.581,33,44.117" transform="translate(34.77 45.502)" fill="#eb6e49"/>
        <path id="パス_4176" data-name="パス 4176" d="M28.933,35.145a2.65,2.65,0,0,0,2.794-.158c.226.7.436,1.463.632,2.249-.985-.872-2.794-.833-3.426-2.091" transform="translate(36.407 44.024)" fill="#eb6e49"/>
        <path id="パス_4177" data-name="パス 4177" d="M43.481,41.206c-1.312.878-3.911,5.854-5.542,3.494a4.161,4.161,0,0,0,2.527-2.791c-5.867,3.356-5.919-2.265-6.222-6.267l-1.077.251c-.084-.47-.172-.942-.264-1.409a14.13,14.13,0,0,0,3.627-2.674c.811,1.262,3.275,1.854,5.58,2.981.626,1.721,2.748,3.848,4.55,5.585a8.09,8.09,0,0,1,.077,1.172l.921-.212c.294.287.569.556.806.8l.025.113c-6.779,2.52-1.962-1.28-5.009-1.039" transform="translate(41.402 40.026)" fill="#eb6e49"/>
        <path id="パス_4178" data-name="パス 4178" d="M26.407,29.869c.14.533.248,1.068.339,1.6a2.281,2.281,0,0,1-.339-1.6" transform="translate(33.208 37.584)" fill="#eb6e49"/>
        <path id="パス_4179" data-name="パス 4179" d="M33.351,35.443c-.321-1.477-.664-2.87-1-4.135,3.534-.725,8.606-.869,11.926-1.2-2.139,4.311-8.227,1.775-10.923,5.336" transform="translate(40.704 37.884)" fill="#eb6e49"/>
        <path id="パス_4180" data-name="パス 4180" d="M29.773,44.077c-3.819,6.129-1.192,7.766-1.192,7.766A6.532,6.532,0,0,0,31.211,50.5a5.747,5.747,0,0,0-.461,1.213l-7.538,1.752-.973-4.18c-.077-2.2,1.05-3.932.318-6.4,1.619-1.877,4.015-5.063,3.139-6.8a75.369,75.369,0,0,1,6.56-4.3,29.614,29.614,0,0,1-2.484,12.283" transform="translate(27.979 40.007)" fill="#eb6e49"/>
        <path id="パス_4181" data-name="パス 4181" d="M28.962,34.283c.47-.763.933-.811,1.378-.375a5.5,5.5,0,0,1-1.378.375" transform="translate(36.443 42.319)" fill="#eb6e49"/>
        <path id="パス_4182" data-name="パス 4182" d="M43.38,29.41c-.684-.481-1.38-.955-2.093-1.4-5.239-3.263.56-3.139,5.045-2.687-1.088,1.5-3.071,2.949-2.952,4.085" transform="translate(49.339 31.569)" fill="#ef8661"/>
        <path id="パス_4183" data-name="パス 4183" d="M47.379,26.629a76.729,76.729,0,0,0-11.472-1.811,18.874,18.874,0,0,1,3.284-2.611,1.843,1.843,0,0,1,.271,1.086C41.2,22.8,41.815,21.86,41.9,20.708a28.427,28.427,0,0,1,6.527-2.071,2.828,2.828,0,0,0,.759-.138c1.111-.19,2.227-.336,3.351-.422-.086,2.593-3.658,6.084-5.153,8.552" transform="translate(45.182 22.746)" fill="#ef8661"/>
        <path id="パス_4184" data-name="パス 4184" d="M41.764,27.491c3.613-.49,6.039.336,10.79-1.409-1.357,4.779-4.738,4.8-8.311,5.375-.675-.641-1.45-1.308-2.3-1.978.106.034.183.068.3.1Z" transform="translate(52.552 32.819)" fill="#ef8661"/>
        <path id="パス_4185" data-name="パス 4185" d="M41.348,18.034c-.84.617-1.691,1.226-2.563,1.807a18.7,18.7,0,0,0-.508-1.813,2.706,2.706,0,0,1,3.071.007" transform="translate(48.164 22.089)" fill="#ef8661"/>
        <path id="パス_4186" data-name="パス 4186" d="M45.1,22.3l.242,1.048c-.271.135-.474.251-.707.375q-1.216-.451-2.48-.829c1.247-1.064,2.38-1.938,2.945-.594" transform="translate(53.05 27.201)" fill="#ef8661"/>
        <path id="パス_4187" data-name="パス 4187" d="M34.055,29.48c-1.558-1.016-.321-1.859.9-2.464a50.878,50.878,0,0,1,7.27,2.654A11.056,11.056,0,0,1,39.3,31.56a7.1,7.1,0,0,1-5.248-2.08" transform="translate(41.933 33.994)" fill="#ef8661"/>
        <path id="パス_4188" data-name="パス 4188" d="M39.77,29.213c.605.307.96.5.96.5.318.124.569.208.869.318a9.3,9.3,0,0,0-1.107,1.195c3.035-1.969,2.15,2.884.23,5.492a7.7,7.7,0,0,0-1.3-.971c-.029-2.233-.808-4.765.343-6.531" transform="translate(49.253 36.759)" fill="#ef8661"/>
        <path id="パス_4189" data-name="パス 4189" d="M46.1,11.077a3.587,3.587,0,0,1,1.689-.933,3.628,3.628,0,0,1,3.665,1.285c-1.226.131-1.249.738-1.181,1.38a6.611,6.611,0,0,0-4.494,3.166,3.552,3.552,0,0,1-.766-2.836,21.458,21.458,0,0,1,3.5-1.028A4.673,4.673,0,0,1,46.1,11.077" transform="translate(56.586 12.644)" fill="#ef8661"/>
        <path id="パス_4190" data-name="パス 4190" d="M46.3,11.575l.007,0a17.845,17.845,0,0,1-2.979,5.994,16.842,16.842,0,0,0,.693-3.225A26.1,26.1,0,0,0,46.3,11.575" transform="translate(54.515 14.559)" fill="#ef8661"/>
        <path id="パス_4191" data-name="パス 4191" d="M43.035,8.835a3.586,3.586,0,0,1,1.3-1.393l1.418-.332c.194,1.012-1.6,1.233-2.719,1.725" transform="translate(54.151 8.947)" fill="#ef8661"/>
        <path id="パス_4192" data-name="パス 4192" d="M46.08,15.17c-.235.262-.483.524-.732.784-.228-.032-.438-.041-.691-.093.075.221.14.422.2.614-.8.811-1.669,1.594-2.568,2.358A13.684,13.684,0,0,0,40.619,19c-3.3.808,4.53-4.485,5.461-3.83" transform="translate(50.097 19.018)" fill="#ef8661"/>
        <path id="パス_4193" data-name="パス 4193" d="M43.141,10.983a3.816,3.816,0,0,1-.206-.605,3.607,3.607,0,0,1,.327-2.491A11.753,11.753,0,0,1,50,10.489a3.627,3.627,0,0,1-2.2,2.457c-1.163-1.084-2.315-2.177-4.654-1.962" transform="translate(53.91 9.924)" fill="#ef8661"/>
        <path id="パス_4194" data-name="パス 4194" d="M6.651,17.217c4.435-1.831,4.855.775,9.288-1.061a4.15,4.15,0,0,1,2.527-2.789l1.509-.35c.052,2.233-3.6,3-3.55,5.235-2.958,3.381-3.166-.908-7.778.707-.486-.781-1.757-.693-2-1.741" transform="translate(8.369 16.379)" fill="#ed7853"/>
        <path id="パス_4195" data-name="パス 4195" d="M55.916,19.146c1.222,2.073-1.691,2.5-4.036,3.15.1,1.436,6.861,1.725,2.48,3.823-3.518-.054-3.1-4.458-7.242-3.821.524,2.884,3,1.52.971,4.176l-1.509.35c-.565-1.341-1.7-.47-2.945.594-.883-.262-1.768-.506-2.649-.718,1.5-2.468,5.068-5.96,5.153-8.552,1.073-.084,2.148-.133,3.211-.124,1.161.009,2.471.036,3.828.129.44,1.434-.743,3.467,2.737.994" transform="translate(51.573 22.678)" fill="#f1906c"/>
        <path id="パス_4196" data-name="パス 4196" d="M42.65,15.538c-.165.176-.323.352-.492.522-.061-.192-.124-.391-.2-.614.253.052.463.061.693.093" transform="translate(52.795 19.435)" fill="#f1906c"/>
        <path id="パス_4197" data-name="パス 4197" d="M41.449,18.4c.253-.05.506-.095.759-.138a2.844,2.844,0,0,1-.759.138" transform="translate(52.156 22.982)" fill="#f1906c"/>
        <path id="パス_4198" data-name="パス 4198" d="M41.842,16.761c-.47.4-.948.79-1.439,1.177l-.235-1.009a13.675,13.675,0,0,1,1.673-.167" transform="translate(50.545 21.091)" fill="#f1906c"/>
        <path id="パス_4199" data-name="パス 4199" d="M50.385,15.049a3.59,3.59,0,0,1-1.391.668,3.646,3.646,0,0,1-3.665-1.278,6.616,6.616,0,0,1,4.492-3.168,4.725,4.725,0,0,0,.565,3.778" transform="translate(57.038 14.182)" fill="#f1906c"/>
        <path id="パス_4200" data-name="パス 4200" d="M8.839,18.494c4.731-2.1,12.845-4.833,12.319.908,1.461-.37.874-1.551,1.025-2.439,2.353.023,4.155.662,6.511.687-.323,1.373-1.682,2.333-2.949,3.333-1.362-.169-2.7-.266-3.866-.375-4.243-.406-8.886-.748-13.039-2.114" transform="translate(11.122 20.094)" fill="#f29672"/>
        <path id="パス_4201" data-name="パス 4201" d="M19.461,37.389l-8.313,5.235a4.192,4.192,0,0,0-2.236-2.78c1.734-.578,4.322-.818,4.279-2.1-3.268.106-9.6,3.6-10.8,1.409,1.177-.422.248-1.868-1.558-2.721,2.742-3.588,7.692-6.025,8.112-9.812l.061-.011a4.2,4.2,0,0,1-.777,3.482c2.642-.535,4.632-1.326,5.784-2.446-1.26,3.557-.133,5.458,4.471,5.564-.219-1.985,4.957-1.827,5.544-3.489.016.065.036.111.05.174a.615.615,0,0,0,.185.662c1.335,4.182,4.381,1.892,7.5,3.561-.115.142-.2.23-.2.23a33.981,33.981,0,0,0-2.516,5.144c-.339.1-.687.206-1.077.325-.122-3.81-7.631.533-8.512-2.428" transform="translate(1.053 33.481)" fill="#f29672"/>
        <path id="パス_4202" data-name="パス 4202" d="M30.875.96c.869,3.417,3.835,4.523,7.489,4.869.314,2.38-4.117-.472-7.54,1.755.486.775,1.755.689,1.994,1.737a5.56,5.56,0,0,1-3.74-.1,23.978,23.978,0,0,0-1.545-2.644A15.786,15.786,0,0,1,31.846,5.14c.418-2.877-3.67-1.289-4.8-1.549a6.166,6.166,0,0,1,.228-1.251c.158-.2.35-.42.589-.68Z" transform="translate(34.028 1.208)" fill="#f29672"/>
        <path id="パス_4203" data-name="パス 4203" d="M20,32.438l1.509-.35c1.113-.506,2.967-.723,2.773-1.743-.506-2.073-4.422-.375-3.988-3.482,1.734-.574,4.32-.818,4.277-2.093l-6.027,1.4c-1.933-2.665,1.5-3.2.291-5.576-2.06,1.079-8.076.589-7.294,2.8,1.87-.309,3.643-.513,3.5,1.387-1.116.51-2.965.725-2.773,1.75,2.855.35,4.088,2.491,4.476,5.571-4.783-2.27-6.845.334-11.283-.687,2.832-.6,3.006-1.545,1.023-2.439,1.375-1.032,1-2.766,4.031-3.144.145-1.9-1.631-1.7-3.5-1.387-.937-2.281,3.934-2.256,3.948-4.158A37.906,37.906,0,0,1,30.065,22a24.518,24.518,0,0,0-2.233,3.11c2.437,3.184-.208-3.013,4.279-2.1-1,1.588-1.682,3.308-2.744,4.873-5.544.19-4.645,1.522-2.669,2.7-.217.149-.42.307-.666.447a1.938,1.938,0,0,0,2.746.6c1.089.486,2,.82,2,.82,7.209,1.384,1.6,2.536-2.712,3.13-.052-.472.124-1.043,1.71-2.123-3.168.359-3.026,2.026-5.634,2.6-.09.02-.16.041-.248.063a9.848,9.848,0,0,1-1.409.135c-.12-2.055-2.233-1.908-2.48-3.828" transform="translate(6.879 24.835)" fill="#f29672"/>
        <path id="パス_4204" data-name="パス 4204" d="M17.483,38.253c-.167.174-.314.327-.465.483a3.247,3.247,0,0,1,.023-.352,3.9,3.9,0,0,1,.443-.131" transform="translate(21.414 48.134)" fill="#f29672"/>
        <path id="パス_4205" data-name="パス 4205" d="M5.989,15.272c1.929-3.9,6.669-4.81,10.483-6.195a39.758,39.758,0,0,1-10.652,6.6c.063-.138.1-.264.169-.4" transform="translate(7.323 11.422)" fill="#f29672"/>
        <path id="パス_4206" data-name="パス 4206" d="M36.5,5.418C30.557,8,22.673,10.775,19.435,7.187c-2.453,2.611-.743,2.191-5.786,2.446-.149.3-.327.592-.5.888a13.742,13.742,0,0,1-.56-3.507c2.825-.065,6.976-2.888,12.394-3.32l.291-.068c.666.129,1.346.287,2.107.445-.436,1.075-.409,2.254,1.346,2.055,4.467-1.809,2.726-1.4,7.536-1.75a3.076,3.076,0,0,1-1.45-1.039c.147-.02.285-.047.443-.063C38.646,3,40.9,4.822,42.395,7.684c-2.685-.745-8.1,2.8-5.894-2.265" transform="translate(15.811 4.085)" fill="#f29672"/>
        <path id="パス_4207" data-name="パス 4207" d="M22.564,28.838c.355-.16.677-.3,1.012-.438a1.217,1.217,0,0,1-1.012.438" transform="translate(28.393 35.736)" fill="#f29672"/>
        <path id="パス_4208" data-name="パス 4208" d="M17.693,40.418l1.509-.35c.519.738,1.542.921,3.259.346-.605-3.277-2.035-5.641-4.718-6.615-.481-.158-.865-.3-1.206-.445.8-.691,1.651-1.346,2.516-1.976,7.319.318,8.55,3.078,8.439,6.5a79.369,79.369,0,0,0-7.321,6.856c-1.416-.786-2.714-1.7-2.477-4.313" transform="translate(20.809 39.483)" fill="#f29672"/>
        <path id="パス_4209" data-name="パス 4209" d="M26.15,45.674a12.722,12.722,0,0,1-5.056,5.58,1.215,1.215,0,0,0-.662-.806c-.111-.592-.2-1.161-.278-1.664l-.018-.126c.928-2.389.885-3.521-.237-5.339.291-2.028,1.229-3.4,2.958-5.33a5.678,5.678,0,0,0,2.319,3.5Z" transform="translate(25.039 47.802)" fill="#f29672"/>
        <path id="パス_4210" data-name="パス 4210" d="M19.232,15.952c-.657-2.931,4.7,1.54,2.532-2.784a.553.553,0,0,1,.086-.009c.4.7.831,1.5,1.247,2.306-1.066.355-1.549,1.222-3.864.488" transform="translate(24.129 16.557)" fill="#ee805b"/>
        <path id="パス_4211" data-name="パス 4211" d="M24.2,15.357c-.346-.795-.72-1.6-1.129-2.405l-.183-.79c2.186-.847,2.958,2.143,1.312,3.2" transform="translate(28.795 15.115)" fill="#ee805b"/>
        <path id="パス_4212" data-name="パス 4212" d="M28.3,18.19a9.3,9.3,0,0,1-1.766,3.688c-.418-.269-.867-1.161-1.335-2.929a8.182,8.182,0,0,1-.156-1.1c-.052-.018-.088-.023-.138-.041-.084-.323-.219-.822-.406-1.459a21.632,21.632,0,0,0,3.8,1.843" transform="translate(30.822 20.57)" fill="#ee805b"/>
        <path id="パス_4213" data-name="パス 4213" d="M40.793,12.535c.117.113.21.172.316.264-.208.348-.422.693-.65,1.037-1.4-.937-2.229-1.484.334-1.3" transform="translate(49.244 15.728)" fill="#eb6e49"/>
        <path id="パス_4214" data-name="パス 4214" d="M11.7,24.3c.14-1.9-1.633-1.7-3.5-1.387-.779-2.209,5.237-1.716,7.3-2.8,1.2,2.376-2.227,2.911-.294,5.576-2,.447-1.8-1.511-3.5-1.391" transform="translate(10.227 25.312)" fill="#f39e7c"/>
        <path id="パス_4215" data-name="パス 4215" d="M8.489,23.723c-.194-1.025,1.658-1.24,2.771-1.748,1.7-.12,1.5,1.838,3.5,1.391l6.03-1.4c.043,1.276-2.543,1.522-4.277,2.093-.436,3.107,3.482,1.411,3.988,3.485.192,1.021-1.66,1.235-2.773,1.741.226-3.717-3.507-.958-4.765.011-.386-3.078-1.619-5.221-4.474-5.571" transform="translate(10.664 27.638)" fill="#f4a584"/>
        <path id="パス_4216" data-name="パス 4216" d="M19.37,25.816c-1.585,1.079-1.759,1.651-1.71,2.123-2.023.28-3.76.436-3.76.436l-.165.043c2.611-.578,2.468-2.243,5.634-2.6" transform="translate(17.284 32.485)" fill="#ef8661"/>
        <path id="パス_4217" data-name="パス 4217" d="M11.211,28.356c.757.781,3.139,1.2,3.139,1.2,7.209-1.676,5.074,1.47,4.356,2.36-3.114-1.667-6.161.623-7.5-3.561" transform="translate(14.107 35.681)" fill="#ef8661"/>
        <path id="パス_4218" data-name="パス 4218" d="M15.189,37.192c-4.6-.106-5.732-2.01-4.471-5.567-1.152,1.12-3.141,1.913-5.784,2.446a4.194,4.194,0,0,0,.777-3.482c2.529,1.4,4.819,1.369,6.269-.361C10.862,28.9,7.7,28.676,5.58,29.06a14.584,14.584,0,0,0-2.121-4.474c2.439-.738,5.354-2.005,5.558-.278,1.983.894,1.809,1.838-1.023,2.439,4.438,1.021,6.5-1.583,11.283.687,1.256-.969,4.991-3.731,4.763-.011l-1.509.35c.246,1.92,2.36,1.773,2.48,3.828a9.533,9.533,0,0,0,1.409-.135c-3.945.948-5.413,1.759-5.637,2.41-.016-.061-.034-.108-.05-.174-.589,1.662-5.765,1.506-5.544,3.491" transform="translate(4.352 29.498)" fill="#ef8661"/>
        <path id="パス_4219" data-name="パス 4219" d="M10.8,27.192c-1.45,1.73-3.74,1.761-6.269.361l-.061.014A4.6,4.6,0,0,0,4.5,26.7c-.018-.235-.059-.454-.1-.675,2.116-.384,5.28-.165,6.4,1.168" transform="translate(5.534 32.534)" fill="#ee805b"/>
        <path id="パス_4220" data-name="パス 4220" d="M46.691,40.66c2.9-1.183,5.756-3.351,9.2-5.253-1.673,2.823-5.594,4.706-9.2,5.253" transform="translate(58.752 44.553)" fill="#fbd1bc"/>
        <path id="パス_4221" data-name="パス 4221" d="M20.407,35.175c7.337-.547-3.295-2.949,2.039-4.882.472,1.238,1.028,2.367,3.5,1.393l.242,1.043c2.757-1.107,2.055-3.588,6.98-3.837a16.93,16.93,0,0,1,.766,2.206,2.275,2.275,0,0,0,.339,1.6,20.558,20.558,0,0,1,.282,2.744,75.6,75.6,0,0,0-6.563,4.3A1.745,1.745,0,0,0,27.254,39c-.528-.291-1.346-.086-2.331.449.4-1.579.96-2.9,1.511-5.673-.851.522-5.194,3.95-6.027,1.4" transform="translate(25.678 36.355)" fill="#ee805b"/>
        <path id="パス_4222" data-name="パス 4222" d="M25.209,28.123a2.987,2.987,0,0,1,1.159.16,15.725,15.725,0,0,1,.7,1.448c-.542-.619-1.635-.635-1.856-1.608" transform="translate(31.721 35.378)" fill="#ee805b"/>
        <path id="パス_4223" data-name="パス 4223" d="M41.491,51.618c-.524-.738-1.547-.921-3.256-.343l-.244-1.048c7.97-1.969,1.644-1-.488-2.093a12.041,12.041,0,0,0,4.033-3.139c-2.319.014-6.7,2.3-8.521,1.764a12.063,12.063,0,0,0,.474-1.827c1.389-.467,2.816.982,3.042-.973-1.658.377-1.82-.9-2.794-1.278a39.774,39.774,0,0,0-.714-8.92l1.077-.253c.3,4,.355,9.623,6.219,6.267a4.146,4.146,0,0,1-2.527,2.791c1.633,2.36,4.232-2.615,5.544-3.494,3.044-.242-1.771,3.561,5.009,1.039a1.708,1.708,0,0,0,.865.969,21.049,21.049,0,0,1,.858,2.08c-2.139,1.206-.364,2.157.854,3.263.113.614.2,1.224.253,1.843l-6.915,1.608c-1.511.348-1.6,1.26-2.771,1.746" transform="translate(41.544 42.161)" fill="#ed7853"/>
        <path id="パス_4224" data-name="パス 4224" d="M31.173,36.882c.16.752.3,1.475.42,2.125a2.141,2.141,0,0,0-1.346-.33,4.574,4.574,0,0,1,.926-1.8" transform="translate(38.06 46.409)" fill="#ed7853"/>
        <path id="パス_4225" data-name="パス 4225" d="M28.269,39.61a26.962,26.962,0,0,0,.626-2.936,9.588,9.588,0,0,1,.937-2.545,5.5,5.5,0,0,0,1.378-.375,7.669,7.669,0,0,1,1.353,2.785,2.654,2.654,0,0,1-2.8.158c.632,1.258,2.441,1.219,3.428,2.091.034.133.065.269.1.4-2.161.68-3.882.869-5.025.42" transform="translate(35.571 42.473)" fill="#e85c3a"/>
        <path id="パス_4226" data-name="パス 4226" d="M22.039,38.967l-1.509.35-.244-1.043c-.036-3.148-3.376-.3-6-.208.122-.178.194-.291.194-.291a19.189,19.189,0,0,1,1.378-1.929,1.6,1.6,0,0,0,1.958-1.4,7.9,7.9,0,0,0-.79.077,31.128,31.128,0,0,1,2.353-2.267c.341.142.725.287,1.206.447-2.78,2.949,1.445,2.807,1.459,6.267" transform="translate(17.971 40.584)" fill="#f39e7c"/>
        <path id="パス_4227" data-name="パス 4227" d="M15.664,32.639l1.077-.327c-.185.467-.352.9-.5,1.289-1.461.488-2.008,1.052-.628,1.8l-.034.108c-.016.172-.018.294-.032.452l-.666.156c-3.076-1.87-8.2-.072.779-3.482" transform="translate(13.36 40.659)" fill="#f39e7c"/>
        <path id="パス_4228" data-name="パス 4228" d="M3.449,33.679c1.192,2.186,7.529-1.3,10.795-1.409.043,1.28-2.543,1.522-4.277,2.1A4.192,4.192,0,0,1,12.2,37.15l8.313-5.235c.878,2.961,8.39-1.384,8.509,2.428-8.979,3.41-3.855,1.612-.779,3.482a9.56,9.56,0,0,0-4.282,2.093c.221-4.62-9.41,1.64-11.276-.675l.729,3.13.244,1.046c-2.807.716-3.381-.059-1.994-1.739a22.537,22.537,0,0,0-8.426,3.471,5.644,5.644,0,0,1-.98-.68c-2.276-2.134-2.5-6.779-2.1-9.65A8.169,8.169,0,0,1,1.89,30.958c1.8.854,2.735,2.3,1.558,2.721" transform="translate(0 38.955)" fill="#f4a584"/>
        <path id="パス_4229" data-name="パス 4229" d="M1.435,39.177a22.54,22.54,0,0,1,8.423-3.471c-1.384,1.68-.811,2.455,1.994,1.739L12.1,38.49c-2.8.565-2.794.928-2.315,1.4-2.927.348-5.98.732-8.347-.709" transform="translate(1.806 44.929)" fill="#f6b396"/>
        <path id="パス_4230" data-name="パス 4230" d="M43.7,19.95c4.142-.635,3.726,3.769,7.245,3.821.818,1.59-1,2.134-.779,3.487-4.984.416-3.649-2.809-5.494-3.13,2.028-2.656-.445-1.294-.971-4.178" transform="translate(54.989 25.024)" fill="#f29672"/>
        <path id="パス_4231" data-name="パス 4231" d="M21.21,39.6c.474-.531,1-1.1,1.6-1.741.242-.262.612-.662,1.034-1.149.732,2.466-.4,4.194-.318,6.4a5.679,5.679,0,0,1-2.319-3.5" transform="translate(26.689 46.19)" fill="#ef8661"/>
        <path id="パス_4232" data-name="パス 4232" d="M17.651,34.521a61.047,61.047,0,0,1,9.693-5.641c.691.944,1.981,1.222,2.073,2.821-2.475.973-3.031-.156-3.5-1.393-5.334,1.933,5.3,4.336-2.039,4.882.833,2.55,5.176-.878,6.027-1.4-.551,2.775-1.109,4.094-1.511,5.673a16.757,16.757,0,0,0-2.3,1.556c.111-3.419-1.12-6.179-8.439-6.5" transform="translate(22.21 36.34)" fill="#ef8661"/>
        <path id="パス_4233" data-name="パス 4233" d="M41.191,46.016a1.675,1.675,0,0,1,1.249.221,18.21,18.21,0,0,0-3.216.233c-2.078.336-4.34,1.915-6.626,2.518a15.47,15.47,0,0,1,8.593-2.972" transform="translate(41.018 57.867)" fill="#f4a584"/>
        <path id="パス_4234" data-name="パス 4234" d="M13.9,32.883c-.352.958-.565,1.61-.628,1.8-1.38-.752-.833-1.317.628-1.8" transform="translate(15.702 41.377)" fill="#f4a584"/>
        <path id="パス_4235" data-name="パス 4235" d="M20.2,45.688a18.923,18.923,0,0,1-.239-5.339c1.122,1.818,1.168,2.947.239,5.339" transform="translate(24.982 50.772)" fill="#f4a584"/>
        <path id="パス_4236" data-name="パス 4236" d="M8.985,45.524c2.891-1,3.317.716,5.007,1.034a24.821,24.821,0,0,0,4.815-6.621c-2.69.192-3.5,2.448-4.526,1.052a12.03,12.03,0,0,0,3.695-4.95c.321,3.683,2.685.522,3.383-.506,2.626-.09,5.964-2.94,6,.21l.244,1.043c-.237,2.611,1.061,3.525,2.477,4.313-.775.8-1.481,1.542-2.084,2.172a3.459,3.459,0,0,0-.44.131c-2.534,1.253-6.971-1.6-7.536,1.752a9.631,9.631,0,0,1,5.585.452c-2.868,2.468-6.639,5.156-10.6,5.727,1.192-1.041,2.473-2.114-.282-1.635a7.185,7.185,0,0,1-2.69,1.64A6.2,6.2,0,0,1,8.66,49.471c1-.962.973-2.331.325-3.948" transform="translate(10.897 43.115)" fill="#f4a584"/>
        <path id="パス_4237" data-name="パス 4237" d="M14.978,34.625c.364-.454.763-.892,1.168-1.326a7.288,7.288,0,0,1,.79-.077,1.6,1.6,0,0,1-1.958,1.4" transform="translate(18.847 41.805)" fill="#f4a584"/>
        <path id="パス_4238" data-name="パス 4238" d="M20.8,44.312c-.169.077-.312.147-.458.221-.075-.352-.142-.693-.2-1.028a1.221,1.221,0,0,1,.662.806" transform="translate(25.336 54.744)" fill="#f4a584"/>
        <path id="パス_4239" data-name="パス 4239" d="M13.126,42.8a9.76,9.76,0,0,1-2.8.054c-.061-.007-.113-.038-.174-.05a7.145,7.145,0,0,0,2.687-1.642c2.757-.476,1.475.6.285,1.637" transform="translate(12.777 51.649)" fill="#f6b396"/>
        <path id="パス_4240" data-name="パス 4240" d="M8.342,40.377c-.528-.732-.519-2.055-2-1.743L5.618,35.5c1.865,2.315,11.5-3.945,11.276.675a9.547,9.547,0,0,1,4.282-2.093l.666-.156a16.592,16.592,0,0,0-.038,2.529,12.011,12.011,0,0,1-3.695,4.95c1.021,1.4,1.836-.86,4.526-1.052a24.772,24.772,0,0,1-4.815,6.621c-1.689-.318-2.116-2.035-5.007-1.034.648,1.617.677,2.985-.325,3.948a11.939,11.939,0,0,1-2.331-3.658c1.579.723,5.016-2.179,5.181-3.08-3.286.7-5.088,1.05-5.892,1.143-.029-.1-.061-.2-.09-.294a65.564,65.564,0,0,0,7.005-3.288c-.752-2.236-4.316-1.364-8.019-.336" transform="translate(7.069 42.694)" fill="#f6b396"/>
        <path id="パス_4241" data-name="パス 4241" d="M7.581,38.132l-.244-1.046-.244-1.048c1.472-.309,1.468,1.012,1.994,1.746,3.7-1.028,7.27-1.9,8.022.334A64.685,64.685,0,0,1,10.1,41.407C9.887,40.7,9.7,40,9.544,39.329a19.963,19.963,0,0,0-4.277.2c-.479-.467-.49-.831,2.315-1.4" transform="translate(6.323 45.29)" fill="#f8c1a7"/>
        <path id="パス_4242" data-name="パス 4242" d="M8.025,41.094a20.538,20.538,0,0,1-.711-1.935c.8-.093,2.6-.447,5.892-1.145-.165.9-3.6,3.8-5.181,3.08" transform="translate(9.203 47.833)" fill="#f8c1a7"/>
        <path id="パス_4243" data-name="パス 4243" d="M21.228,38.311a2.813,2.813,0,0,0-.023.352c-.61.639-1.091,1.131-1.346,1.36-.183.16-.388.327-.58.495a9.642,9.642,0,0,0-5.589-.454c.565-3.351,5-.5,7.538-1.752" transform="translate(17.226 48.207)" fill="#f39e7c"/>
        <path id="パス_4244" data-name="パス 4244" d="M39.793,36.38a5.224,5.224,0,0,1,.885,1.07l.007.011a1.7,1.7,0,0,1-.865-.969Z" transform="translate(50.072 45.777)" fill="#f1906c"/>
        <path id="パス_4245" data-name="パス 4245" d="M47.856,37.314a3.36,3.36,0,0,1-1.073-.431c1.66-.33.621-2.15-1.646-4.309C48.71,32,52.091,31.98,53.448,27.2c-4.751,1.748-7.179.921-10.792,1.411l.486,2.084c-.12-.029-.2-.065-.3-.1-.567-.445-1.161-.883-1.775-1.319-.122-1.134,1.863-2.586,2.952-4.083,2.263.226,4.191.535,4.191.535,1.07.219,1.958.377,2.728.5,2.123.754,4.462,1.357,6.016,2.364-.96,3.728-10.174,4.185-9.092,8.724" transform="translate(51.661 31.702)" fill="#f1906c"/>
        <path id="パス_4246" data-name="パス 4246" d="M39.74,30.767a9.271,9.271,0,0,1,1.107-1.192c1.637.612,3.035,1.079,4.153,1.375,6.344,2.31-1.511,6.583.185,9.566a5.65,5.65,0,0,1-1.54.307,30.819,30.819,0,0,0-3.674-4.562c1.92-2.611,2.8-7.464-.23-5.494" transform="translate(50.005 37.215)" fill="#f1906c"/>
        <path id="パス_4247" data-name="パス 4247" d="M43.741,22.937c-.16-.061-.323-.12-.483-.178.233-.124.434-.239.707-.375-.1.2-.149.366-.224.553" transform="translate(54.432 28.166)" fill="#f1906c"/>
        <path id="パス_4248" data-name="パス 4248" d="M47.3,38.711a12.041,12.041,0,0,1-4.033,3.139c2.132,1.089,8.457.122.488,2.091L44,44.989c-.142,3.225-2.726-1.057-4.767,0-5.018,1.488-1.113,6.515-6.077,8.026,3.177-3.665-3.932-3.378-4.715-6.617,3.5-.508,5.605-1.57,5.546-3.491-.242-1.048-1.515-.958-2-1.737-.9-1.536.5-2.157,2.154-2.676.122.732.19,1.188.19,1.188,1.861,8,3.724,2.317,3.724,2.317a7.84,7.84,0,0,0,.723-1.531c1.825.535,6.2-1.748,8.521-1.761" transform="translate(35.783 48.444)" fill="#ef8661"/>
        <path id="パス_4249" data-name="パス 4249" d="M36.268,38.846c-.228,1.953-1.653.506-3.042.973a17.972,17.972,0,0,0,.248-2.252c.973.379,1.136,1.653,2.794,1.278" transform="translate(41.809 47.272)" fill="#ef8661"/>
        <path id="パス_4250" data-name="パス 4250" d="M43.551,36.19c4.232-.971-2.927,3.686,3.5,1.387-.047.7-.664,1.177-1.4,1.606A10.669,10.669,0,0,1,43.007,37.1c.37-.239.621-.562.544-.915" transform="translate(54.116 45.369)" fill="#f4a584"/>
        <path id="パス_4251" data-name="パス 4251" d="M39.115,37.063c-2.324,1.606-3.2,3.787-1.554,6.971l4.519-1.052c.481.779,1.755.691,2,1.739.059,1.92-2.042,2.981-5.544,3.491.781,3.236,7.891,2.949,4.715,6.615.063.657.059,1.289-1.265,1.393-.038-3.46-7.091.827-8.268-1.38,1.739-.576,4.322-.82,4.282-2.1-1.685-2.705-12.669-3.988-14.051,1.07.519,1.612,4.033-.084,3.742,2.432a9.426,9.426,0,0,0-4.275,2.093c-.54-2.468-3.313-2.473-2.967-5.917a12.722,12.722,0,0,0,5.056-5.58l7.538-1.752a5.747,5.747,0,0,1,.461-1.213A14.312,14.312,0,0,0,37.5,37.555a6.205,6.205,0,0,0,1.619-.492" transform="translate(25.689 46.637)" fill="#ed7853"/>
        <path id="パス_4252" data-name="パス 4252" d="M41.982,45.123c1.811-.547,3.494-1.145,2.532-2.789-2.845.5-5.2.486-6.517-.687l6.915-1.608a16.739,16.739,0,0,1-1.56,9.173l-.4.09c-2.995-1.495-.174-1.36-.973-4.18" transform="translate(47.811 50.383)" fill="#ef8661"/>
        <path id="パス_4253" data-name="パス 4253" d="M41.125,37.78a21.131,21.131,0,0,1,.854,3.263c-1.217-1.107-2.992-2.057-.854-3.263" transform="translate(50.49 47.539)" fill="#ef8661"/>
        <path id="パス_4254" data-name="パス 4254" d="M23.652,50.925a9.426,9.426,0,0,1,4.275-2.093c.289-2.516-3.223-.82-3.744-2.432,1.384-5.059,12.369-3.776,14.053-1.07.041,1.28-2.543,1.524-4.282,2.1,1.177,2.206,8.229-2.08,8.268,1.38-.908.271-1.75.571-1.265,1.4,2.568-.154,2.17.248.558.644a6.088,6.088,0,0,0-2.7-.924,6.163,6.163,0,0,0-4.056,1.518c-1.493-.117-2.764-.474-3.333-1.224A16.292,16.292,0,0,1,25.192,54.6a8.433,8.433,0,0,1-2.884-3.279,1.407,1.407,0,0,0-.657-1.38,26.4,26.4,0,0,1-1.425-4.711c.147-.072.287-.142.458-.219-.348,3.444,2.425,3.448,2.967,5.917" transform="translate(25.451 54.048)" fill="#ef8661"/>
        <path id="パス_4255" data-name="パス 4255" d="M47.6,41.439c.962,1.646-.72,2.243-2.532,2.789-5.047,3.839.736-1.89-5.007-1.037.129,1.312.124,2.579-2.529,2.791-.526-.734-.517-2.051-1.99-1.739.14-.89.976-1.509,2.771-1.743,1.174-.486,1.258-1.4,2.771-1.748,1.317,1.172,3.67,1.192,6.515.687" transform="translate(44.723 51.279)" fill="#f39e7c"/>
        <path id="パス_4256" data-name="パス 4256" d="M41.182,44.671c2.654-.212,2.658-1.477,2.529-2.789,5.743-.856-.041,4.873,5.007,1.037.8,2.821-2.021,2.685.973,4.178-3.01,1.425-6.057,4.327-8.8,3.153-4.293-2.394-.994-.212-6.027,1.4,1.515-2.866-4.8-3.024-.973-4.18,2.035,3.022,1.554-2.319.777-3.487l4.523-1.052c1.47-.312,1.463,1.007,1.99,1.739" transform="translate(41.072 52.59)" fill="#f4a584"/>
        <path id="パス_4257" data-name="パス 4257" d="M37.308,42.764c.779,1.168,1.26,6.508-.775,3.487-3.83,1.156,2.486,1.314.971,4.18,5.034-1.615,1.734-3.8,6.027-1.4l.244,1.043a15.471,15.471,0,0,0-8.593,2.974,6.021,6.021,0,0,1-2.2.21,6.479,6.479,0,0,1-2.441-.958c3.579-2.656,3.313-6.834,6.764-9.535" transform="translate(38.434 53.81)" fill="#f39e7c"/>
        <path id="パス_4258" data-name="パス 4258" d="M29.485,52.383c-.486-.824.357-1.127,1.265-1.4,1.323-.106,1.328-.736,1.262-1.393,4.964-1.511,1.057-6.538,6.077-8.026,2.042-1.064,4.623,3.22,4.765,0,1.712-.578,2.735-.4,3.259.343-1.8.237-2.631.854-2.771,1.746L38.819,44.7c-3.451,2.7-3.184,6.879-6.764,9.532-.666-.391-1.332-.827-2.012-1.21,1.612-.4,2.01-.795-.558-.644" transform="translate(36.923 51.87)" fill="#f29672"/>
        <path id="パス_4259" data-name="パス 4259" d="M21.514,47.425a14.352,14.352,0,0,1-.657-1.38,1.411,1.411,0,0,1,.657,1.38" transform="translate(26.245 57.939)" fill="#f29672"/>
        <path id="パス_4260" data-name="パス 4260" d="M31.991,47.4c-2.161,1.637-4.018,4-6.773,3.961a5.434,5.434,0,0,1-2.794-.808,16.316,16.316,0,0,0,6.233-4.377c.569.75,1.841,1.1,3.333,1.224" transform="translate(28.218 58.097)" fill="#f29672"/>
        <path id="パス_4261" data-name="パス 4261" d="M36.295,47.344c2.742,1.174,5.788-1.728,8.8-3.153l.4-.09c-.023.047-.036.1-.061.145-2.7,5.133-4.137,4.392-7.642,4.363a1.686,1.686,0,0,0-1.249-.219Z" transform="translate(45.67 55.493)" fill="#f6b396"/>
        <path id="パス_4262" data-name="パス 4262" d="M17.6,32.45c2.678.973,4.11,3.338,4.715,6.615-1.716.576-2.737.393-3.256-.348-.016-3.46-4.239-3.315-1.459-6.267" transform="translate(20.954 40.832)" fill="#f4a584"/>
      </g>
    </g>
  </g>
</svg>
